<mxfile host="Electron" modified="2024-01-07T16:33:55.430Z" agent="Mozilla/5.0 (Windows NT 10.0; Win64; x64) AppleWebKit/537.36 (KHTML, like Gecko) draw.io/22.1.16 Chrome/120.0.6099.109 Electron/28.1.0 Safari/537.36" etag="SwIObbm6RkKtNtnQNxVB" version="22.1.16" type="device" pages="5">
  <diagram id="kstpRN9bpwcl9hMhbD-7" name="Навыки">
    <mxGraphModel dx="2261" dy="844" grid="1" gridSize="10" guides="1" tooltips="1" connect="1" arrows="1" fold="1" page="1" pageScale="1" pageWidth="827" pageHeight="1169" math="0" shadow="0">
      <root>
        <mxCell id="0" />
        <mxCell id="1" parent="0" />
        <mxCell id="EmEUJaQ3bBEL1udtTiVe-30" value="" style="ellipse;whiteSpace=wrap;aspect=fixed;fillColor=#e6d0de;strokeColor=#996185;opacity=30;labelBorderColor=default;gradientColor=none;" parent="1" vertex="1">
          <mxGeometry x="-225" y="145" width="890" height="890" as="geometry" />
        </mxCell>
        <mxCell id="EmEUJaQ3bBEL1udtTiVe-34" value="" style="ellipse;whiteSpace=wrap;aspect=fixed;fillColor=#d5e8d4;strokeColor=#82b366;opacity=30;labelBorderColor=default;" parent="1" vertex="1">
          <mxGeometry x="235" y="610" width="540" height="540" as="geometry" />
        </mxCell>
        <mxCell id="EmEUJaQ3bBEL1udtTiVe-33" value="" style="ellipse;whiteSpace=wrap;aspect=fixed;fillColor=#dae8fc;strokeColor=#6c8ebf;opacity=30;labelBorderColor=default;" parent="1" vertex="1">
          <mxGeometry x="374" y="240" width="729" height="729" as="geometry" />
        </mxCell>
        <mxCell id="EmEUJaQ3bBEL1udtTiVe-1" value="Владение Python" style="text;strokeColor=#B20000;fillColor=#e51400;align=center;verticalAlign=middle;whiteSpace=wrap;rounded=0;labelBorderColor=default;fontColor=#ffffff;" parent="1" vertex="1">
          <mxGeometry x="495" y="630" width="60" height="30" as="geometry" />
        </mxCell>
        <mxCell id="EmEUJaQ3bBEL1udtTiVe-2" value="DL Framework" style="text;strokeColor=#B20000;fillColor=#e51400;align=center;verticalAlign=middle;whiteSpace=wrap;rounded=0;labelBorderColor=default;fontColor=#ffffff;" parent="1" vertex="1">
          <mxGeometry x="435" y="575" width="60" height="30" as="geometry" />
        </mxCell>
        <mxCell id="EmEUJaQ3bBEL1udtTiVe-3" value="Владение навыками разработки ПО и интегарции компонентов" style="text;strokeColor=#B20000;fillColor=#e51400;align=center;verticalAlign=middle;whiteSpace=wrap;rounded=0;labelBorderColor=default;fontColor=#ffffff;" parent="1" vertex="1">
          <mxGeometry x="460" y="765" width="130" height="60" as="geometry" />
        </mxCell>
        <mxCell id="EmEUJaQ3bBEL1udtTiVe-4" value="Хорошие знания машинного обучения, глубокого обучения и NLP" style="text;strokeColor=#B20000;fillColor=#e51400;align=center;verticalAlign=middle;whiteSpace=wrap;rounded=0;labelBorderColor=default;fontColor=#ffffff;" parent="1" vertex="1">
          <mxGeometry x="435" y="710" width="180" height="40" as="geometry" />
        </mxCell>
        <mxCell id="EmEUJaQ3bBEL1udtTiVe-6" value="Умение работать с Git" style="text;strokeColor=#B20000;fillColor=#e51400;align=center;verticalAlign=middle;whiteSpace=wrap;rounded=0;labelBackgroundColor=none;labelBorderColor=default;fontColor=#ffffff;" parent="1" vertex="1">
          <mxGeometry x="453" y="530" width="105" height="30" as="geometry" />
        </mxCell>
        <mxCell id="EmEUJaQ3bBEL1udtTiVe-8" value="Способность работы в команде" style="text;strokeColor=#B20000;fillColor=#e51400;align=center;verticalAlign=middle;whiteSpace=wrap;rounded=0;labelBackgroundColor=none;fontColor=#ffffff;labelBorderColor=default;" parent="1" vertex="1">
          <mxGeometry x="260" y="800" width="90" height="40" as="geometry" />
        </mxCell>
        <mxCell id="EmEUJaQ3bBEL1udtTiVe-10" value="Опыт разработки в одной или нескольких задачах" style="text;strokeColor=#B20000;fillColor=#e51400;align=center;verticalAlign=middle;whiteSpace=wrap;rounded=0;labelBorderColor=default;fontColor=#ffffff;" parent="1" vertex="1">
          <mxGeometry x="325" y="280" width="170" height="30" as="geometry" />
        </mxCell>
        <mxCell id="EmEUJaQ3bBEL1udtTiVe-11" value="Понимание и способность реализации разных моделей" style="text;strokeColor=#B20000;fillColor=#e51400;align=center;verticalAlign=middle;whiteSpace=wrap;rounded=0;labelBorderColor=default;fontColor=#ffffff;" parent="1" vertex="1">
          <mxGeometry x="235" y="370" width="180" height="30" as="geometry" />
        </mxCell>
        <mxCell id="EmEUJaQ3bBEL1udtTiVe-12" value="Опыт работы в Linux" style="text;strokeColor=#B20000;fillColor=#e51400;align=center;verticalAlign=middle;whiteSpace=wrap;rounded=0;labelBorderColor=default;fontColor=#ffffff;" parent="1" vertex="1">
          <mxGeometry x="260" y="450" width="120" height="20" as="geometry" />
        </mxCell>
        <mxCell id="EmEUJaQ3bBEL1udtTiVe-13" value="Умение читать научные статьи и воспроизводить результаты по ним" style="text;strokeColor=#B20000;fillColor=#e51400;align=center;verticalAlign=middle;whiteSpace=wrap;rounded=0;labelBorderColor=default;fontColor=#ffffff;" parent="1" vertex="1">
          <mxGeometry x="200" y="530" width="160" height="45" as="geometry" />
        </mxCell>
        <mxCell id="EmEUJaQ3bBEL1udtTiVe-14" value="Сбор данных и их анализ" style="text;strokeColor=#B20000;fillColor=#e51400;align=center;verticalAlign=middle;whiteSpace=wrap;rounded=0;labelBorderColor=default;fontColor=#ffffff;" parent="1" vertex="1">
          <mxGeometry x="120" y="735" width="110" height="30" as="geometry" />
        </mxCell>
        <mxCell id="EmEUJaQ3bBEL1udtTiVe-15" value="Наличие исследовательского опыта в решении проблем NLP" style="text;strokeColor=#B20000;fillColor=#e51400;align=center;verticalAlign=middle;whiteSpace=wrap;rounded=0;labelBorderColor=default;fontColor=#ffffff;" parent="1" vertex="1">
          <mxGeometry x="680" y="510" width="200" height="30" as="geometry" />
        </mxCell>
        <mxCell id="EmEUJaQ3bBEL1udtTiVe-16" value="Знание SOTA моделей" style="text;strokeColor=#B20000;fillColor=#e51400;align=center;verticalAlign=middle;whiteSpace=wrap;rounded=0;labelBorderColor=default;fontColor=#ffffff;" parent="1" vertex="1">
          <mxGeometry x="760" y="610" width="120" height="30" as="geometry" />
        </mxCell>
        <mxCell id="EmEUJaQ3bBEL1udtTiVe-17" value="Способность вести исследования как самостоятельно, так и в составе команды" style="text;strokeColor=#B20000;fillColor=#e51400;align=center;verticalAlign=middle;whiteSpace=wrap;rounded=0;labelBorderColor=default;fontColor=#ffffff;" parent="1" vertex="1">
          <mxGeometry x="710" y="290" width="170" height="60" as="geometry" />
        </mxCell>
        <mxCell id="EmEUJaQ3bBEL1udtTiVe-18" value="Опыт построения движка или пайплайн " style="text;strokeColor=#B20000;fillColor=#e51400;align=center;verticalAlign=middle;whiteSpace=wrap;rounded=0;labelBorderColor=default;fontColor=#ffffff;" parent="1" vertex="1">
          <mxGeometry x="894" y="470" width="160" height="30" as="geometry" />
        </mxCell>
        <mxCell id="EmEUJaQ3bBEL1udtTiVe-19" value="Опыт разработки методологий тестирования &#xa;разработанных решений&#xa;" style="text;strokeColor=#B20000;fillColor=#e51400;align=center;verticalAlign=middle;whiteSpace=wrap;rounded=0;labelBorderColor=default;fontColor=#ffffff;" parent="1" vertex="1">
          <mxGeometry x="415" y="450" width="189" height="60" as="geometry" />
        </mxCell>
        <mxCell id="EmEUJaQ3bBEL1udtTiVe-20" value="Распределенное обучения моделей" style="text;strokeColor=#B20000;fillColor=#e51400;align=center;verticalAlign=middle;whiteSpace=wrap;rounded=0;labelBorderColor=default;fontColor=#ffffff;" parent="1" vertex="1">
          <mxGeometry x="914" y="670" width="160" height="30" as="geometry" />
        </mxCell>
        <mxCell id="EmEUJaQ3bBEL1udtTiVe-21" value="Знание регулярных выражений" style="text;strokeColor=#B20000;fillColor=#e51400;align=center;verticalAlign=middle;whiteSpace=wrap;rounded=0;labelBorderColor=default;fontColor=#ffffff;" parent="1" vertex="1">
          <mxGeometry x="-75" y="537.5" width="170" height="30" as="geometry" />
        </mxCell>
        <mxCell id="EmEUJaQ3bBEL1udtTiVe-22" value="Умение производить EDA" style="text;strokeColor=#B20000;fillColor=#e51400;align=center;verticalAlign=middle;whiteSpace=wrap;rounded=0;labelBorderColor=default;fontColor=#ffffff;" parent="1" vertex="1">
          <mxGeometry x="-75" y="272.5" width="150" height="20" as="geometry" />
        </mxCell>
        <mxCell id="EmEUJaQ3bBEL1udtTiVe-23" value="Умение производить A/B тестирование" style="text;strokeColor=#B20000;fillColor=#e51400;align=center;verticalAlign=middle;whiteSpace=wrap;rounded=0;labelBorderColor=default;fontColor=#ffffff;" parent="1" vertex="1">
          <mxGeometry x="-130" y="690" width="160" height="30" as="geometry" />
        </mxCell>
        <mxCell id="EmEUJaQ3bBEL1udtTiVe-24" value="Знание классических алгоритмов и структур данных" style="text;strokeColor=#B20000;fillColor=#e51400;align=center;verticalAlign=middle;whiteSpace=wrap;rounded=0;labelBorderColor=default;fontColor=#ffffff;" parent="1" vertex="1">
          <mxGeometry x="-205" y="605" width="170" height="40" as="geometry" />
        </mxCell>
        <mxCell id="EmEUJaQ3bBEL1udtTiVe-25" value="Опыт работы по современным методологиям разработки ПО" style="text;strokeColor=#B09500;fillColor=#e3c800;align=center;verticalAlign=middle;whiteSpace=wrap;rounded=0;labelBorderColor=default;fontColor=#000000;" parent="1" vertex="1">
          <mxGeometry x="-45" y="310" width="160" height="60" as="geometry" />
        </mxCell>
        <mxCell id="EmEUJaQ3bBEL1udtTiVe-27" value="Опыт ведения команд" style="text;strokeColor=#B20000;fillColor=#e51400;align=center;verticalAlign=middle;whiteSpace=wrap;rounded=0;labelBorderColor=default;fontColor=#ffffff;" parent="1" vertex="1">
          <mxGeometry x="450" y="1040" width="60" height="40" as="geometry" />
        </mxCell>
        <mxCell id="EmEUJaQ3bBEL1udtTiVe-29" value="Опыт выстраивания взаимоотношений со смежными командами" style="text;strokeColor=#B20000;fillColor=#e51400;align=center;verticalAlign=middle;whiteSpace=wrap;rounded=0;labelBorderColor=default;fontColor=#ffffff;" parent="1" vertex="1">
          <mxGeometry x="565" y="980" width="100" height="70" as="geometry" />
        </mxCell>
        <mxCell id="EmEUJaQ3bBEL1udtTiVe-40" value="Опыт работы с Docker" style="text;strokeColor=#B09500;fillColor=#e3c800;align=center;verticalAlign=middle;whiteSpace=wrap;rounded=0;labelBorderColor=default;fontColor=#000000;" parent="1" vertex="1">
          <mxGeometry x="90" y="470" width="110" height="30" as="geometry" />
        </mxCell>
        <mxCell id="EmEUJaQ3bBEL1udtTiVe-43" value="Опыт работы с AWS" style="text;strokeColor=#B20000;fillColor=#e51400;align=center;verticalAlign=middle;whiteSpace=wrap;rounded=0;labelBorderColor=default;fontColor=#ffffff;" parent="1" vertex="1">
          <mxGeometry x="340" y="910" width="90" height="30" as="geometry" />
        </mxCell>
        <mxCell id="EmEUJaQ3bBEL1udtTiVe-47" value="Налиие научнных публикаций" style="text;strokeColor=#B09500;fillColor=#e3c800;align=center;verticalAlign=middle;whiteSpace=wrap;rounded=0;labelBorderColor=default;fontColor=#000000;" parent="1" vertex="1">
          <mxGeometry x="476.5" y="380" width="66" height="40" as="geometry" />
        </mxCell>
        <mxCell id="EmEUJaQ3bBEL1udtTiVe-48" value="Знание языка, на который нацелен компонент NLP" style="text;strokeColor=#B09500;fillColor=#e3c800;align=center;verticalAlign=middle;whiteSpace=wrap;rounded=0;labelBorderColor=default;fontColor=#000000;" parent="1" vertex="1">
          <mxGeometry x="95" y="610" width="140" height="40" as="geometry" />
        </mxCell>
        <mxCell id="EmEUJaQ3bBEL1udtTiVe-53" value="Jira" style="text;strokeColor=#B09500;fillColor=#e3c800;align=center;verticalAlign=middle;whiteSpace=wrap;rounded=0;labelBorderColor=default;fontColor=#000000;" parent="1" vertex="1">
          <mxGeometry x="90" y="395" width="20" height="20" as="geometry" />
        </mxCell>
        <mxCell id="EmEUJaQ3bBEL1udtTiVe-56" value="Рапределенное обучение моделей" style="text;strokeColor=#B09500;fillColor=#e3c800;align=center;verticalAlign=middle;whiteSpace=wrap;rounded=0;labelBorderColor=default;fontColor=#000000;" parent="1" vertex="1">
          <mxGeometry x="-180" y="440" width="120" height="30" as="geometry" />
        </mxCell>
        <mxCell id="EmEUJaQ3bBEL1udtTiVe-57" value="Знание других языков программирования" style="text;strokeColor=#B09500;fillColor=#e3c800;align=center;verticalAlign=middle;whiteSpace=wrap;rounded=0;labelBorderColor=default;fontColor=#000000;" parent="1" vertex="1">
          <mxGeometry x="85" y="870" width="110" height="40" as="geometry" />
        </mxCell>
        <mxCell id="EmEUJaQ3bBEL1udtTiVe-59" value="Знание C++" style="text;strokeColor=#B09500;fillColor=#e3c800;align=center;verticalAlign=middle;whiteSpace=wrap;rounded=0;dashed=1;labelBorderColor=default;fontColor=#000000;" parent="1" vertex="1">
          <mxGeometry x="790" y="390" width="60" height="30" as="geometry" />
        </mxCell>
        <mxCell id="EmEUJaQ3bBEL1udtTiVe-58" value="" style="ellipse;whiteSpace=wrap;aspect=fixed;dashed=1;strokeWidth=1;fillColor=none;labelBorderColor=default;" parent="1" vertex="1">
          <mxGeometry x="100" y="145" width="210" height="210" as="geometry" />
        </mxCell>
        <mxCell id="EmEUJaQ3bBEL1udtTiVe-44" value="Spark" style="text;strokeColor=#B09500;fillColor=#e3c800;align=center;verticalAlign=middle;whiteSpace=wrap;rounded=0;labelBorderColor=default;fontColor=#000000;" parent="1" vertex="1">
          <mxGeometry x="270" y="250" width="30" height="15" as="geometry" />
        </mxCell>
        <mxCell id="EmEUJaQ3bBEL1udtTiVe-49" value="Hadoop" style="text;strokeColor=#B09500;fillColor=#e3c800;align=center;verticalAlign=middle;whiteSpace=wrap;rounded=0;labelBorderColor=default;fontColor=#000000;" parent="1" vertex="1">
          <mxGeometry x="225" y="310" width="45" height="20" as="geometry" />
        </mxCell>
        <mxCell id="EmEUJaQ3bBEL1udtTiVe-50" value="Sagemaker" style="text;strokeColor=#B09500;fillColor=#e3c800;align=center;verticalAlign=middle;whiteSpace=wrap;rounded=0;labelBorderColor=default;fontColor=#000000;" parent="1" vertex="1">
          <mxGeometry x="175" y="277.5" width="60" height="20" as="geometry" />
        </mxCell>
        <mxCell id="EmEUJaQ3bBEL1udtTiVe-51" value="Airflow" style="text;strokeColor=#B09500;fillColor=#e3c800;align=center;verticalAlign=middle;whiteSpace=wrap;rounded=0;labelBorderColor=default;fontColor=#000000;" parent="1" vertex="1">
          <mxGeometry x="180" y="220" width="35" height="20" as="geometry" />
        </mxCell>
        <mxCell id="EmEUJaQ3bBEL1udtTiVe-52" value="Kubernetes" style="text;strokeColor=#B09500;fillColor=#e3c800;align=center;verticalAlign=middle;whiteSpace=wrap;rounded=0;labelBorderColor=default;fontColor=#000000;" parent="1" vertex="1">
          <mxGeometry x="165" y="170" width="60" height="20" as="geometry" />
        </mxCell>
        <mxCell id="EmEUJaQ3bBEL1udtTiVe-54" value="Kuberflow" style="text;strokeColor=#B09500;fillColor=#e3c800;align=center;verticalAlign=middle;whiteSpace=wrap;rounded=0;labelBorderColor=default;fontColor=#000000;" parent="1" vertex="1">
          <mxGeometry x="110" y="230" width="60" height="20" as="geometry" />
        </mxCell>
        <mxCell id="EmEUJaQ3bBEL1udtTiVe-55" value="CI/CD" style="text;strokeColor=#B09500;fillColor=#e3c800;align=center;verticalAlign=middle;whiteSpace=wrap;rounded=0;labelBorderColor=default;fontColor=#000000;" parent="1" vertex="1">
          <mxGeometry x="122.5" y="277.5" width="35" height="15" as="geometry" />
        </mxCell>
        <mxCell id="EmEUJaQ3bBEL1udtTiVe-73" style="edgeStyle=orthogonalEdgeStyle;rounded=0;orthogonalLoop=1;jettySize=auto;html=1;exitX=0.5;exitY=1;exitDx=0;exitDy=0;fontColor=#000000;labelBorderColor=default;" parent="1" source="EmEUJaQ3bBEL1udtTiVe-29" target="EmEUJaQ3bBEL1udtTiVe-29" edge="1">
          <mxGeometry relative="1" as="geometry" />
        </mxCell>
        <mxCell id="B7jCO1q8MLIh7Qw_UGbO-1" value="Инженер/разработчик" style="rounded=0;whiteSpace=wrap;html=1;fillColor=#e6d0de;strokeColor=#996185;gradientColor=none;" parent="1" vertex="1">
          <mxGeometry x="1410" y="30" width="120" height="60" as="geometry" />
        </mxCell>
        <mxCell id="B7jCO1q8MLIh7Qw_UGbO-2" value="Исследователь/ученый" style="rounded=0;whiteSpace=wrap;html=1;fillColor=#dae8fc;strokeColor=#6c8ebf;" parent="1" vertex="1">
          <mxGeometry x="1410" y="100" width="120" height="60" as="geometry" />
        </mxCell>
        <mxCell id="B7jCO1q8MLIh7Qw_UGbO-3" value="Руководитель" style="rounded=0;whiteSpace=wrap;html=1;fillColor=#d5e8d4;strokeColor=#82b366;" parent="1" vertex="1">
          <mxGeometry x="1410" y="170" width="120" height="60" as="geometry" />
        </mxCell>
        <mxCell id="EmEUJaQ3bBEL1udtTiVe-39" value="Знание SQL" style="text;strokeColor=#B20000;fillColor=#e51400;align=center;verticalAlign=middle;whiteSpace=wrap;rounded=0;labelBorderColor=default;fontColor=#ffffff;" parent="1" vertex="1">
          <mxGeometry x="310" y="730" width="60" height="30" as="geometry" />
        </mxCell>
        <mxCell id="PEdYefAQ5ZKyi3xMASit-1" value="Обязательные" style="rounded=0;whiteSpace=wrap;html=1;strokeColor=#B20000;fillColor=#e51400;fontColor=#ffffff;" parent="1" vertex="1">
          <mxGeometry x="1410" y="310" width="120" height="60" as="geometry" />
        </mxCell>
        <mxCell id="PEdYefAQ5ZKyi3xMASit-2" value="Второстепенные" style="rounded=0;whiteSpace=wrap;html=1;strokeColor=#B09500;fillColor=#e3c800;fontColor=#000000;" parent="1" vertex="1">
          <mxGeometry x="1410" y="385" width="120" height="60" as="geometry" />
        </mxCell>
        <mxCell id="jPlAlGsZOqUw-DO6wuo5-2" value="Большие языковые модели" style="rounded=0;whiteSpace=wrap;html=1;fillColor=#e51400;fontColor=#ffffff;strokeColor=#B20000;" vertex="1" parent="1">
          <mxGeometry x="3" y="780" width="120" height="60" as="geometry" />
        </mxCell>
      </root>
    </mxGraphModel>
  </diagram>
  <diagram id="iyW5mXKd6tPrbFUDpsVo" name="Обязанности">
    <mxGraphModel dx="2261" dy="-325" grid="1" gridSize="10" guides="1" tooltips="1" connect="1" arrows="1" fold="1" page="1" pageScale="1" pageWidth="827" pageHeight="1169" math="0" shadow="0">
      <root>
        <mxCell id="0" />
        <mxCell id="1" parent="0" />
        <mxCell id="_TCJR-u24QuQxBW9677H-1" value="" style="ellipse;whiteSpace=wrap;aspect=fixed;fillColor=#e6d0de;strokeColor=#996185;opacity=30;labelBorderColor=default;gradientColor=none;" parent="1" vertex="1">
          <mxGeometry x="-121" y="1190" width="790" height="790" as="geometry" />
        </mxCell>
        <mxCell id="_TCJR-u24QuQxBW9677H-2" value="" style="ellipse;whiteSpace=wrap;aspect=fixed;fillColor=#d5e8d4;strokeColor=#82b366;opacity=30;labelBorderColor=default;" parent="1" vertex="1">
          <mxGeometry x="381.5" y="1661.25" width="467.5" height="467.5" as="geometry" />
        </mxCell>
        <mxCell id="_TCJR-u24QuQxBW9677H-3" value="" style="ellipse;whiteSpace=wrap;aspect=fixed;fillColor=#dae8fc;strokeColor=#6c8ebf;opacity=30;labelBorderColor=default;" parent="1" vertex="1">
          <mxGeometry x="429" y="1280" width="510" height="510" as="geometry" />
        </mxCell>
        <mxCell id="_TCJR-u24QuQxBW9677H-47" value=" Разработка компонентов NLP" style="text;strokeColor=none;fillColor=none;align=center;verticalAlign=middle;whiteSpace=wrap;rounded=0;dashed=1;labelBackgroundColor=none;labelBorderColor=default;fontColor=#000000;" parent="1" vertex="1">
          <mxGeometry x="489" y="1440" width="130" height="30" as="geometry" />
        </mxCell>
        <mxCell id="_TCJR-u24QuQxBW9677H-53" value="Тестирование компонентов" style="text;strokeColor=none;fillColor=none;align=center;verticalAlign=middle;whiteSpace=wrap;rounded=0;dashed=1;labelBackgroundColor=none;labelBorderColor=default;fontColor=#000000;" parent="1" vertex="1">
          <mxGeometry x="249" y="1250" width="190" height="30" as="geometry" />
        </mxCell>
        <mxCell id="_TCJR-u24QuQxBW9677H-54" value="Производить исследования" style="text;strokeColor=none;fillColor=none;align=center;verticalAlign=middle;whiteSpace=wrap;rounded=0;dashed=1;labelBackgroundColor=none;labelBorderColor=default;fontColor=#000000;" parent="1" vertex="1">
          <mxGeometry x="529" y="1550" width="60" height="30" as="geometry" />
        </mxCell>
        <mxCell id="_TCJR-u24QuQxBW9677H-55" value="Работать в команде" style="text;strokeColor=none;fillColor=none;align=center;verticalAlign=middle;whiteSpace=wrap;rounded=0;dashed=1;labelBackgroundColor=none;labelBorderColor=default;fontColor=#000000;" parent="1" vertex="1">
          <mxGeometry x="529" y="1700" width="100" height="30" as="geometry" />
        </mxCell>
        <mxCell id="_TCJR-u24QuQxBW9677H-56" value="Формилуриовка и объяснение ограничений" style="text;strokeColor=none;fillColor=none;align=center;verticalAlign=middle;whiteSpace=wrap;rounded=0;dashed=1;labelBackgroundColor=none;labelBorderColor=default;fontColor=#000000;" parent="1" vertex="1">
          <mxGeometry x="249" y="1340" width="180" height="30" as="geometry" />
        </mxCell>
        <mxCell id="_TCJR-u24QuQxBW9677H-57" value="Эксктракция данных " style="text;strokeColor=none;fillColor=none;align=center;verticalAlign=middle;whiteSpace=wrap;rounded=0;dashed=1;labelBackgroundColor=none;labelBorderColor=default;fontColor=#000000;" parent="1" vertex="1">
          <mxGeometry x="189" y="1440" width="160" height="30" as="geometry" />
        </mxCell>
        <mxCell id="_TCJR-u24QuQxBW9677H-59" value="Построение движка или пайплайна NLP/ML" style="text;strokeColor=none;fillColor=none;align=center;verticalAlign=middle;whiteSpace=wrap;rounded=0;dashed=1;labelBackgroundColor=none;labelBorderColor=default;fontColor=#000000;" parent="1" vertex="1">
          <mxGeometry x="171.5" y="1520" width="205" height="30" as="geometry" />
        </mxCell>
        <mxCell id="_TCJR-u24QuQxBW9677H-62" value="Декомпозирование задачи на конкретные измеримые задачи" style="text;strokeColor=none;fillColor=none;align=center;verticalAlign=middle;whiteSpace=wrap;rounded=0;dashed=1;labelBackgroundColor=none;labelBorderColor=default;fontColor=#000000;" parent="1" vertex="1">
          <mxGeometry x="159" y="1620" width="190" height="30" as="geometry" />
        </mxCell>
        <mxCell id="_TCJR-u24QuQxBW9677H-64" value="Подготовка датасетов" style="text;strokeColor=none;fillColor=none;align=center;verticalAlign=middle;whiteSpace=wrap;rounded=0;dashed=1;labelBackgroundColor=none;labelBorderColor=default;fontColor=#000000;" parent="1" vertex="1">
          <mxGeometry x="129" y="1730" width="160" height="30" as="geometry" />
        </mxCell>
        <mxCell id="_TCJR-u24QuQxBW9677H-65" value="Интеграция моделей в облако" style="text;strokeColor=none;fillColor=none;align=center;verticalAlign=middle;whiteSpace=wrap;rounded=0;dashed=1;labelBackgroundColor=none;labelBorderColor=default;fontColor=#000000;" parent="1" vertex="1">
          <mxGeometry x="-41" y="1410" width="160" height="30" as="geometry" />
        </mxCell>
        <mxCell id="_TCJR-u24QuQxBW9677H-66" value="Работа над системами разветрки и логгировани" style="text;strokeColor=none;fillColor=none;align=center;verticalAlign=middle;whiteSpace=wrap;rounded=0;dashed=1;labelBackgroundColor=none;labelBorderColor=default;fontColor=#000000;" parent="1" vertex="1">
          <mxGeometry x="-101" y="1570" width="215" height="30" as="geometry" />
        </mxCell>
        <mxCell id="_TCJR-u24QuQxBW9677H-68" value=" Работа над системами разветрки и логгирования " style="text;strokeColor=none;fillColor=none;align=center;verticalAlign=middle;whiteSpace=wrap;rounded=0;dashed=1;labelBackgroundColor=none;labelBorderColor=default;fontColor=#000000;" parent="1" vertex="1">
          <mxGeometry x="29" y="1840" width="200" height="30" as="geometry" />
        </mxCell>
        <mxCell id="_TCJR-u24QuQxBW9677H-69" value="Управление командой/командами" style="text;strokeColor=none;fillColor=none;align=center;verticalAlign=middle;whiteSpace=wrap;rounded=0;dashed=1;labelBackgroundColor=none;labelBorderColor=default;fontColor=#000000;" parent="1" vertex="1">
          <mxGeometry x="589" y="1820" width="180" height="30" as="geometry" />
        </mxCell>
        <mxCell id="_TCJR-u24QuQxBW9677H-70" value="Разработка стратегий построения NLP систем и аналитика" style="text;strokeColor=none;fillColor=none;align=center;verticalAlign=middle;whiteSpace=wrap;rounded=0;dashed=1;labelBackgroundColor=none;labelBorderColor=default;fontColor=#000000;" parent="1" vertex="1">
          <mxGeometry x="468" y="1940" width="151" height="40" as="geometry" />
        </mxCell>
        <mxCell id="_TCJR-u24QuQxBW9677H-71" value="Приминение последних достижений к текущим задачам бизнеса" style="text;strokeColor=none;fillColor=none;align=center;verticalAlign=middle;whiteSpace=wrap;rounded=0;dashed=1;labelBackgroundColor=none;labelBorderColor=default;fontColor=#000000;" parent="1" vertex="1">
          <mxGeometry x="659" y="1880" width="138" height="30" as="geometry" />
        </mxCell>
        <mxCell id="_TCJR-u24QuQxBW9677H-72" value="Исследование, понимание и обучение команды" style="text;strokeColor=none;fillColor=none;align=center;verticalAlign=middle;whiteSpace=wrap;rounded=0;dashed=1;labelBackgroundColor=none;labelBorderColor=default;fontColor=#000000;" parent="1" vertex="1">
          <mxGeometry x="670" y="1980" width="137.5" height="30" as="geometry" />
        </mxCell>
        <mxCell id="_TCJR-u24QuQxBW9677H-73" value="Организация доступности существующих &#xa;систем и библиотек NLP другим командам" style="text;strokeColor=none;fillColor=none;align=center;verticalAlign=middle;whiteSpace=wrap;rounded=0;dashed=1;labelBackgroundColor=none;labelBorderColor=default;fontColor=#000000;" parent="1" vertex="1">
          <mxGeometry x="472.5" y="2010" width="146.5" height="70" as="geometry" />
        </mxCell>
        <mxCell id="_TCJR-u24QuQxBW9677H-74" value="Написание отчетов и документации" style="text;strokeColor=none;fillColor=none;align=center;verticalAlign=middle;whiteSpace=wrap;rounded=0;dashed=1;labelBackgroundColor=none;labelBorderColor=default;fontColor=#000000;" parent="1" vertex="1">
          <mxGeometry x="709" y="1430" width="140" height="30" as="geometry" />
        </mxCell>
        <mxCell id="_TCJR-u24QuQxBW9677H-75" value="Написание научных статей" style="text;strokeColor=none;fillColor=none;align=center;verticalAlign=middle;whiteSpace=wrap;rounded=0;dashed=1;labelBackgroundColor=none;labelBorderColor=default;fontColor=#000000;" parent="1" vertex="1">
          <mxGeometry x="719" y="1530" width="160" height="30" as="geometry" />
        </mxCell>
        <mxCell id="e-IaVBLlyZa9v0MVSHWe-4" value="Инженер/разработчик" style="rounded=0;whiteSpace=wrap;html=1;fillColor=#e6d0de;strokeColor=#996185;gradientColor=none;" parent="1" vertex="1">
          <mxGeometry x="1160" y="1200" width="120" height="60" as="geometry" />
        </mxCell>
        <mxCell id="e-IaVBLlyZa9v0MVSHWe-5" value="Исследователь/ученый" style="rounded=0;whiteSpace=wrap;html=1;fillColor=#dae8fc;strokeColor=#6c8ebf;" parent="1" vertex="1">
          <mxGeometry x="1160" y="1270" width="120" height="60" as="geometry" />
        </mxCell>
        <mxCell id="e-IaVBLlyZa9v0MVSHWe-6" value="Руководитель" style="rounded=0;whiteSpace=wrap;html=1;fillColor=#d5e8d4;strokeColor=#82b366;" parent="1" vertex="1">
          <mxGeometry x="1160" y="1340" width="120" height="60" as="geometry" />
        </mxCell>
      </root>
    </mxGraphModel>
  </diagram>
  <diagram id="ebS3C_W6OTIhjiBMMaat" name="Граф навык-обязанность">
    <mxGraphModel dx="2261" dy="2013" grid="1" gridSize="10" guides="1" tooltips="1" connect="1" arrows="1" fold="1" page="1" pageScale="1" pageWidth="827" pageHeight="1169" math="0" shadow="0">
      <root>
        <mxCell id="0" />
        <mxCell id="1" parent="0" />
        <mxCell id="BhELLT2uhC-b19p8RruB-26" style="edgeStyle=entityRelationEdgeStyle;rounded=0;orthogonalLoop=1;jettySize=auto;html=1;entryX=0;entryY=0.5;entryDx=0;entryDy=0;labelBorderColor=default;fontColor=#000000;" parent="1" source="-GaUezcAxachU_HAEneV-1" target="BhELLT2uhC-b19p8RruB-2" edge="1">
          <mxGeometry relative="1" as="geometry" />
        </mxCell>
        <mxCell id="BhELLT2uhC-b19p8RruB-65" style="edgeStyle=entityRelationEdgeStyle;rounded=0;orthogonalLoop=1;jettySize=auto;html=1;entryX=0;entryY=0.5;entryDx=0;entryDy=0;labelBorderColor=default;fontColor=#000000;" parent="1" source="-GaUezcAxachU_HAEneV-1" target="BhELLT2uhC-b19p8RruB-10" edge="1">
          <mxGeometry relative="1" as="geometry" />
        </mxCell>
        <mxCell id="BhELLT2uhC-b19p8RruB-91" style="edgeStyle=entityRelationEdgeStyle;rounded=0;orthogonalLoop=1;jettySize=auto;html=1;entryX=0;entryY=0.5;entryDx=0;entryDy=0;labelBorderColor=default;fontColor=#000000;" parent="1" source="-GaUezcAxachU_HAEneV-1" target="BhELLT2uhC-b19p8RruB-1" edge="1">
          <mxGeometry relative="1" as="geometry" />
        </mxCell>
        <mxCell id="fbzDRP4mG88nfxYPtq9W-7" style="edgeStyle=entityRelationEdgeStyle;rounded=0;orthogonalLoop=1;jettySize=auto;html=1;entryX=0;entryY=0.5;entryDx=0;entryDy=0;" parent="1" source="-GaUezcAxachU_HAEneV-1" target="BhELLT2uhC-b19p8RruB-6" edge="1">
          <mxGeometry relative="1" as="geometry" />
        </mxCell>
        <mxCell id="fbzDRP4mG88nfxYPtq9W-23" style="edgeStyle=entityRelationEdgeStyle;rounded=0;orthogonalLoop=1;jettySize=auto;html=1;entryX=0;entryY=0.5;entryDx=0;entryDy=0;" parent="1" source="-GaUezcAxachU_HAEneV-1" target="BhELLT2uhC-b19p8RruB-7" edge="1">
          <mxGeometry relative="1" as="geometry" />
        </mxCell>
        <mxCell id="fbzDRP4mG88nfxYPtq9W-37" style="edgeStyle=entityRelationEdgeStyle;rounded=0;orthogonalLoop=1;jettySize=auto;html=1;entryX=0;entryY=0.5;entryDx=0;entryDy=0;" parent="1" source="-GaUezcAxachU_HAEneV-1" target="BhELLT2uhC-b19p8RruB-3" edge="1">
          <mxGeometry relative="1" as="geometry" />
        </mxCell>
        <mxCell id="fbzDRP4mG88nfxYPtq9W-48" style="edgeStyle=entityRelationEdgeStyle;rounded=0;orthogonalLoop=1;jettySize=auto;html=1;entryX=0;entryY=0.5;entryDx=0;entryDy=0;" parent="1" source="-GaUezcAxachU_HAEneV-1" target="BhELLT2uhC-b19p8RruB-11" edge="1">
          <mxGeometry relative="1" as="geometry" />
        </mxCell>
        <mxCell id="fbzDRP4mG88nfxYPtq9W-63" style="edgeStyle=entityRelationEdgeStyle;rounded=0;orthogonalLoop=1;jettySize=auto;html=1;entryX=0;entryY=0.5;entryDx=0;entryDy=0;" parent="1" source="-GaUezcAxachU_HAEneV-1" target="BhELLT2uhC-b19p8RruB-9" edge="1">
          <mxGeometry relative="1" as="geometry" />
        </mxCell>
        <mxCell id="fbzDRP4mG88nfxYPtq9W-74" style="edgeStyle=entityRelationEdgeStyle;rounded=0;orthogonalLoop=1;jettySize=auto;html=1;entryX=0;entryY=0.5;entryDx=0;entryDy=0;" parent="1" source="-GaUezcAxachU_HAEneV-1" target="BhELLT2uhC-b19p8RruB-15" edge="1">
          <mxGeometry relative="1" as="geometry" />
        </mxCell>
        <mxCell id="fbzDRP4mG88nfxYPtq9W-97" style="edgeStyle=entityRelationEdgeStyle;rounded=0;orthogonalLoop=1;jettySize=auto;html=1;entryX=0;entryY=0.5;entryDx=0;entryDy=0;" parent="1" source="-GaUezcAxachU_HAEneV-1" target="BhELLT2uhC-b19p8RruB-17" edge="1">
          <mxGeometry relative="1" as="geometry" />
        </mxCell>
        <mxCell id="-GaUezcAxachU_HAEneV-1" value="Владение Python" style="text;strokeColor=none;fillColor=none;align=center;verticalAlign=middle;whiteSpace=wrap;rounded=0;labelBorderColor=default;" parent="1" vertex="1">
          <mxGeometry x="-322.5" y="470" width="60" height="30" as="geometry" />
        </mxCell>
        <mxCell id="BhELLT2uhC-b19p8RruB-88" style="edgeStyle=entityRelationEdgeStyle;rounded=0;orthogonalLoop=1;jettySize=auto;html=1;entryX=0;entryY=0.5;entryDx=0;entryDy=0;labelBorderColor=default;fontColor=#000000;" parent="1" source="-GaUezcAxachU_HAEneV-2" target="BhELLT2uhC-b19p8RruB-1" edge="1">
          <mxGeometry relative="1" as="geometry" />
        </mxCell>
        <mxCell id="fbzDRP4mG88nfxYPtq9W-22" style="edgeStyle=entityRelationEdgeStyle;rounded=0;orthogonalLoop=1;jettySize=auto;html=1;entryX=0;entryY=0.5;entryDx=0;entryDy=0;" parent="1" source="-GaUezcAxachU_HAEneV-2" target="BhELLT2uhC-b19p8RruB-7" edge="1">
          <mxGeometry relative="1" as="geometry">
            <mxPoint x="205" y="110" as="targetPoint" />
          </mxGeometry>
        </mxCell>
        <mxCell id="fbzDRP4mG88nfxYPtq9W-35" style="edgeStyle=entityRelationEdgeStyle;rounded=0;orthogonalLoop=1;jettySize=auto;html=1;entryX=0;entryY=0.5;entryDx=0;entryDy=0;" parent="1" source="-GaUezcAxachU_HAEneV-2" target="BhELLT2uhC-b19p8RruB-3" edge="1">
          <mxGeometry relative="1" as="geometry" />
        </mxCell>
        <mxCell id="fbzDRP4mG88nfxYPtq9W-75" style="edgeStyle=entityRelationEdgeStyle;rounded=0;orthogonalLoop=1;jettySize=auto;html=1;entryX=0;entryY=0.5;entryDx=0;entryDy=0;" parent="1" source="-GaUezcAxachU_HAEneV-2" target="BhELLT2uhC-b19p8RruB-15" edge="1">
          <mxGeometry relative="1" as="geometry">
            <mxPoint x="215" y="490" as="targetPoint" />
          </mxGeometry>
        </mxCell>
        <mxCell id="-GaUezcAxachU_HAEneV-2" value="DL Framefork" style="text;strokeColor=none;fillColor=none;align=center;verticalAlign=middle;whiteSpace=wrap;rounded=0;labelBorderColor=default;" parent="1" vertex="1">
          <mxGeometry x="-329.5" y="260" width="60" height="30" as="geometry" />
        </mxCell>
        <mxCell id="BhELLT2uhC-b19p8RruB-97" style="edgeStyle=entityRelationEdgeStyle;rounded=0;orthogonalLoop=1;jettySize=auto;html=1;entryX=0;entryY=0.5;entryDx=0;entryDy=0;labelBorderColor=default;fontColor=#000000;" parent="1" source="-GaUezcAxachU_HAEneV-3" target="BhELLT2uhC-b19p8RruB-1" edge="1">
          <mxGeometry relative="1" as="geometry" />
        </mxCell>
        <mxCell id="fbzDRP4mG88nfxYPtq9W-10" style="edgeStyle=entityRelationEdgeStyle;rounded=0;orthogonalLoop=1;jettySize=auto;html=1;entryX=0;entryY=0.5;entryDx=0;entryDy=0;" parent="1" source="-GaUezcAxachU_HAEneV-3" target="BhELLT2uhC-b19p8RruB-6" edge="1">
          <mxGeometry relative="1" as="geometry" />
        </mxCell>
        <mxCell id="fbzDRP4mG88nfxYPtq9W-26" style="edgeStyle=entityRelationEdgeStyle;rounded=0;orthogonalLoop=1;jettySize=auto;html=1;entryX=0;entryY=0.5;entryDx=0;entryDy=0;" parent="1" source="-GaUezcAxachU_HAEneV-3" target="BhELLT2uhC-b19p8RruB-7" edge="1">
          <mxGeometry relative="1" as="geometry" />
        </mxCell>
        <mxCell id="fbzDRP4mG88nfxYPtq9W-54" style="edgeStyle=entityRelationEdgeStyle;rounded=0;orthogonalLoop=1;jettySize=auto;html=1;entryX=0;entryY=0.5;entryDx=0;entryDy=0;" parent="1" source="-GaUezcAxachU_HAEneV-3" target="BhELLT2uhC-b19p8RruB-8" edge="1">
          <mxGeometry relative="1" as="geometry" />
        </mxCell>
        <mxCell id="fbzDRP4mG88nfxYPtq9W-73" style="edgeStyle=entityRelationEdgeStyle;rounded=0;orthogonalLoop=1;jettySize=auto;html=1;entryX=0;entryY=0.5;entryDx=0;entryDy=0;" parent="1" source="-GaUezcAxachU_HAEneV-3" target="BhELLT2uhC-b19p8RruB-15" edge="1">
          <mxGeometry relative="1" as="geometry" />
        </mxCell>
        <mxCell id="fbzDRP4mG88nfxYPtq9W-82" style="edgeStyle=entityRelationEdgeStyle;rounded=0;orthogonalLoop=1;jettySize=auto;html=1;entryX=0;entryY=0.5;entryDx=0;entryDy=0;" parent="1" source="-GaUezcAxachU_HAEneV-3" target="BhELLT2uhC-b19p8RruB-14" edge="1">
          <mxGeometry relative="1" as="geometry" />
        </mxCell>
        <mxCell id="fbzDRP4mG88nfxYPtq9W-95" style="edgeStyle=entityRelationEdgeStyle;rounded=0;orthogonalLoop=1;jettySize=auto;html=1;entryX=0;entryY=0.5;entryDx=0;entryDy=0;" parent="1" source="-GaUezcAxachU_HAEneV-3" target="BhELLT2uhC-b19p8RruB-17" edge="1">
          <mxGeometry relative="1" as="geometry" />
        </mxCell>
        <mxCell id="-GaUezcAxachU_HAEneV-3" value="Владение навыками разработки ПО и интегарции компонентов" style="text;strokeColor=none;fillColor=none;align=center;verticalAlign=middle;whiteSpace=wrap;rounded=0;labelBorderColor=default;" parent="1" vertex="1">
          <mxGeometry x="-387.5" y="820" width="130" height="30" as="geometry" />
        </mxCell>
        <mxCell id="BhELLT2uhC-b19p8RruB-42" style="edgeStyle=entityRelationEdgeStyle;rounded=0;orthogonalLoop=1;jettySize=auto;html=1;entryX=0;entryY=0.5;entryDx=0;entryDy=0;labelBorderColor=default;fontColor=#000000;" parent="1" source="-GaUezcAxachU_HAEneV-4" target="BhELLT2uhC-b19p8RruB-5" edge="1">
          <mxGeometry relative="1" as="geometry" />
        </mxCell>
        <mxCell id="BhELLT2uhC-b19p8RruB-59" style="edgeStyle=entityRelationEdgeStyle;rounded=0;orthogonalLoop=1;jettySize=auto;html=1;entryX=0;entryY=0.5;entryDx=0;entryDy=0;labelBorderColor=default;fontColor=#000000;" parent="1" source="-GaUezcAxachU_HAEneV-4" target="BhELLT2uhC-b19p8RruB-19" edge="1">
          <mxGeometry relative="1" as="geometry" />
        </mxCell>
        <mxCell id="BhELLT2uhC-b19p8RruB-92" style="edgeStyle=entityRelationEdgeStyle;rounded=0;orthogonalLoop=1;jettySize=auto;html=1;entryX=0;entryY=0.5;entryDx=0;entryDy=0;labelBorderColor=default;fontColor=#000000;" parent="1" source="-GaUezcAxachU_HAEneV-4" target="BhELLT2uhC-b19p8RruB-1" edge="1">
          <mxGeometry relative="1" as="geometry" />
        </mxCell>
        <mxCell id="fbzDRP4mG88nfxYPtq9W-24" style="edgeStyle=entityRelationEdgeStyle;rounded=0;orthogonalLoop=1;jettySize=auto;html=1;entryX=0;entryY=0.5;entryDx=0;entryDy=0;" parent="1" source="-GaUezcAxachU_HAEneV-4" target="BhELLT2uhC-b19p8RruB-7" edge="1">
          <mxGeometry relative="1" as="geometry" />
        </mxCell>
        <mxCell id="fbzDRP4mG88nfxYPtq9W-38" style="edgeStyle=entityRelationEdgeStyle;rounded=0;orthogonalLoop=1;jettySize=auto;html=1;entryX=0;entryY=0.5;entryDx=0;entryDy=0;" parent="1" source="-GaUezcAxachU_HAEneV-4" target="BhELLT2uhC-b19p8RruB-3" edge="1">
          <mxGeometry relative="1" as="geometry" />
        </mxCell>
        <mxCell id="fbzDRP4mG88nfxYPtq9W-53" style="edgeStyle=entityRelationEdgeStyle;rounded=0;orthogonalLoop=1;jettySize=auto;html=1;entryX=0;entryY=0.5;entryDx=0;entryDy=0;" parent="1" source="-GaUezcAxachU_HAEneV-4" target="BhELLT2uhC-b19p8RruB-8" edge="1">
          <mxGeometry relative="1" as="geometry" />
        </mxCell>
        <mxCell id="fbzDRP4mG88nfxYPtq9W-62" style="edgeStyle=entityRelationEdgeStyle;rounded=0;orthogonalLoop=1;jettySize=auto;html=1;entryX=0;entryY=0.5;entryDx=0;entryDy=0;" parent="1" source="-GaUezcAxachU_HAEneV-4" target="BhELLT2uhC-b19p8RruB-9" edge="1">
          <mxGeometry relative="1" as="geometry" />
        </mxCell>
        <mxCell id="fbzDRP4mG88nfxYPtq9W-83" style="edgeStyle=entityRelationEdgeStyle;rounded=0;orthogonalLoop=1;jettySize=auto;html=1;entryX=0;entryY=0.5;entryDx=0;entryDy=0;" parent="1" source="-GaUezcAxachU_HAEneV-4" target="BhELLT2uhC-b19p8RruB-14" edge="1">
          <mxGeometry relative="1" as="geometry" />
        </mxCell>
        <mxCell id="fbzDRP4mG88nfxYPtq9W-92" style="edgeStyle=entityRelationEdgeStyle;rounded=0;orthogonalLoop=1;jettySize=auto;html=1;entryX=0;entryY=0.5;entryDx=0;entryDy=0;" parent="1" source="-GaUezcAxachU_HAEneV-4" target="BhELLT2uhC-b19p8RruB-16" edge="1">
          <mxGeometry relative="1" as="geometry" />
        </mxCell>
        <mxCell id="-GaUezcAxachU_HAEneV-4" value="Хорошие знания машинного обучения, глубокого обучения и NLP" style="text;strokeColor=none;fillColor=none;align=center;verticalAlign=middle;whiteSpace=wrap;rounded=0;labelBorderColor=default;" parent="1" vertex="1">
          <mxGeometry x="-442.5" y="600" width="180" height="30" as="geometry" />
        </mxCell>
        <mxCell id="BhELLT2uhC-b19p8RruB-25" style="edgeStyle=entityRelationEdgeStyle;rounded=0;orthogonalLoop=1;jettySize=auto;html=1;entryX=0;entryY=0.5;entryDx=0;entryDy=0;labelBorderColor=default;fontColor=#000000;" parent="1" source="-GaUezcAxachU_HAEneV-5" target="BhELLT2uhC-b19p8RruB-2" edge="1">
          <mxGeometry relative="1" as="geometry" />
        </mxCell>
        <mxCell id="BhELLT2uhC-b19p8RruB-84" style="edgeStyle=entityRelationEdgeStyle;rounded=0;orthogonalLoop=1;jettySize=auto;html=1;entryX=0;entryY=0.5;entryDx=0;entryDy=0;labelBorderColor=default;fontColor=#000000;" parent="1" source="-GaUezcAxachU_HAEneV-5" target="BhELLT2uhC-b19p8RruB-1" edge="1">
          <mxGeometry relative="1" as="geometry" />
        </mxCell>
        <mxCell id="fbzDRP4mG88nfxYPtq9W-19" style="edgeStyle=entityRelationEdgeStyle;rounded=0;orthogonalLoop=1;jettySize=auto;html=1;entryX=0;entryY=0.5;entryDx=0;entryDy=0;" parent="1" source="-GaUezcAxachU_HAEneV-5" target="BhELLT2uhC-b19p8RruB-7" edge="1">
          <mxGeometry relative="1" as="geometry" />
        </mxCell>
        <mxCell id="-GaUezcAxachU_HAEneV-5" value="Умение работать с Git" style="text;strokeColor=none;fillColor=none;align=center;verticalAlign=middle;whiteSpace=wrap;rounded=0;labelBackgroundColor=none;fontColor=#000000;labelBorderColor=default;" parent="1" vertex="1">
          <mxGeometry x="-377.5" y="-50" width="110" height="30" as="geometry" />
        </mxCell>
        <mxCell id="BhELLT2uhC-b19p8RruB-31" style="edgeStyle=entityRelationEdgeStyle;rounded=0;orthogonalLoop=1;jettySize=auto;html=1;entryX=0;entryY=0.5;entryDx=0;entryDy=0;labelBorderColor=default;fontColor=#000000;" parent="1" source="-GaUezcAxachU_HAEneV-6" target="BhELLT2uhC-b19p8RruB-2" edge="1">
          <mxGeometry relative="1" as="geometry" />
        </mxCell>
        <mxCell id="BhELLT2uhC-b19p8RruB-39" style="edgeStyle=entityRelationEdgeStyle;rounded=0;orthogonalLoop=1;jettySize=auto;html=1;entryX=0;entryY=0.5;entryDx=0;entryDy=0;labelBorderColor=default;fontColor=#000000;" parent="1" source="-GaUezcAxachU_HAEneV-6" target="BhELLT2uhC-b19p8RruB-5" edge="1">
          <mxGeometry relative="1" as="geometry" />
        </mxCell>
        <mxCell id="BhELLT2uhC-b19p8RruB-61" style="edgeStyle=entityRelationEdgeStyle;rounded=0;orthogonalLoop=1;jettySize=auto;html=1;entryX=0;entryY=0.5;entryDx=0;entryDy=0;labelBorderColor=default;fontColor=#000000;" parent="1" source="-GaUezcAxachU_HAEneV-6" target="BhELLT2uhC-b19p8RruB-19" edge="1">
          <mxGeometry relative="1" as="geometry" />
        </mxCell>
        <mxCell id="BhELLT2uhC-b19p8RruB-98" style="edgeStyle=entityRelationEdgeStyle;rounded=0;orthogonalLoop=1;jettySize=auto;html=1;entryX=0;entryY=0.5;entryDx=0;entryDy=0;labelBorderColor=default;fontColor=#000000;" parent="1" source="-GaUezcAxachU_HAEneV-6" target="BhELLT2uhC-b19p8RruB-1" edge="1">
          <mxGeometry relative="1" as="geometry" />
        </mxCell>
        <mxCell id="fbzDRP4mG88nfxYPtq9W-27" style="edgeStyle=entityRelationEdgeStyle;rounded=0;orthogonalLoop=1;jettySize=auto;html=1;entryX=0;entryY=0.5;entryDx=0;entryDy=0;" parent="1" source="-GaUezcAxachU_HAEneV-6" target="BhELLT2uhC-b19p8RruB-7" edge="1">
          <mxGeometry relative="1" as="geometry" />
        </mxCell>
        <mxCell id="fbzDRP4mG88nfxYPtq9W-39" style="edgeStyle=entityRelationEdgeStyle;rounded=0;orthogonalLoop=1;jettySize=auto;html=1;entryX=0;entryY=0.5;entryDx=0;entryDy=0;" parent="1" source="-GaUezcAxachU_HAEneV-6" target="BhELLT2uhC-b19p8RruB-3" edge="1">
          <mxGeometry relative="1" as="geometry" />
        </mxCell>
        <mxCell id="fbzDRP4mG88nfxYPtq9W-50" style="edgeStyle=entityRelationEdgeStyle;rounded=0;orthogonalLoop=1;jettySize=auto;html=1;entryX=0;entryY=0.5;entryDx=0;entryDy=0;" parent="1" source="-GaUezcAxachU_HAEneV-6" target="BhELLT2uhC-b19p8RruB-11" edge="1">
          <mxGeometry relative="1" as="geometry" />
        </mxCell>
        <mxCell id="fbzDRP4mG88nfxYPtq9W-57" style="edgeStyle=entityRelationEdgeStyle;rounded=0;orthogonalLoop=1;jettySize=auto;html=1;entryX=0;entryY=0.5;entryDx=0;entryDy=0;" parent="1" source="-GaUezcAxachU_HAEneV-6" target="BhELLT2uhC-b19p8RruB-4" edge="1">
          <mxGeometry relative="1" as="geometry" />
        </mxCell>
        <mxCell id="fbzDRP4mG88nfxYPtq9W-72" style="edgeStyle=entityRelationEdgeStyle;rounded=0;orthogonalLoop=1;jettySize=auto;html=1;entryX=0;entryY=0.5;entryDx=0;entryDy=0;" parent="1" source="-GaUezcAxachU_HAEneV-6" target="BhELLT2uhC-b19p8RruB-13" edge="1">
          <mxGeometry relative="1" as="geometry" />
        </mxCell>
        <mxCell id="fbzDRP4mG88nfxYPtq9W-91" style="edgeStyle=entityRelationEdgeStyle;rounded=0;orthogonalLoop=1;jettySize=auto;html=1;entryX=0;entryY=0.5;entryDx=0;entryDy=0;" parent="1" source="-GaUezcAxachU_HAEneV-6" target="BhELLT2uhC-b19p8RruB-16" edge="1">
          <mxGeometry relative="1" as="geometry" />
        </mxCell>
        <mxCell id="fbzDRP4mG88nfxYPtq9W-94" style="edgeStyle=entityRelationEdgeStyle;rounded=0;orthogonalLoop=1;jettySize=auto;html=1;entryX=0;entryY=0.5;entryDx=0;entryDy=0;" parent="1" source="-GaUezcAxachU_HAEneV-6" target="BhELLT2uhC-b19p8RruB-17" edge="1">
          <mxGeometry relative="1" as="geometry" />
        </mxCell>
        <mxCell id="-GaUezcAxachU_HAEneV-6" value="Способность работы в команде" style="text;strokeColor=none;fillColor=none;align=center;verticalAlign=middle;whiteSpace=wrap;rounded=0;labelBackgroundColor=none;fontColor=#000000;labelBorderColor=default;" parent="1" vertex="1">
          <mxGeometry x="-337.5" y="900" width="60" height="20" as="geometry" />
        </mxCell>
        <mxCell id="BhELLT2uhC-b19p8RruB-48" style="edgeStyle=entityRelationEdgeStyle;rounded=0;orthogonalLoop=1;jettySize=auto;html=1;entryX=0;entryY=0.5;entryDx=0;entryDy=0;labelBorderColor=default;fontColor=#000000;" parent="1" source="-GaUezcAxachU_HAEneV-7" target="BhELLT2uhC-b19p8RruB-5" edge="1">
          <mxGeometry relative="1" as="geometry" />
        </mxCell>
        <mxCell id="BhELLT2uhC-b19p8RruB-52" style="edgeStyle=entityRelationEdgeStyle;rounded=0;orthogonalLoop=1;jettySize=auto;html=1;entryX=0;entryY=0.5;entryDx=0;entryDy=0;labelBorderColor=default;fontColor=#000000;" parent="1" source="-GaUezcAxachU_HAEneV-7" target="BhELLT2uhC-b19p8RruB-19" edge="1">
          <mxGeometry relative="1" as="geometry" />
        </mxCell>
        <mxCell id="BhELLT2uhC-b19p8RruB-77" style="edgeStyle=entityRelationEdgeStyle;rounded=0;orthogonalLoop=1;jettySize=auto;html=1;entryX=0;entryY=0.5;entryDx=0;entryDy=0;labelBorderColor=default;fontColor=#000000;" parent="1" source="-GaUezcAxachU_HAEneV-7" target="BhELLT2uhC-b19p8RruB-1" edge="1">
          <mxGeometry relative="1" as="geometry" />
        </mxCell>
        <mxCell id="fbzDRP4mG88nfxYPtq9W-12" style="edgeStyle=entityRelationEdgeStyle;rounded=0;orthogonalLoop=1;jettySize=auto;html=1;entryX=0;entryY=0.5;entryDx=0;entryDy=0;" parent="1" source="-GaUezcAxachU_HAEneV-7" target="BhELLT2uhC-b19p8RruB-7" edge="1">
          <mxGeometry relative="1" as="geometry" />
        </mxCell>
        <mxCell id="fbzDRP4mG88nfxYPtq9W-30" style="edgeStyle=entityRelationEdgeStyle;rounded=0;orthogonalLoop=1;jettySize=auto;html=1;entryX=0;entryY=0.5;entryDx=0;entryDy=0;" parent="1" source="-GaUezcAxachU_HAEneV-7" target="BhELLT2uhC-b19p8RruB-3" edge="1">
          <mxGeometry relative="1" as="geometry" />
        </mxCell>
        <mxCell id="fbzDRP4mG88nfxYPtq9W-52" style="edgeStyle=entityRelationEdgeStyle;rounded=0;orthogonalLoop=1;jettySize=auto;html=1;entryX=0;entryY=0.5;entryDx=0;entryDy=0;" parent="1" source="-GaUezcAxachU_HAEneV-7" target="BhELLT2uhC-b19p8RruB-8" edge="1">
          <mxGeometry relative="1" as="geometry" />
        </mxCell>
        <mxCell id="fbzDRP4mG88nfxYPtq9W-68" style="edgeStyle=entityRelationEdgeStyle;rounded=0;orthogonalLoop=1;jettySize=auto;html=1;entryX=0;entryY=0.5;entryDx=0;entryDy=0;" parent="1" source="-GaUezcAxachU_HAEneV-7" target="BhELLT2uhC-b19p8RruB-9" edge="1">
          <mxGeometry relative="1" as="geometry" />
        </mxCell>
        <mxCell id="fbzDRP4mG88nfxYPtq9W-87" style="edgeStyle=entityRelationEdgeStyle;rounded=0;orthogonalLoop=1;jettySize=auto;html=1;entryX=0;entryY=0.5;entryDx=0;entryDy=0;" parent="1" source="-GaUezcAxachU_HAEneV-7" target="BhELLT2uhC-b19p8RruB-14" edge="1">
          <mxGeometry relative="1" as="geometry" />
        </mxCell>
        <mxCell id="fbzDRP4mG88nfxYPtq9W-93" style="edgeStyle=entityRelationEdgeStyle;rounded=0;orthogonalLoop=1;jettySize=auto;html=1;entryX=0;entryY=0.5;entryDx=0;entryDy=0;" parent="1" source="-GaUezcAxachU_HAEneV-7" target="BhELLT2uhC-b19p8RruB-16" edge="1">
          <mxGeometry relative="1" as="geometry" />
        </mxCell>
        <mxCell id="-GaUezcAxachU_HAEneV-7" value="Опыт рахработки в одной или нескольких задачах" style="text;strokeColor=none;fillColor=none;align=center;verticalAlign=middle;whiteSpace=wrap;rounded=0;labelBorderColor=default;" parent="1" vertex="1">
          <mxGeometry x="-440" y="-730" width="170" height="30" as="geometry" />
        </mxCell>
        <mxCell id="BhELLT2uhC-b19p8RruB-46" style="edgeStyle=entityRelationEdgeStyle;rounded=0;orthogonalLoop=1;jettySize=auto;html=1;entryX=0;entryY=0.5;entryDx=0;entryDy=0;labelBorderColor=default;fontColor=#000000;" parent="1" source="-GaUezcAxachU_HAEneV-8" target="BhELLT2uhC-b19p8RruB-5" edge="1">
          <mxGeometry relative="1" as="geometry" />
        </mxCell>
        <mxCell id="BhELLT2uhC-b19p8RruB-55" style="edgeStyle=entityRelationEdgeStyle;rounded=0;orthogonalLoop=1;jettySize=auto;html=1;entryX=0;entryY=0.5;entryDx=0;entryDy=0;labelBorderColor=default;fontColor=#000000;" parent="1" source="-GaUezcAxachU_HAEneV-8" target="BhELLT2uhC-b19p8RruB-19" edge="1">
          <mxGeometry relative="1" as="geometry" />
        </mxCell>
        <mxCell id="fbzDRP4mG88nfxYPtq9W-17" style="edgeStyle=entityRelationEdgeStyle;rounded=0;orthogonalLoop=1;jettySize=auto;html=1;entryX=0;entryY=0.5;entryDx=0;entryDy=0;" parent="1" source="-GaUezcAxachU_HAEneV-8" target="BhELLT2uhC-b19p8RruB-7" edge="1">
          <mxGeometry relative="1" as="geometry" />
        </mxCell>
        <mxCell id="fbzDRP4mG88nfxYPtq9W-33" style="edgeStyle=entityRelationEdgeStyle;rounded=0;orthogonalLoop=1;jettySize=auto;html=1;entryX=0;entryY=0.5;entryDx=0;entryDy=0;" parent="1" source="-GaUezcAxachU_HAEneV-8" target="BhELLT2uhC-b19p8RruB-3" edge="1">
          <mxGeometry relative="1" as="geometry" />
        </mxCell>
        <mxCell id="-GaUezcAxachU_HAEneV-8" value="Понимание и способность реализации разных моделей" style="text;strokeColor=none;fillColor=none;align=center;verticalAlign=middle;whiteSpace=wrap;rounded=0;labelBorderColor=default;" parent="1" vertex="1">
          <mxGeometry x="-447.5" y="-300" width="180" height="30" as="geometry" />
        </mxCell>
        <mxCell id="BhELLT2uhC-b19p8RruB-24" style="edgeStyle=entityRelationEdgeStyle;rounded=0;orthogonalLoop=1;jettySize=auto;html=1;entryX=0;entryY=0.5;entryDx=0;entryDy=0;labelBorderColor=default;fontColor=#000000;" parent="1" source="-GaUezcAxachU_HAEneV-9" target="BhELLT2uhC-b19p8RruB-2" edge="1">
          <mxGeometry relative="1" as="geometry" />
        </mxCell>
        <mxCell id="BhELLT2uhC-b19p8RruB-66" style="edgeStyle=entityRelationEdgeStyle;rounded=0;orthogonalLoop=1;jettySize=auto;html=1;entryX=0;entryY=0.5;entryDx=0;entryDy=0;labelBorderColor=default;fontColor=#000000;" parent="1" source="-GaUezcAxachU_HAEneV-9" target="BhELLT2uhC-b19p8RruB-10" edge="1">
          <mxGeometry relative="1" as="geometry" />
        </mxCell>
        <mxCell id="BhELLT2uhC-b19p8RruB-83" style="edgeStyle=entityRelationEdgeStyle;rounded=0;orthogonalLoop=1;jettySize=auto;html=1;entryX=0;entryY=0.5;entryDx=0;entryDy=0;labelBorderColor=default;fontColor=#000000;" parent="1" source="-GaUezcAxachU_HAEneV-9" target="BhELLT2uhC-b19p8RruB-1" edge="1">
          <mxGeometry relative="1" as="geometry" />
        </mxCell>
        <mxCell id="fbzDRP4mG88nfxYPtq9W-3" style="edgeStyle=entityRelationEdgeStyle;rounded=0;orthogonalLoop=1;jettySize=auto;html=1;entryX=0;entryY=0.5;entryDx=0;entryDy=0;" parent="1" source="-GaUezcAxachU_HAEneV-9" target="BhELLT2uhC-b19p8RruB-6" edge="1">
          <mxGeometry relative="1" as="geometry" />
        </mxCell>
        <mxCell id="fbzDRP4mG88nfxYPtq9W-18" style="edgeStyle=entityRelationEdgeStyle;rounded=0;orthogonalLoop=1;jettySize=auto;html=1;entryX=0;entryY=0.5;entryDx=0;entryDy=0;" parent="1" source="-GaUezcAxachU_HAEneV-9" target="BhELLT2uhC-b19p8RruB-7" edge="1">
          <mxGeometry relative="1" as="geometry" />
        </mxCell>
        <mxCell id="fbzDRP4mG88nfxYPtq9W-47" style="edgeStyle=entityRelationEdgeStyle;rounded=0;orthogonalLoop=1;jettySize=auto;html=1;entryX=0;entryY=0.5;entryDx=0;entryDy=0;" parent="1" source="-GaUezcAxachU_HAEneV-9" target="BhELLT2uhC-b19p8RruB-11" edge="1">
          <mxGeometry relative="1" as="geometry" />
        </mxCell>
        <mxCell id="fbzDRP4mG88nfxYPtq9W-67" style="edgeStyle=entityRelationEdgeStyle;rounded=0;orthogonalLoop=1;jettySize=auto;html=1;entryX=0;entryY=0.5;entryDx=0;entryDy=0;" parent="1" source="-GaUezcAxachU_HAEneV-9" target="BhELLT2uhC-b19p8RruB-9" edge="1">
          <mxGeometry relative="1" as="geometry" />
        </mxCell>
        <mxCell id="-GaUezcAxachU_HAEneV-9" value="Опыт работы в Linux" style="text;strokeColor=none;fillColor=none;align=center;verticalAlign=middle;whiteSpace=wrap;rounded=0;labelBorderColor=default;" parent="1" vertex="1">
          <mxGeometry x="-395" y="-180" width="130" height="30" as="geometry" />
        </mxCell>
        <mxCell id="BhELLT2uhC-b19p8RruB-37" style="edgeStyle=entityRelationEdgeStyle;rounded=0;orthogonalLoop=1;jettySize=auto;html=1;entryX=0;entryY=0.5;entryDx=0;entryDy=0;labelBorderColor=default;fontColor=#000000;" parent="1" source="-GaUezcAxachU_HAEneV-10" target="BhELLT2uhC-b19p8RruB-18" edge="1">
          <mxGeometry relative="1" as="geometry" />
        </mxCell>
        <mxCell id="BhELLT2uhC-b19p8RruB-43" style="edgeStyle=entityRelationEdgeStyle;rounded=0;orthogonalLoop=1;jettySize=auto;html=1;entryX=0;entryY=0.5;entryDx=0;entryDy=0;labelBorderColor=default;fontColor=#000000;" parent="1" source="-GaUezcAxachU_HAEneV-10" target="BhELLT2uhC-b19p8RruB-5" edge="1">
          <mxGeometry relative="1" as="geometry" />
        </mxCell>
        <mxCell id="BhELLT2uhC-b19p8RruB-89" style="edgeStyle=entityRelationEdgeStyle;rounded=0;orthogonalLoop=1;jettySize=auto;html=1;entryX=0;entryY=0.5;entryDx=0;entryDy=0;labelBorderColor=default;fontColor=#000000;" parent="1" source="-GaUezcAxachU_HAEneV-10" target="BhELLT2uhC-b19p8RruB-1" edge="1">
          <mxGeometry relative="1" as="geometry" />
        </mxCell>
        <mxCell id="fbzDRP4mG88nfxYPtq9W-36" style="edgeStyle=entityRelationEdgeStyle;rounded=0;orthogonalLoop=1;jettySize=auto;html=1;entryX=0;entryY=0.5;entryDx=0;entryDy=0;" parent="1" source="-GaUezcAxachU_HAEneV-10" target="BhELLT2uhC-b19p8RruB-3" edge="1">
          <mxGeometry relative="1" as="geometry" />
        </mxCell>
        <mxCell id="fbzDRP4mG88nfxYPtq9W-76" style="edgeStyle=entityRelationEdgeStyle;rounded=0;orthogonalLoop=1;jettySize=auto;html=1;entryX=0;entryY=0.5;entryDx=0;entryDy=0;" parent="1" source="-GaUezcAxachU_HAEneV-10" target="BhELLT2uhC-b19p8RruB-15" edge="1">
          <mxGeometry relative="1" as="geometry" />
        </mxCell>
        <mxCell id="-GaUezcAxachU_HAEneV-10" value="Умение читать научные статьи и воспроизводить результаты по ним" style="text;strokeColor=none;fillColor=none;align=center;verticalAlign=middle;whiteSpace=wrap;rounded=0;labelBorderColor=default;" parent="1" vertex="1">
          <mxGeometry x="-427.5" y="330" width="160" height="30" as="geometry" />
        </mxCell>
        <mxCell id="BhELLT2uhC-b19p8RruB-58" style="edgeStyle=entityRelationEdgeStyle;rounded=0;orthogonalLoop=1;jettySize=auto;html=1;entryX=0;entryY=0.5;entryDx=0;entryDy=0;labelBorderColor=default;fontColor=#000000;" parent="1" source="-GaUezcAxachU_HAEneV-11" target="BhELLT2uhC-b19p8RruB-19" edge="1">
          <mxGeometry relative="1" as="geometry" />
        </mxCell>
        <mxCell id="BhELLT2uhC-b19p8RruB-90" style="edgeStyle=entityRelationEdgeStyle;rounded=0;orthogonalLoop=1;jettySize=auto;html=1;entryX=0;entryY=0.5;entryDx=0;entryDy=0;labelBorderColor=default;fontColor=#000000;" parent="1" source="-GaUezcAxachU_HAEneV-11" target="BhELLT2uhC-b19p8RruB-1" edge="1">
          <mxGeometry relative="1" as="geometry" />
        </mxCell>
        <mxCell id="fbzDRP4mG88nfxYPtq9W-6" style="edgeStyle=entityRelationEdgeStyle;rounded=0;orthogonalLoop=1;jettySize=auto;html=1;entryX=0;entryY=0.5;entryDx=0;entryDy=0;" parent="1" source="-GaUezcAxachU_HAEneV-11" target="BhELLT2uhC-b19p8RruB-6" edge="1">
          <mxGeometry relative="1" as="geometry" />
        </mxCell>
        <mxCell id="fbzDRP4mG88nfxYPtq9W-64" style="edgeStyle=entityRelationEdgeStyle;rounded=0;orthogonalLoop=1;jettySize=auto;html=1;entryX=0;entryY=0.5;entryDx=0;entryDy=0;" parent="1" source="-GaUezcAxachU_HAEneV-11" target="BhELLT2uhC-b19p8RruB-9" edge="1">
          <mxGeometry relative="1" as="geometry" />
        </mxCell>
        <mxCell id="-GaUezcAxachU_HAEneV-11" value="Сбор данных и их анализ" style="text;strokeColor=none;fillColor=none;align=center;verticalAlign=middle;whiteSpace=wrap;rounded=0;labelBorderColor=default;" parent="1" vertex="1">
          <mxGeometry x="-374.5" y="410" width="110" height="30" as="geometry" />
        </mxCell>
        <mxCell id="BhELLT2uhC-b19p8RruB-36" style="edgeStyle=entityRelationEdgeStyle;rounded=0;orthogonalLoop=1;jettySize=auto;html=1;entryX=0;entryY=0.5;entryDx=0;entryDy=0;labelBorderColor=default;fontColor=#000000;" parent="1" source="-GaUezcAxachU_HAEneV-12" target="BhELLT2uhC-b19p8RruB-18" edge="1">
          <mxGeometry relative="1" as="geometry" />
        </mxCell>
        <mxCell id="BhELLT2uhC-b19p8RruB-45" style="edgeStyle=entityRelationEdgeStyle;rounded=0;orthogonalLoop=1;jettySize=auto;html=1;entryX=0;entryY=0.5;entryDx=0;entryDy=0;labelBorderColor=default;fontColor=#000000;" parent="1" source="-GaUezcAxachU_HAEneV-12" target="BhELLT2uhC-b19p8RruB-5" edge="1">
          <mxGeometry relative="1" as="geometry" />
        </mxCell>
        <mxCell id="BhELLT2uhC-b19p8RruB-57" style="edgeStyle=entityRelationEdgeStyle;rounded=0;orthogonalLoop=1;jettySize=auto;html=1;entryX=0;entryY=0.5;entryDx=0;entryDy=0;labelBorderColor=default;fontColor=#000000;" parent="1" source="-GaUezcAxachU_HAEneV-12" target="BhELLT2uhC-b19p8RruB-19" edge="1">
          <mxGeometry relative="1" as="geometry" />
        </mxCell>
        <mxCell id="fbzDRP4mG88nfxYPtq9W-34" style="edgeStyle=entityRelationEdgeStyle;rounded=0;orthogonalLoop=1;jettySize=auto;html=1;entryX=0;entryY=0.5;entryDx=0;entryDy=0;" parent="1" source="-GaUezcAxachU_HAEneV-12" target="BhELLT2uhC-b19p8RruB-3" edge="1">
          <mxGeometry relative="1" as="geometry" />
        </mxCell>
        <mxCell id="fbzDRP4mG88nfxYPtq9W-77" style="edgeStyle=entityRelationEdgeStyle;rounded=0;orthogonalLoop=1;jettySize=auto;html=1;entryX=0;entryY=0.5;entryDx=0;entryDy=0;" parent="1" source="-GaUezcAxachU_HAEneV-12" target="BhELLT2uhC-b19p8RruB-15" edge="1">
          <mxGeometry relative="1" as="geometry" />
        </mxCell>
        <mxCell id="-GaUezcAxachU_HAEneV-12" value="Наличие исследовательского опыта в решении проблем NLP" style="text;strokeColor=none;fillColor=none;align=center;verticalAlign=middle;whiteSpace=wrap;rounded=0;labelBorderColor=default;" parent="1" vertex="1">
          <mxGeometry x="-462.5" y="70" width="200" height="30" as="geometry" />
        </mxCell>
        <mxCell id="BhELLT2uhC-b19p8RruB-50" style="edgeStyle=entityRelationEdgeStyle;rounded=0;orthogonalLoop=1;jettySize=auto;html=1;entryX=0;entryY=0.5;entryDx=0;entryDy=0;labelBorderColor=default;fontColor=#000000;" parent="1" source="-GaUezcAxachU_HAEneV-13" target="BhELLT2uhC-b19p8RruB-5" edge="1">
          <mxGeometry relative="1" as="geometry" />
        </mxCell>
        <mxCell id="BhELLT2uhC-b19p8RruB-75" style="edgeStyle=entityRelationEdgeStyle;rounded=0;orthogonalLoop=1;jettySize=auto;html=1;entryX=0;entryY=0.5;entryDx=0;entryDy=0;labelBorderColor=default;fontColor=#000000;" parent="1" source="-GaUezcAxachU_HAEneV-13" target="BhELLT2uhC-b19p8RruB-1" edge="1">
          <mxGeometry relative="1" as="geometry" />
        </mxCell>
        <mxCell id="fbzDRP4mG88nfxYPtq9W-28" style="edgeStyle=entityRelationEdgeStyle;rounded=0;orthogonalLoop=1;jettySize=auto;html=1;entryX=0;entryY=0.5;entryDx=0;entryDy=0;" parent="1" source="-GaUezcAxachU_HAEneV-13" target="BhELLT2uhC-b19p8RruB-3" edge="1">
          <mxGeometry relative="1" as="geometry" />
        </mxCell>
        <mxCell id="fbzDRP4mG88nfxYPtq9W-81" style="edgeStyle=entityRelationEdgeStyle;rounded=0;orthogonalLoop=1;jettySize=auto;html=1;entryX=0;entryY=0.5;entryDx=0;entryDy=0;" parent="1" source="-GaUezcAxachU_HAEneV-13" target="BhELLT2uhC-b19p8RruB-15" edge="1">
          <mxGeometry relative="1" as="geometry" />
        </mxCell>
        <mxCell id="fbzDRP4mG88nfxYPtq9W-88" style="edgeStyle=entityRelationEdgeStyle;rounded=0;orthogonalLoop=1;jettySize=auto;html=1;entryX=0;entryY=0.5;entryDx=0;entryDy=0;" parent="1" source="-GaUezcAxachU_HAEneV-13" target="BhELLT2uhC-b19p8RruB-14" edge="1">
          <mxGeometry relative="1" as="geometry" />
        </mxCell>
        <mxCell id="-GaUezcAxachU_HAEneV-13" value="Знание SOTA моделей" style="text;strokeColor=none;fillColor=none;align=center;verticalAlign=middle;whiteSpace=wrap;rounded=0;labelBorderColor=default;" parent="1" vertex="1">
          <mxGeometry x="-390" y="-1000" width="120" height="30" as="geometry" />
        </mxCell>
        <mxCell id="BhELLT2uhC-b19p8RruB-53" style="edgeStyle=entityRelationEdgeStyle;rounded=0;orthogonalLoop=1;jettySize=auto;html=1;entryX=0;entryY=0.5;entryDx=0;entryDy=0;labelBorderColor=default;fontColor=#000000;" parent="1" source="-GaUezcAxachU_HAEneV-14" target="BhELLT2uhC-b19p8RruB-19" edge="1">
          <mxGeometry relative="1" as="geometry" />
        </mxCell>
        <mxCell id="fbzDRP4mG88nfxYPtq9W-31" style="edgeStyle=entityRelationEdgeStyle;rounded=0;orthogonalLoop=1;jettySize=auto;html=1;entryX=0;entryY=0.5;entryDx=0;entryDy=0;" parent="1" source="-GaUezcAxachU_HAEneV-14" target="BhELLT2uhC-b19p8RruB-3" edge="1">
          <mxGeometry relative="1" as="geometry" />
        </mxCell>
        <mxCell id="-GaUezcAxachU_HAEneV-14" value="Способность вести исследования как самостоятельно, так и в составе команды" style="text;strokeColor=none;fillColor=none;align=center;verticalAlign=middle;whiteSpace=wrap;rounded=0;labelBorderColor=default;" parent="1" vertex="1">
          <mxGeometry x="-442.5" y="-660" width="170" height="30" as="geometry" />
        </mxCell>
        <mxCell id="BhELLT2uhC-b19p8RruB-44" style="edgeStyle=entityRelationEdgeStyle;rounded=0;orthogonalLoop=1;jettySize=auto;html=1;entryX=0;entryY=0.5;entryDx=0;entryDy=0;labelBorderColor=default;fontColor=#000000;" parent="1" source="-GaUezcAxachU_HAEneV-15" target="BhELLT2uhC-b19p8RruB-5" edge="1">
          <mxGeometry relative="1" as="geometry" />
        </mxCell>
        <mxCell id="BhELLT2uhC-b19p8RruB-86" style="edgeStyle=entityRelationEdgeStyle;rounded=0;orthogonalLoop=1;jettySize=auto;html=1;entryX=0;entryY=0.5;entryDx=0;entryDy=0;labelBorderColor=default;fontColor=#000000;" parent="1" source="-GaUezcAxachU_HAEneV-15" target="BhELLT2uhC-b19p8RruB-1" edge="1">
          <mxGeometry relative="1" as="geometry" />
        </mxCell>
        <mxCell id="fbzDRP4mG88nfxYPtq9W-20" style="edgeStyle=entityRelationEdgeStyle;rounded=0;orthogonalLoop=1;jettySize=auto;html=1;entryX=0;entryY=0.5;entryDx=0;entryDy=0;" parent="1" source="-GaUezcAxachU_HAEneV-15" target="BhELLT2uhC-b19p8RruB-7" edge="1">
          <mxGeometry relative="1" as="geometry" />
        </mxCell>
        <mxCell id="fbzDRP4mG88nfxYPtq9W-85" style="edgeStyle=entityRelationEdgeStyle;rounded=0;orthogonalLoop=1;jettySize=auto;html=1;entryX=0;entryY=0.5;entryDx=0;entryDy=0;" parent="1" source="-GaUezcAxachU_HAEneV-15" target="BhELLT2uhC-b19p8RruB-14" edge="1">
          <mxGeometry relative="1" as="geometry" />
        </mxCell>
        <mxCell id="fbzDRP4mG88nfxYPtq9W-98" style="edgeStyle=entityRelationEdgeStyle;rounded=0;orthogonalLoop=1;jettySize=auto;html=1;entryX=0;entryY=0.5;entryDx=0;entryDy=0;" parent="1" source="-GaUezcAxachU_HAEneV-15" target="BhELLT2uhC-b19p8RruB-17" edge="1">
          <mxGeometry relative="1" as="geometry" />
        </mxCell>
        <mxCell id="-GaUezcAxachU_HAEneV-15" value="Опыт построения движка или пайплайн " style="text;strokeColor=none;fillColor=none;align=center;verticalAlign=middle;whiteSpace=wrap;rounded=0;labelBorderColor=default;" parent="1" vertex="1">
          <mxGeometry x="-427.5" y="120" width="160" height="30" as="geometry" />
        </mxCell>
        <mxCell id="BhELLT2uhC-b19p8RruB-23" style="edgeStyle=entityRelationEdgeStyle;rounded=0;orthogonalLoop=1;jettySize=auto;html=1;labelBorderColor=default;fontColor=#000000;" parent="1" source="-GaUezcAxachU_HAEneV-16" target="BhELLT2uhC-b19p8RruB-2" edge="1">
          <mxGeometry relative="1" as="geometry" />
        </mxCell>
        <mxCell id="BhELLT2uhC-b19p8RruB-47" style="edgeStyle=entityRelationEdgeStyle;rounded=0;orthogonalLoop=1;jettySize=auto;html=1;entryX=0;entryY=0.5;entryDx=0;entryDy=0;labelBorderColor=default;fontColor=#000000;" parent="1" source="-GaUezcAxachU_HAEneV-16" target="BhELLT2uhC-b19p8RruB-5" edge="1">
          <mxGeometry relative="1" as="geometry" />
        </mxCell>
        <mxCell id="BhELLT2uhC-b19p8RruB-54" style="edgeStyle=entityRelationEdgeStyle;rounded=0;orthogonalLoop=1;jettySize=auto;html=1;entryX=0;entryY=0.5;entryDx=0;entryDy=0;labelBorderColor=default;fontColor=#000000;" parent="1" source="-GaUezcAxachU_HAEneV-16" target="BhELLT2uhC-b19p8RruB-19" edge="1">
          <mxGeometry relative="1" as="geometry" />
        </mxCell>
        <mxCell id="fbzDRP4mG88nfxYPtq9W-14" style="edgeStyle=entityRelationEdgeStyle;rounded=0;orthogonalLoop=1;jettySize=auto;html=1;entryX=0;entryY=0.5;entryDx=0;entryDy=0;" parent="1" source="-GaUezcAxachU_HAEneV-16" target="BhELLT2uhC-b19p8RruB-7" edge="1">
          <mxGeometry relative="1" as="geometry" />
        </mxCell>
        <mxCell id="fbzDRP4mG88nfxYPtq9W-32" style="edgeStyle=entityRelationEdgeStyle;rounded=0;orthogonalLoop=1;jettySize=auto;html=1;entryX=0;entryY=0.5;entryDx=0;entryDy=0;" parent="1" source="-GaUezcAxachU_HAEneV-16" target="BhELLT2uhC-b19p8RruB-3" edge="1">
          <mxGeometry relative="1" as="geometry" />
        </mxCell>
        <mxCell id="fbzDRP4mG88nfxYPtq9W-78" style="edgeStyle=entityRelationEdgeStyle;rounded=0;orthogonalLoop=1;jettySize=auto;html=1;entryX=0;entryY=0.5;entryDx=0;entryDy=0;" parent="1" source="-GaUezcAxachU_HAEneV-16" target="BhELLT2uhC-b19p8RruB-15" edge="1">
          <mxGeometry relative="1" as="geometry" />
        </mxCell>
        <mxCell id="fbzDRP4mG88nfxYPtq9W-86" style="edgeStyle=entityRelationEdgeStyle;rounded=0;orthogonalLoop=1;jettySize=auto;html=1;entryX=0;entryY=0.5;entryDx=0;entryDy=0;" parent="1" source="-GaUezcAxachU_HAEneV-16" target="BhELLT2uhC-b19p8RruB-14" edge="1">
          <mxGeometry relative="1" as="geometry" />
        </mxCell>
        <mxCell id="-GaUezcAxachU_HAEneV-16" value="Опыт разработки методологий тестирования разработанных решений" style="text;strokeColor=none;fillColor=none;align=center;verticalAlign=middle;whiteSpace=wrap;rounded=0;labelBorderColor=default;" parent="1" vertex="1">
          <mxGeometry x="-510" y="-400" width="240" height="30" as="geometry" />
        </mxCell>
        <mxCell id="BhELLT2uhC-b19p8RruB-79" style="edgeStyle=entityRelationEdgeStyle;rounded=0;orthogonalLoop=1;jettySize=auto;html=1;entryX=0;entryY=0.5;entryDx=0;entryDy=0;labelBorderColor=default;fontColor=#000000;" parent="1" source="-GaUezcAxachU_HAEneV-17" target="BhELLT2uhC-b19p8RruB-1" edge="1">
          <mxGeometry relative="1" as="geometry" />
        </mxCell>
        <mxCell id="-GaUezcAxachU_HAEneV-17" value="Распределенное обучения моделей" style="text;strokeColor=none;fillColor=none;align=center;verticalAlign=middle;whiteSpace=wrap;rounded=0;labelBorderColor=default;" parent="1" vertex="1">
          <mxGeometry x="-432.5" y="-450" width="160" height="30" as="geometry" />
        </mxCell>
        <mxCell id="BhELLT2uhC-b19p8RruB-85" style="edgeStyle=entityRelationEdgeStyle;rounded=0;orthogonalLoop=1;jettySize=auto;html=1;entryX=0;entryY=0.5;entryDx=0;entryDy=0;labelBorderColor=default;fontColor=#000000;" parent="1" source="-GaUezcAxachU_HAEneV-18" target="BhELLT2uhC-b19p8RruB-1" edge="1">
          <mxGeometry relative="1" as="geometry" />
        </mxCell>
        <mxCell id="fbzDRP4mG88nfxYPtq9W-4" style="edgeStyle=entityRelationEdgeStyle;rounded=0;orthogonalLoop=1;jettySize=auto;html=1;entryX=0;entryY=0.5;entryDx=0;entryDy=0;" parent="1" source="-GaUezcAxachU_HAEneV-18" target="BhELLT2uhC-b19p8RruB-6" edge="1">
          <mxGeometry relative="1" as="geometry" />
        </mxCell>
        <mxCell id="fbzDRP4mG88nfxYPtq9W-65" style="edgeStyle=entityRelationEdgeStyle;rounded=0;orthogonalLoop=1;jettySize=auto;html=1;entryX=0;entryY=0.5;entryDx=0;entryDy=0;" parent="1" source="-GaUezcAxachU_HAEneV-18" target="BhELLT2uhC-b19p8RruB-9" edge="1">
          <mxGeometry relative="1" as="geometry" />
        </mxCell>
        <mxCell id="-GaUezcAxachU_HAEneV-18" value="    Знание регулярных выражений" style="text;strokeColor=none;fillColor=none;align=center;verticalAlign=middle;whiteSpace=wrap;rounded=0;labelBorderColor=default;" parent="1" vertex="1">
          <mxGeometry x="-437.5" y="10" width="170" height="30" as="geometry" />
        </mxCell>
        <mxCell id="BhELLT2uhC-b19p8RruB-76" style="edgeStyle=entityRelationEdgeStyle;rounded=0;orthogonalLoop=1;jettySize=auto;html=1;entryX=0;entryY=0.5;entryDx=0;entryDy=0;labelBorderColor=default;fontColor=#000000;" parent="1" source="-GaUezcAxachU_HAEneV-19" target="BhELLT2uhC-b19p8RruB-1" edge="1">
          <mxGeometry relative="1" as="geometry" />
        </mxCell>
        <mxCell id="-GaUezcAxachU_HAEneV-19" value="Умение производить EDA" style="text;strokeColor=none;fillColor=none;align=center;verticalAlign=middle;whiteSpace=wrap;rounded=0;labelBorderColor=default;" parent="1" vertex="1">
          <mxGeometry x="-424.5" y="-880" width="155" height="30" as="geometry" />
        </mxCell>
        <mxCell id="BhELLT2uhC-b19p8RruB-28" style="edgeStyle=entityRelationEdgeStyle;rounded=0;orthogonalLoop=1;jettySize=auto;html=1;entryX=0;entryY=0.5;entryDx=0;entryDy=0;labelBorderColor=default;fontColor=#000000;" parent="1" source="-GaUezcAxachU_HAEneV-20" target="BhELLT2uhC-b19p8RruB-2" edge="1">
          <mxGeometry relative="1" as="geometry" />
        </mxCell>
        <mxCell id="fbzDRP4mG88nfxYPtq9W-84" style="edgeStyle=entityRelationEdgeStyle;rounded=0;orthogonalLoop=1;jettySize=auto;html=1;entryX=0;entryY=0.5;entryDx=0;entryDy=0;" parent="1" source="-GaUezcAxachU_HAEneV-20" target="BhELLT2uhC-b19p8RruB-14" edge="1">
          <mxGeometry relative="1" as="geometry" />
        </mxCell>
        <mxCell id="-GaUezcAxachU_HAEneV-20" value="Умение производить A/B тестирование" style="text;strokeColor=none;fillColor=none;align=center;verticalAlign=middle;whiteSpace=wrap;rounded=0;labelBorderColor=default;" parent="1" vertex="1">
          <mxGeometry x="-422.5" y="540" width="160" height="30" as="geometry" />
        </mxCell>
        <mxCell id="BhELLT2uhC-b19p8RruB-87" style="edgeStyle=entityRelationEdgeStyle;rounded=0;orthogonalLoop=1;jettySize=auto;html=1;entryX=0;entryY=0.5;entryDx=0;entryDy=0;labelBorderColor=default;fontColor=#000000;" parent="1" source="-GaUezcAxachU_HAEneV-21" target="BhELLT2uhC-b19p8RruB-1" edge="1">
          <mxGeometry relative="1" as="geometry" />
        </mxCell>
        <mxCell id="fbzDRP4mG88nfxYPtq9W-5" style="edgeStyle=entityRelationEdgeStyle;rounded=0;orthogonalLoop=1;jettySize=auto;html=1;entryX=0;entryY=0.5;entryDx=0;entryDy=0;" parent="1" source="-GaUezcAxachU_HAEneV-21" target="BhELLT2uhC-b19p8RruB-6" edge="1">
          <mxGeometry relative="1" as="geometry" />
        </mxCell>
        <mxCell id="fbzDRP4mG88nfxYPtq9W-21" style="edgeStyle=entityRelationEdgeStyle;rounded=0;orthogonalLoop=1;jettySize=auto;html=1;entryX=0;entryY=0.5;entryDx=0;entryDy=0;" parent="1" source="-GaUezcAxachU_HAEneV-21" target="BhELLT2uhC-b19p8RruB-7" edge="1">
          <mxGeometry relative="1" as="geometry" />
        </mxCell>
        <mxCell id="-GaUezcAxachU_HAEneV-21" value="Знание классических алгоритмов и структур данных" style="text;strokeColor=none;fillColor=none;align=center;verticalAlign=middle;whiteSpace=wrap;rounded=0;labelBorderColor=default;" parent="1" vertex="1">
          <mxGeometry x="-439.5" y="180" width="170" height="30" as="geometry" />
        </mxCell>
        <mxCell id="-GaUezcAxachU_HAEneV-22" value="Опыт работы по современным методологиям" style="text;strokeColor=none;fillColor=none;align=center;verticalAlign=middle;whiteSpace=wrap;rounded=0;labelBorderColor=default;" parent="1" vertex="1">
          <mxGeometry x="-437.5" y="-520" width="160" height="30" as="geometry" />
        </mxCell>
        <mxCell id="BhELLT2uhC-b19p8RruB-40" style="edgeStyle=entityRelationEdgeStyle;rounded=0;orthogonalLoop=1;jettySize=auto;html=1;entryX=0;entryY=0.5;entryDx=0;entryDy=0;labelBorderColor=default;fontColor=#000000;" parent="1" source="-GaUezcAxachU_HAEneV-23" target="BhELLT2uhC-b19p8RruB-5" edge="1">
          <mxGeometry relative="1" as="geometry" />
        </mxCell>
        <mxCell id="fbzDRP4mG88nfxYPtq9W-56" style="edgeStyle=entityRelationEdgeStyle;rounded=0;orthogonalLoop=1;jettySize=auto;html=1;entryX=0;entryY=0.5;entryDx=0;entryDy=0;" parent="1" source="-GaUezcAxachU_HAEneV-23" target="BhELLT2uhC-b19p8RruB-4" edge="1">
          <mxGeometry relative="1" as="geometry" />
        </mxCell>
        <mxCell id="fbzDRP4mG88nfxYPtq9W-71" style="edgeStyle=entityRelationEdgeStyle;rounded=0;orthogonalLoop=1;jettySize=auto;html=1;entryX=0;entryY=0.5;entryDx=0;entryDy=0;" parent="1" source="-GaUezcAxachU_HAEneV-23" target="BhELLT2uhC-b19p8RruB-13" edge="1">
          <mxGeometry relative="1" as="geometry" />
        </mxCell>
        <mxCell id="fbzDRP4mG88nfxYPtq9W-90" style="edgeStyle=entityRelationEdgeStyle;rounded=0;orthogonalLoop=1;jettySize=auto;html=1;entryX=0;entryY=0.5;entryDx=0;entryDy=0;" parent="1" source="-GaUezcAxachU_HAEneV-23" target="BhELLT2uhC-b19p8RruB-16" edge="1">
          <mxGeometry relative="1" as="geometry" />
        </mxCell>
        <mxCell id="-GaUezcAxachU_HAEneV-23" value="Опыт в ведении команд" style="text;strokeColor=none;fillColor=none;align=center;verticalAlign=middle;whiteSpace=wrap;rounded=0;labelBorderColor=default;" parent="1" vertex="1">
          <mxGeometry x="-327.5" y="1010" width="60" height="30" as="geometry" />
        </mxCell>
        <mxCell id="BhELLT2uhC-b19p8RruB-41" style="edgeStyle=entityRelationEdgeStyle;rounded=0;orthogonalLoop=1;jettySize=auto;html=1;entryX=0;entryY=0.5;entryDx=0;entryDy=0;labelBorderColor=default;fontColor=#000000;" parent="1" source="-GaUezcAxachU_HAEneV-24" target="BhELLT2uhC-b19p8RruB-5" edge="1">
          <mxGeometry relative="1" as="geometry" />
        </mxCell>
        <mxCell id="BhELLT2uhC-b19p8RruB-63" style="edgeStyle=entityRelationEdgeStyle;rounded=0;orthogonalLoop=1;jettySize=auto;html=1;entryX=0;entryY=0.5;entryDx=0;entryDy=0;labelBorderColor=default;fontColor=#000000;" parent="1" source="-GaUezcAxachU_HAEneV-24" target="BhELLT2uhC-b19p8RruB-10" edge="1">
          <mxGeometry relative="1" as="geometry" />
        </mxCell>
        <mxCell id="fbzDRP4mG88nfxYPtq9W-55" style="edgeStyle=entityRelationEdgeStyle;rounded=0;orthogonalLoop=1;jettySize=auto;html=1;entryX=0;entryY=0.5;entryDx=0;entryDy=0;" parent="1" source="-GaUezcAxachU_HAEneV-24" target="BhELLT2uhC-b19p8RruB-4" edge="1">
          <mxGeometry relative="1" as="geometry" />
        </mxCell>
        <mxCell id="fbzDRP4mG88nfxYPtq9W-70" style="edgeStyle=entityRelationEdgeStyle;rounded=0;orthogonalLoop=1;jettySize=auto;html=1;entryX=0;entryY=0.5;entryDx=0;entryDy=0;" parent="1" source="-GaUezcAxachU_HAEneV-24" target="BhELLT2uhC-b19p8RruB-13" edge="1">
          <mxGeometry relative="1" as="geometry" />
        </mxCell>
        <mxCell id="fbzDRP4mG88nfxYPtq9W-89" style="edgeStyle=entityRelationEdgeStyle;rounded=0;orthogonalLoop=1;jettySize=auto;html=1;entryX=0;entryY=0.5;entryDx=0;entryDy=0;" parent="1" source="-GaUezcAxachU_HAEneV-24" target="BhELLT2uhC-b19p8RruB-16" edge="1">
          <mxGeometry relative="1" as="geometry" />
        </mxCell>
        <mxCell id="-GaUezcAxachU_HAEneV-24" value="Опыт выстраивать взаимоотношений со смежными командами" style="text;strokeColor=none;fillColor=none;align=center;verticalAlign=middle;whiteSpace=wrap;rounded=0;labelBorderColor=default;" parent="1" vertex="1">
          <mxGeometry x="-420" y="1090" width="152.5" height="30" as="geometry" />
        </mxCell>
        <mxCell id="BhELLT2uhC-b19p8RruB-93" style="edgeStyle=entityRelationEdgeStyle;rounded=0;orthogonalLoop=1;jettySize=auto;html=1;entryX=0;entryY=0.5;entryDx=0;entryDy=0;labelBorderColor=default;fontColor=#000000;" parent="1" source="-GaUezcAxachU_HAEneV-25" target="BhELLT2uhC-b19p8RruB-1" edge="1">
          <mxGeometry relative="1" as="geometry" />
        </mxCell>
        <mxCell id="fbzDRP4mG88nfxYPtq9W-8" style="edgeStyle=entityRelationEdgeStyle;rounded=0;orthogonalLoop=1;jettySize=auto;html=1;entryX=0;entryY=0.5;entryDx=0;entryDy=0;" parent="1" source="-GaUezcAxachU_HAEneV-25" target="BhELLT2uhC-b19p8RruB-6" edge="1">
          <mxGeometry relative="1" as="geometry" />
        </mxCell>
        <mxCell id="fbzDRP4mG88nfxYPtq9W-61" style="edgeStyle=entityRelationEdgeStyle;rounded=0;orthogonalLoop=1;jettySize=auto;html=1;entryX=0;entryY=0.5;entryDx=0;entryDy=0;" parent="1" source="-GaUezcAxachU_HAEneV-25" target="BhELLT2uhC-b19p8RruB-9" edge="1">
          <mxGeometry relative="1" as="geometry" />
        </mxCell>
        <mxCell id="-GaUezcAxachU_HAEneV-25" value="Знание SQL" style="text;strokeColor=none;fillColor=none;align=center;verticalAlign=middle;whiteSpace=wrap;rounded=0;opacity=30;labelBorderColor=default;" parent="1" vertex="1">
          <mxGeometry x="-327.5" y="670" width="60" height="30" as="geometry" />
        </mxCell>
        <mxCell id="BhELLT2uhC-b19p8RruB-22" style="edgeStyle=entityRelationEdgeStyle;rounded=0;orthogonalLoop=1;jettySize=auto;html=1;entryX=0;entryY=0.5;entryDx=0;entryDy=0;labelBorderColor=default;fontColor=#000000;" parent="1" source="-GaUezcAxachU_HAEneV-26" target="BhELLT2uhC-b19p8RruB-2" edge="1">
          <mxGeometry relative="1" as="geometry" />
        </mxCell>
        <mxCell id="BhELLT2uhC-b19p8RruB-74" style="edgeStyle=entityRelationEdgeStyle;rounded=0;orthogonalLoop=1;jettySize=auto;html=1;entryX=0;entryY=0.5;entryDx=0;entryDy=0;labelBorderColor=default;fontColor=#000000;" parent="1" source="-GaUezcAxachU_HAEneV-26" target="BhELLT2uhC-b19p8RruB-10" edge="1">
          <mxGeometry relative="1" as="geometry" />
        </mxCell>
        <mxCell id="BhELLT2uhC-b19p8RruB-81" style="edgeStyle=entityRelationEdgeStyle;rounded=0;orthogonalLoop=1;jettySize=auto;html=1;entryX=0;entryY=0.5;entryDx=0;entryDy=0;labelBorderColor=default;fontColor=#000000;" parent="1" source="-GaUezcAxachU_HAEneV-26" target="BhELLT2uhC-b19p8RruB-1" edge="1">
          <mxGeometry relative="1" as="geometry" />
        </mxCell>
        <mxCell id="fbzDRP4mG88nfxYPtq9W-13" style="edgeStyle=entityRelationEdgeStyle;rounded=0;orthogonalLoop=1;jettySize=auto;html=1;entryX=0;entryY=0.5;entryDx=0;entryDy=0;" parent="1" source="-GaUezcAxachU_HAEneV-26" target="BhELLT2uhC-b19p8RruB-7" edge="1">
          <mxGeometry relative="1" as="geometry" />
        </mxCell>
        <mxCell id="fbzDRP4mG88nfxYPtq9W-45" style="edgeStyle=entityRelationEdgeStyle;rounded=0;orthogonalLoop=1;jettySize=auto;html=1;entryX=0;entryY=0.5;entryDx=0;entryDy=0;" parent="1" source="-GaUezcAxachU_HAEneV-26" target="BhELLT2uhC-b19p8RruB-11" edge="1">
          <mxGeometry relative="1" as="geometry" />
        </mxCell>
        <mxCell id="fbzDRP4mG88nfxYPtq9W-99" style="edgeStyle=entityRelationEdgeStyle;rounded=0;orthogonalLoop=1;jettySize=auto;html=1;entryX=0;entryY=0.5;entryDx=0;entryDy=0;" parent="1" source="-GaUezcAxachU_HAEneV-26" target="BhELLT2uhC-b19p8RruB-17" edge="1">
          <mxGeometry relative="1" as="geometry" />
        </mxCell>
        <mxCell id="-GaUezcAxachU_HAEneV-26" value="Опыт работы с Docker" style="text;strokeColor=none;fillColor=none;align=center;verticalAlign=middle;whiteSpace=wrap;rounded=0;opacity=30;labelBorderColor=default;" parent="1" vertex="1">
          <mxGeometry x="-390" y="-590" width="110" height="30" as="geometry" />
        </mxCell>
        <mxCell id="BhELLT2uhC-b19p8RruB-29" style="edgeStyle=entityRelationEdgeStyle;rounded=0;orthogonalLoop=1;jettySize=auto;html=1;entryX=0;entryY=0.5;entryDx=0;entryDy=0;labelBorderColor=default;fontColor=#000000;" parent="1" source="-GaUezcAxachU_HAEneV-27" target="BhELLT2uhC-b19p8RruB-2" edge="1">
          <mxGeometry relative="1" as="geometry" />
        </mxCell>
        <mxCell id="BhELLT2uhC-b19p8RruB-60" style="edgeStyle=entityRelationEdgeStyle;rounded=0;orthogonalLoop=1;jettySize=auto;html=1;entryX=0;entryY=0.5;entryDx=0;entryDy=0;labelBorderColor=default;fontColor=#000000;" parent="1" source="-GaUezcAxachU_HAEneV-27" target="BhELLT2uhC-b19p8RruB-19" edge="1">
          <mxGeometry relative="1" as="geometry" />
        </mxCell>
        <mxCell id="BhELLT2uhC-b19p8RruB-64" style="edgeStyle=entityRelationEdgeStyle;rounded=0;orthogonalLoop=1;jettySize=auto;html=1;entryX=0;entryY=0.5;entryDx=0;entryDy=0;labelBorderColor=default;fontColor=#000000;" parent="1" source="-GaUezcAxachU_HAEneV-27" target="BhELLT2uhC-b19p8RruB-10" edge="1">
          <mxGeometry relative="1" as="geometry" />
        </mxCell>
        <mxCell id="fbzDRP4mG88nfxYPtq9W-51" style="edgeStyle=entityRelationEdgeStyle;rounded=0;orthogonalLoop=1;jettySize=auto;html=1;entryX=0;entryY=0.5;entryDx=0;entryDy=0;" parent="1" source="-GaUezcAxachU_HAEneV-27" target="BhELLT2uhC-b19p8RruB-11" edge="1">
          <mxGeometry relative="1" as="geometry" />
        </mxCell>
        <mxCell id="-GaUezcAxachU_HAEneV-27" value="Опыт работы с AWS" style="text;strokeColor=none;fillColor=none;align=center;verticalAlign=middle;whiteSpace=wrap;rounded=0;opacity=30;labelBorderColor=default;" parent="1" vertex="1">
          <mxGeometry x="-357.5" y="954" width="90" height="30" as="geometry" />
        </mxCell>
        <mxCell id="BhELLT2uhC-b19p8RruB-33" style="edgeStyle=entityRelationEdgeStyle;rounded=0;orthogonalLoop=1;jettySize=auto;html=1;entryX=0;entryY=0.5;entryDx=0;entryDy=0;labelBorderColor=default;fontColor=#000000;" parent="1" source="-GaUezcAxachU_HAEneV-28" target="BhELLT2uhC-b19p8RruB-18" edge="1">
          <mxGeometry relative="1" as="geometry" />
        </mxCell>
        <mxCell id="BhELLT2uhC-b19p8RruB-49" style="edgeStyle=entityRelationEdgeStyle;rounded=0;orthogonalLoop=1;jettySize=auto;html=1;entryX=0;entryY=0.5;entryDx=0;entryDy=0;labelBorderColor=default;fontColor=#000000;" parent="1" source="-GaUezcAxachU_HAEneV-28" target="BhELLT2uhC-b19p8RruB-5" edge="1">
          <mxGeometry relative="1" as="geometry" />
        </mxCell>
        <mxCell id="BhELLT2uhC-b19p8RruB-51" style="edgeStyle=entityRelationEdgeStyle;rounded=0;orthogonalLoop=1;jettySize=auto;html=1;entryX=0;entryY=0.5;entryDx=0;entryDy=0;labelBorderColor=default;fontColor=#000000;" parent="1" source="-GaUezcAxachU_HAEneV-28" target="BhELLT2uhC-b19p8RruB-19" edge="1">
          <mxGeometry relative="1" as="geometry" />
        </mxCell>
        <mxCell id="fbzDRP4mG88nfxYPtq9W-29" style="edgeStyle=entityRelationEdgeStyle;rounded=0;orthogonalLoop=1;jettySize=auto;html=1;entryX=0;entryY=0.5;entryDx=0;entryDy=0;" parent="1" source="-GaUezcAxachU_HAEneV-28" target="BhELLT2uhC-b19p8RruB-3" edge="1">
          <mxGeometry relative="1" as="geometry" />
        </mxCell>
        <mxCell id="fbzDRP4mG88nfxYPtq9W-80" style="edgeStyle=entityRelationEdgeStyle;rounded=0;orthogonalLoop=1;jettySize=auto;html=1;entryX=0;entryY=0.5;entryDx=0;entryDy=0;" parent="1" source="-GaUezcAxachU_HAEneV-28" target="BhELLT2uhC-b19p8RruB-15" edge="1">
          <mxGeometry relative="1" as="geometry" />
        </mxCell>
        <mxCell id="-GaUezcAxachU_HAEneV-28" value="Налиие научнных публикаций" style="text;strokeColor=none;fillColor=none;align=center;verticalAlign=middle;whiteSpace=wrap;rounded=0;opacity=30;labelBorderColor=default;" parent="1" vertex="1">
          <mxGeometry x="-374.5" y="-790" width="107.5" height="30" as="geometry" />
        </mxCell>
        <mxCell id="BhELLT2uhC-b19p8RruB-56" style="edgeStyle=entityRelationEdgeStyle;rounded=0;orthogonalLoop=1;jettySize=auto;html=1;entryX=0;entryY=0.5;entryDx=0;entryDy=0;labelBorderColor=default;fontColor=#000000;" parent="1" source="-GaUezcAxachU_HAEneV-29" target="BhELLT2uhC-b19p8RruB-19" edge="1">
          <mxGeometry relative="1" as="geometry" />
        </mxCell>
        <mxCell id="fbzDRP4mG88nfxYPtq9W-66" style="edgeStyle=entityRelationEdgeStyle;rounded=0;orthogonalLoop=1;jettySize=auto;html=1;entryX=0;entryY=0.5;entryDx=0;entryDy=0;" parent="1" source="-GaUezcAxachU_HAEneV-29" target="BhELLT2uhC-b19p8RruB-9" edge="1">
          <mxGeometry relative="1" as="geometry" />
        </mxCell>
        <mxCell id="-GaUezcAxachU_HAEneV-29" value="Знание языка, на который нацелен компонент NLP" style="text;strokeColor=none;fillColor=none;align=center;verticalAlign=middle;whiteSpace=wrap;rounded=0;opacity=30;labelBorderColor=default;" parent="1" vertex="1">
          <mxGeometry x="-407.5" y="-120" width="140" height="30" as="geometry" />
        </mxCell>
        <mxCell id="BhELLT2uhC-b19p8RruB-34" style="edgeStyle=entityRelationEdgeStyle;rounded=0;orthogonalLoop=1;jettySize=auto;html=1;entryX=0;entryY=0.5;entryDx=0;entryDy=0;labelBorderColor=default;fontColor=#000000;" parent="1" source="-GaUezcAxachU_HAEneV-30" target="BhELLT2uhC-b19p8RruB-18" edge="1">
          <mxGeometry relative="1" as="geometry" />
        </mxCell>
        <mxCell id="fbzDRP4mG88nfxYPtq9W-58" style="edgeStyle=entityRelationEdgeStyle;rounded=0;orthogonalLoop=1;jettySize=auto;html=1;entryX=0;entryY=0.5;entryDx=0;entryDy=0;" parent="1" source="-GaUezcAxachU_HAEneV-30" target="BhELLT2uhC-b19p8RruB-4" edge="1">
          <mxGeometry relative="1" as="geometry" />
        </mxCell>
        <mxCell id="-GaUezcAxachU_HAEneV-30" value="Jira" style="text;strokeColor=none;fillColor=none;align=center;verticalAlign=middle;whiteSpace=wrap;rounded=0;opacity=30;labelBorderColor=default;" parent="1" vertex="1">
          <mxGeometry x="-327.5" y="-260" width="60" height="30" as="geometry" />
        </mxCell>
        <mxCell id="BhELLT2uhC-b19p8RruB-82" style="edgeStyle=entityRelationEdgeStyle;rounded=0;orthogonalLoop=1;jettySize=auto;html=1;entryX=0;entryY=0.5;entryDx=0;entryDy=0;labelBorderColor=default;fontColor=#000000;" parent="1" source="-GaUezcAxachU_HAEneV-31" target="BhELLT2uhC-b19p8RruB-1" edge="1">
          <mxGeometry relative="1" as="geometry" />
        </mxCell>
        <mxCell id="-GaUezcAxachU_HAEneV-31" value="Опыт работы с multi-gpu" style="text;strokeColor=none;fillColor=none;align=center;verticalAlign=middle;whiteSpace=wrap;rounded=0;opacity=30;labelBorderColor=default;" parent="1" vertex="1">
          <mxGeometry x="-390" y="-230" width="120" height="30" as="geometry" />
        </mxCell>
        <mxCell id="BhELLT2uhC-b19p8RruB-96" style="edgeStyle=entityRelationEdgeStyle;rounded=0;orthogonalLoop=1;jettySize=auto;html=1;entryX=0;entryY=0.5;entryDx=0;entryDy=0;labelBorderColor=default;fontColor=#000000;" parent="1" source="-GaUezcAxachU_HAEneV-32" target="BhELLT2uhC-b19p8RruB-1" edge="1">
          <mxGeometry relative="1" as="geometry" />
        </mxCell>
        <mxCell id="fbzDRP4mG88nfxYPtq9W-9" style="edgeStyle=entityRelationEdgeStyle;rounded=0;orthogonalLoop=1;jettySize=auto;html=1;entryX=0;entryY=0.5;entryDx=0;entryDy=0;" parent="1" source="-GaUezcAxachU_HAEneV-32" target="BhELLT2uhC-b19p8RruB-6" edge="1">
          <mxGeometry relative="1" as="geometry" />
        </mxCell>
        <mxCell id="fbzDRP4mG88nfxYPtq9W-25" style="edgeStyle=entityRelationEdgeStyle;rounded=0;orthogonalLoop=1;jettySize=auto;html=1;entryX=0;entryY=0.5;entryDx=0;entryDy=0;" parent="1" source="-GaUezcAxachU_HAEneV-32" target="BhELLT2uhC-b19p8RruB-7" edge="1">
          <mxGeometry relative="1" as="geometry">
            <mxPoint x="215" y="90" as="targetPoint" />
          </mxGeometry>
        </mxCell>
        <mxCell id="fbzDRP4mG88nfxYPtq9W-49" style="edgeStyle=entityRelationEdgeStyle;rounded=0;orthogonalLoop=1;jettySize=auto;html=1;entryX=0;entryY=0.5;entryDx=0;entryDy=0;" parent="1" source="-GaUezcAxachU_HAEneV-32" target="BhELLT2uhC-b19p8RruB-11" edge="1">
          <mxGeometry relative="1" as="geometry">
            <mxPoint x="225" y="190" as="targetPoint" />
          </mxGeometry>
        </mxCell>
        <mxCell id="fbzDRP4mG88nfxYPtq9W-96" style="edgeStyle=entityRelationEdgeStyle;rounded=0;orthogonalLoop=1;jettySize=auto;html=1;entryX=0;entryY=0.5;entryDx=0;entryDy=0;" parent="1" source="-GaUezcAxachU_HAEneV-32" target="BhELLT2uhC-b19p8RruB-17" edge="1">
          <mxGeometry relative="1" as="geometry" />
        </mxCell>
        <mxCell id="-GaUezcAxachU_HAEneV-32" value="Знание других языков программирования" style="text;strokeColor=none;fillColor=none;align=center;verticalAlign=middle;whiteSpace=wrap;rounded=0;opacity=30;labelBorderColor=default;" parent="1" vertex="1">
          <mxGeometry x="-347.5" y="740" width="60" height="30" as="geometry" />
        </mxCell>
        <mxCell id="BhELLT2uhC-b19p8RruB-80" style="edgeStyle=entityRelationEdgeStyle;rounded=0;orthogonalLoop=1;jettySize=auto;html=1;entryX=0;entryY=0.5;entryDx=0;entryDy=0;labelBorderColor=default;fontColor=#000000;" parent="1" source="-GaUezcAxachU_HAEneV-33" target="BhELLT2uhC-b19p8RruB-1" edge="1">
          <mxGeometry relative="1" as="geometry" />
        </mxCell>
        <mxCell id="fbzDRP4mG88nfxYPtq9W-16" style="edgeStyle=entityRelationEdgeStyle;rounded=0;orthogonalLoop=1;jettySize=auto;html=1;entryX=0;entryY=0.5;entryDx=0;entryDy=0;" parent="1" source="-GaUezcAxachU_HAEneV-33" target="BhELLT2uhC-b19p8RruB-7" edge="1">
          <mxGeometry relative="1" as="geometry" />
        </mxCell>
        <mxCell id="fbzDRP4mG88nfxYPtq9W-46" style="edgeStyle=entityRelationEdgeStyle;rounded=0;orthogonalLoop=1;jettySize=auto;html=1;entryX=0;entryY=0.5;entryDx=0;entryDy=0;" parent="1" source="-GaUezcAxachU_HAEneV-33" target="BhELLT2uhC-b19p8RruB-11" edge="1">
          <mxGeometry relative="1" as="geometry" />
        </mxCell>
        <mxCell id="-GaUezcAxachU_HAEneV-33" value="Знание C++" style="text;strokeColor=none;fillColor=none;align=center;verticalAlign=middle;whiteSpace=wrap;rounded=0;dashed=1;labelBorderColor=default;" parent="1" vertex="1">
          <mxGeometry x="-335" y="-350" width="60" height="30" as="geometry" />
        </mxCell>
        <mxCell id="BhELLT2uhC-b19p8RruB-70" style="edgeStyle=entityRelationEdgeStyle;rounded=0;orthogonalLoop=1;jettySize=auto;html=1;entryX=0;entryY=0.5;entryDx=0;entryDy=0;labelBorderColor=default;fontColor=#000000;" parent="1" source="-GaUezcAxachU_HAEneV-35" target="BhELLT2uhC-b19p8RruB-10" edge="1">
          <mxGeometry relative="1" as="geometry" />
        </mxCell>
        <mxCell id="fbzDRP4mG88nfxYPtq9W-2" style="edgeStyle=entityRelationEdgeStyle;rounded=0;orthogonalLoop=1;jettySize=auto;html=1;entryX=0;entryY=0.5;entryDx=0;entryDy=0;" parent="1" source="-GaUezcAxachU_HAEneV-35" target="BhELLT2uhC-b19p8RruB-6" edge="1">
          <mxGeometry relative="1" as="geometry" />
        </mxCell>
        <mxCell id="fbzDRP4mG88nfxYPtq9W-69" style="edgeStyle=entityRelationEdgeStyle;rounded=0;orthogonalLoop=1;jettySize=auto;html=1;entryX=0;entryY=0.5;entryDx=0;entryDy=0;" parent="1" source="-GaUezcAxachU_HAEneV-35" target="BhELLT2uhC-b19p8RruB-9" edge="1">
          <mxGeometry relative="1" as="geometry" />
        </mxCell>
        <mxCell id="-GaUezcAxachU_HAEneV-35" value="Spark" style="text;strokeColor=none;fillColor=none;align=center;verticalAlign=middle;whiteSpace=wrap;rounded=0;opacity=30;labelBorderColor=default;" parent="1" vertex="1">
          <mxGeometry x="-327" y="-1040" width="60" height="30" as="geometry" />
        </mxCell>
        <mxCell id="BhELLT2uhC-b19p8RruB-67" style="edgeStyle=entityRelationEdgeStyle;rounded=0;orthogonalLoop=1;jettySize=auto;html=1;entryX=0;entryY=0.5;entryDx=0;entryDy=0;labelBorderColor=default;fontColor=#000000;" parent="1" source="-GaUezcAxachU_HAEneV-36" target="BhELLT2uhC-b19p8RruB-10" edge="1">
          <mxGeometry relative="1" as="geometry" />
        </mxCell>
        <mxCell id="fbzDRP4mG88nfxYPtq9W-11" style="edgeStyle=entityRelationEdgeStyle;rounded=0;orthogonalLoop=1;jettySize=auto;html=1;entryX=0;entryY=0.5;entryDx=0;entryDy=0;" parent="1" source="-GaUezcAxachU_HAEneV-36" target="BhELLT2uhC-b19p8RruB-7" edge="1">
          <mxGeometry relative="1" as="geometry" />
        </mxCell>
        <mxCell id="-GaUezcAxachU_HAEneV-36" value="Hadoop" style="text;strokeColor=none;fillColor=none;align=center;verticalAlign=middle;whiteSpace=wrap;rounded=0;opacity=30;labelBorderColor=default;" parent="1" vertex="1">
          <mxGeometry x="-329.5" y="-840" width="60" height="30" as="geometry" />
        </mxCell>
        <mxCell id="BhELLT2uhC-b19p8RruB-69" style="edgeStyle=entityRelationEdgeStyle;rounded=0;orthogonalLoop=1;jettySize=auto;html=1;entryX=0;entryY=0.5;entryDx=0;entryDy=0;labelBorderColor=default;fontColor=#000000;" parent="1" source="-GaUezcAxachU_HAEneV-37" target="BhELLT2uhC-b19p8RruB-10" edge="1">
          <mxGeometry relative="1" as="geometry" />
        </mxCell>
        <mxCell id="fbzDRP4mG88nfxYPtq9W-43" style="edgeStyle=entityRelationEdgeStyle;rounded=0;orthogonalLoop=1;jettySize=auto;html=1;entryX=0;entryY=0.5;entryDx=0;entryDy=0;" parent="1" source="-GaUezcAxachU_HAEneV-37" target="BhELLT2uhC-b19p8RruB-11" edge="1">
          <mxGeometry relative="1" as="geometry">
            <mxPoint x="225" y="130" as="targetPoint" />
          </mxGeometry>
        </mxCell>
        <mxCell id="-GaUezcAxachU_HAEneV-37" value="Sagemaker" style="text;strokeColor=none;fillColor=none;align=center;verticalAlign=middle;whiteSpace=wrap;rounded=0;opacity=30;labelBorderColor=default;" parent="1" vertex="1">
          <mxGeometry x="-332.5" y="-950" width="60" height="30" as="geometry" />
        </mxCell>
        <mxCell id="BhELLT2uhC-b19p8RruB-21" style="edgeStyle=entityRelationEdgeStyle;rounded=0;orthogonalLoop=1;jettySize=auto;html=1;entryX=0;entryY=0.5;entryDx=0;entryDy=0;labelBorderColor=default;fontColor=#000000;" parent="1" source="-GaUezcAxachU_HAEneV-38" target="BhELLT2uhC-b19p8RruB-2" edge="1">
          <mxGeometry relative="1" as="geometry" />
        </mxCell>
        <mxCell id="BhELLT2uhC-b19p8RruB-72" style="edgeStyle=entityRelationEdgeStyle;rounded=0;orthogonalLoop=1;jettySize=auto;html=1;entryX=0;entryY=0.5;entryDx=0;entryDy=0;labelBorderColor=default;fontColor=#000000;" parent="1" source="-GaUezcAxachU_HAEneV-38" target="BhELLT2uhC-b19p8RruB-10" edge="1">
          <mxGeometry relative="1" as="geometry" />
        </mxCell>
        <mxCell id="fbzDRP4mG88nfxYPtq9W-41" style="edgeStyle=entityRelationEdgeStyle;rounded=0;orthogonalLoop=1;jettySize=auto;html=1;entryX=0;entryY=0.5;entryDx=0;entryDy=0;" parent="1" source="-GaUezcAxachU_HAEneV-38" target="BhELLT2uhC-b19p8RruB-11" edge="1">
          <mxGeometry relative="1" as="geometry" />
        </mxCell>
        <mxCell id="fbzDRP4mG88nfxYPtq9W-102" style="edgeStyle=entityRelationEdgeStyle;rounded=0;orthogonalLoop=1;jettySize=auto;html=1;entryX=0;entryY=0.5;entryDx=0;entryDy=0;" parent="1" source="-GaUezcAxachU_HAEneV-38" target="BhELLT2uhC-b19p8RruB-17" edge="1">
          <mxGeometry relative="1" as="geometry" />
        </mxCell>
        <mxCell id="-GaUezcAxachU_HAEneV-38" value="Airflow" style="text;strokeColor=none;fillColor=none;align=center;verticalAlign=middle;whiteSpace=wrap;rounded=0;opacity=30;labelBorderColor=default;flipV=1;" parent="1" vertex="1">
          <mxGeometry x="-335" y="-1110" width="60" height="30" as="geometry" />
        </mxCell>
        <mxCell id="BhELLT2uhC-b19p8RruB-73" style="edgeStyle=entityRelationEdgeStyle;rounded=0;orthogonalLoop=1;jettySize=auto;html=1;entryX=0;entryY=0.5;entryDx=0;entryDy=0;labelBorderColor=default;fontColor=#000000;" parent="1" source="-GaUezcAxachU_HAEneV-39" target="BhELLT2uhC-b19p8RruB-10" edge="1">
          <mxGeometry relative="1" as="geometry" />
        </mxCell>
        <mxCell id="fbzDRP4mG88nfxYPtq9W-40" style="edgeStyle=entityRelationEdgeStyle;rounded=0;orthogonalLoop=1;jettySize=auto;html=1;entryX=0;entryY=0.5;entryDx=0;entryDy=0;" parent="1" source="-GaUezcAxachU_HAEneV-39" target="BhELLT2uhC-b19p8RruB-11" edge="1">
          <mxGeometry relative="1" as="geometry" />
        </mxCell>
        <mxCell id="fbzDRP4mG88nfxYPtq9W-103" style="edgeStyle=entityRelationEdgeStyle;rounded=0;orthogonalLoop=1;jettySize=auto;html=1;entryX=0;entryY=0.5;entryDx=0;entryDy=0;" parent="1" source="-GaUezcAxachU_HAEneV-39" target="BhELLT2uhC-b19p8RruB-17" edge="1">
          <mxGeometry relative="1" as="geometry" />
        </mxCell>
        <mxCell id="-GaUezcAxachU_HAEneV-39" value="Kubernetes" style="text;strokeColor=none;fillColor=none;align=center;verticalAlign=middle;whiteSpace=wrap;rounded=0;opacity=30;labelBorderColor=default;flipV=1;" parent="1" vertex="1">
          <mxGeometry x="-340" y="-1140" width="60" height="30" as="geometry" />
        </mxCell>
        <mxCell id="BhELLT2uhC-b19p8RruB-71" style="edgeStyle=entityRelationEdgeStyle;rounded=0;orthogonalLoop=1;jettySize=auto;html=1;entryX=0;entryY=0.5;entryDx=0;entryDy=0;labelBorderColor=default;fontColor=#000000;" parent="1" source="-GaUezcAxachU_HAEneV-40" target="BhELLT2uhC-b19p8RruB-10" edge="1">
          <mxGeometry relative="1" as="geometry" />
        </mxCell>
        <mxCell id="fbzDRP4mG88nfxYPtq9W-42" style="edgeStyle=entityRelationEdgeStyle;rounded=0;orthogonalLoop=1;jettySize=auto;html=1;entryX=0;entryY=0.5;entryDx=0;entryDy=0;" parent="1" source="-GaUezcAxachU_HAEneV-40" target="BhELLT2uhC-b19p8RruB-11" edge="1">
          <mxGeometry relative="1" as="geometry" />
        </mxCell>
        <mxCell id="fbzDRP4mG88nfxYPtq9W-101" style="edgeStyle=entityRelationEdgeStyle;rounded=0;orthogonalLoop=1;jettySize=auto;html=1;entryX=0;entryY=0.5;entryDx=0;entryDy=0;" parent="1" source="-GaUezcAxachU_HAEneV-40" target="BhELLT2uhC-b19p8RruB-17" edge="1">
          <mxGeometry relative="1" as="geometry" />
        </mxCell>
        <mxCell id="-GaUezcAxachU_HAEneV-40" value="Kuberflow" style="text;strokeColor=none;fillColor=none;align=center;verticalAlign=middle;whiteSpace=wrap;rounded=0;opacity=30;labelBorderColor=default;" parent="1" vertex="1">
          <mxGeometry x="-340" y="-1070" width="60" height="30" as="geometry" />
        </mxCell>
        <mxCell id="BhELLT2uhC-b19p8RruB-32" style="edgeStyle=entityRelationEdgeStyle;rounded=0;orthogonalLoop=1;jettySize=auto;html=1;labelBorderColor=default;fontColor=#000000;" parent="1" source="-GaUezcAxachU_HAEneV-41" target="BhELLT2uhC-b19p8RruB-2" edge="1">
          <mxGeometry relative="1" as="geometry" />
        </mxCell>
        <mxCell id="BhELLT2uhC-b19p8RruB-68" style="edgeStyle=entityRelationEdgeStyle;rounded=0;orthogonalLoop=1;jettySize=auto;html=1;entryX=0;entryY=0.5;entryDx=0;entryDy=0;labelBorderColor=default;fontColor=#000000;" parent="1" source="-GaUezcAxachU_HAEneV-41" target="BhELLT2uhC-b19p8RruB-10" edge="1">
          <mxGeometry relative="1" as="geometry" />
        </mxCell>
        <mxCell id="fbzDRP4mG88nfxYPtq9W-44" style="edgeStyle=entityRelationEdgeStyle;rounded=0;orthogonalLoop=1;jettySize=auto;html=1;entryX=0;entryY=0.5;entryDx=0;entryDy=0;" parent="1" source="-GaUezcAxachU_HAEneV-41" target="BhELLT2uhC-b19p8RruB-11" edge="1">
          <mxGeometry relative="1" as="geometry" />
        </mxCell>
        <mxCell id="fbzDRP4mG88nfxYPtq9W-100" style="edgeStyle=entityRelationEdgeStyle;rounded=0;orthogonalLoop=1;jettySize=auto;html=1;entryX=0;entryY=0.5;entryDx=0;entryDy=0;" parent="1" source="-GaUezcAxachU_HAEneV-41" target="BhELLT2uhC-b19p8RruB-17" edge="1">
          <mxGeometry relative="1" as="geometry" />
        </mxCell>
        <mxCell id="-GaUezcAxachU_HAEneV-41" value="CI/CD" style="text;strokeColor=none;fillColor=none;align=center;verticalAlign=middle;whiteSpace=wrap;rounded=0;opacity=30;labelBorderColor=default;" parent="1" vertex="1">
          <mxGeometry x="-322.5" y="-910" width="60" height="30" as="geometry" />
        </mxCell>
        <mxCell id="BhELLT2uhC-b19p8RruB-1" value=" Разработка компонентов NLP" style="text;strokeColor=none;fillColor=none;align=center;verticalAlign=middle;whiteSpace=wrap;rounded=0;dashed=1;labelBackgroundColor=none;labelBorderColor=default;fontColor=#000000;flipV=0;" parent="1" vertex="1">
          <mxGeometry x="275" y="-116" width="130" height="30" as="geometry" />
        </mxCell>
        <mxCell id="BhELLT2uhC-b19p8RruB-2" value="Тестирование компонентов" style="text;strokeColor=none;fillColor=none;align=center;verticalAlign=middle;whiteSpace=wrap;rounded=0;dashed=1;labelBackgroundColor=none;labelBorderColor=default;fontColor=#000000;flipV=0;" parent="1" vertex="1">
          <mxGeometry x="265" y="-400" width="190" height="30" as="geometry" />
        </mxCell>
        <mxCell id="BhELLT2uhC-b19p8RruB-3" value="Производить исследования" style="text;strokeColor=none;fillColor=none;align=center;verticalAlign=middle;whiteSpace=wrap;rounded=0;dashed=1;labelBackgroundColor=none;labelBorderColor=default;fontColor=#000000;flipV=0;" parent="1" vertex="1">
          <mxGeometry x="270" y="36" width="60" height="30" as="geometry" />
        </mxCell>
        <mxCell id="BhELLT2uhC-b19p8RruB-4" value="Работать в команде" style="text;strokeColor=none;fillColor=none;align=center;verticalAlign=middle;whiteSpace=wrap;rounded=0;dashed=1;labelBackgroundColor=none;labelBorderColor=default;fontColor=#000000;flipV=0;" parent="1" vertex="1">
          <mxGeometry x="260" y="191" width="100" height="30" as="geometry" />
        </mxCell>
        <mxCell id="BhELLT2uhC-b19p8RruB-5" value="Формилуриовка и объяснение ограничений" style="text;strokeColor=none;fillColor=none;align=center;verticalAlign=middle;whiteSpace=wrap;rounded=0;dashed=1;labelBackgroundColor=none;labelBorderColor=default;fontColor=#000000;flipV=0;" parent="1" vertex="1">
          <mxGeometry x="265" y="-276" width="180" height="30" as="geometry" />
        </mxCell>
        <mxCell id="BhELLT2uhC-b19p8RruB-6" value="Эксктракция данных " style="text;strokeColor=none;fillColor=none;align=center;verticalAlign=middle;whiteSpace=wrap;rounded=0;dashed=1;labelBackgroundColor=none;labelBorderColor=default;fontColor=#000000;flipV=0;" parent="1" vertex="1">
          <mxGeometry x="260" y="-66" width="160" height="30" as="geometry" />
        </mxCell>
        <mxCell id="BhELLT2uhC-b19p8RruB-7" value="Построение движка или пайплайна NLP/ML" style="text;strokeColor=none;fillColor=none;align=center;verticalAlign=middle;whiteSpace=wrap;rounded=0;dashed=1;labelBackgroundColor=none;labelBorderColor=default;fontColor=#000000;flipV=0;" parent="1" vertex="1">
          <mxGeometry x="270" y="-17" width="205" height="30" as="geometry" />
        </mxCell>
        <mxCell id="BhELLT2uhC-b19p8RruB-8" value="Декомпозирование задачи на конкретные измеримые задачи" style="text;strokeColor=none;fillColor=none;align=center;verticalAlign=middle;whiteSpace=wrap;rounded=0;dashed=1;labelBackgroundColor=none;labelBorderColor=default;fontColor=#000000;flipV=0;" parent="1" vertex="1">
          <mxGeometry x="260" y="138" width="190" height="30" as="geometry" />
        </mxCell>
        <mxCell id="BhELLT2uhC-b19p8RruB-9" value="Подготовка датасетов" style="text;strokeColor=none;fillColor=none;align=center;verticalAlign=middle;whiteSpace=wrap;rounded=0;dashed=1;labelBackgroundColor=none;labelBorderColor=default;fontColor=#000000;flipV=0;" parent="1" vertex="1">
          <mxGeometry x="260" y="243" width="160" height="30" as="geometry" />
        </mxCell>
        <mxCell id="BhELLT2uhC-b19p8RruB-10" value="Интеграция моделей в облако" style="text;strokeColor=none;fillColor=none;align=center;verticalAlign=middle;whiteSpace=wrap;rounded=0;dashed=1;labelBackgroundColor=none;labelBorderColor=default;fontColor=#000000;flipV=0;" parent="1" vertex="1">
          <mxGeometry x="270" y="-176" width="160" height="30" as="geometry" />
        </mxCell>
        <mxCell id="BhELLT2uhC-b19p8RruB-11" value="Работа над системами разветрки и логгировани" style="text;strokeColor=none;fillColor=none;align=center;verticalAlign=middle;whiteSpace=wrap;rounded=0;dashed=1;labelBackgroundColor=none;labelBorderColor=default;fontColor=#000000;flipV=0;" parent="1" vertex="1">
          <mxGeometry x="260" y="85" width="215" height="30" as="geometry" />
        </mxCell>
        <mxCell id="BhELLT2uhC-b19p8RruB-13" value="Управление командой/командами" style="text;strokeColor=none;fillColor=none;align=center;verticalAlign=middle;whiteSpace=wrap;rounded=0;dashed=1;labelBackgroundColor=none;labelBorderColor=default;fontColor=#000000;flipV=0;" parent="1" vertex="1">
          <mxGeometry x="260" y="349" width="180" height="30" as="geometry" />
        </mxCell>
        <mxCell id="BhELLT2uhC-b19p8RruB-14" value="Разработка стратегий построения NLP систем и аналитика" style="text;strokeColor=none;fillColor=none;align=center;verticalAlign=middle;whiteSpace=wrap;rounded=0;dashed=1;labelBackgroundColor=none;labelBorderColor=default;fontColor=#000000;flipV=0;" parent="1" vertex="1">
          <mxGeometry x="260" y="454" width="240" height="30" as="geometry" />
        </mxCell>
        <mxCell id="BhELLT2uhC-b19p8RruB-15" value="Приминение последних достижений к текущим задачам бизнеса" style="text;strokeColor=none;fillColor=none;align=center;verticalAlign=middle;whiteSpace=wrap;rounded=0;dashed=1;labelBackgroundColor=none;labelBorderColor=default;fontColor=#000000;flipV=0;" parent="1" vertex="1">
          <mxGeometry x="260" y="402" width="240" height="30" as="geometry" />
        </mxCell>
        <mxCell id="BhELLT2uhC-b19p8RruB-16" value="Исследование, понимание и обучение команды" style="text;strokeColor=none;fillColor=none;align=center;verticalAlign=middle;whiteSpace=wrap;rounded=0;dashed=1;labelBackgroundColor=none;labelBorderColor=default;fontColor=#000000;flipV=0;" parent="1" vertex="1">
          <mxGeometry x="260" y="507" width="233" height="30" as="geometry" />
        </mxCell>
        <mxCell id="BhELLT2uhC-b19p8RruB-17" value="Организация доступности существующих систем и библиотек NLP другим командам" style="text;strokeColor=none;fillColor=none;align=center;verticalAlign=middle;whiteSpace=wrap;rounded=0;dashed=1;labelBackgroundColor=none;labelBorderColor=default;fontColor=#000000;flipV=0;" parent="1" vertex="1">
          <mxGeometry x="260" y="560" width="290" height="30" as="geometry" />
        </mxCell>
        <mxCell id="BhELLT2uhC-b19p8RruB-19" value="Написание научных статей" style="text;strokeColor=none;fillColor=none;align=center;verticalAlign=middle;whiteSpace=wrap;rounded=0;dashed=1;labelBackgroundColor=none;labelBorderColor=default;fontColor=#000000;flipV=0;" parent="1" vertex="1">
          <mxGeometry x="280" y="-226" width="160" height="30" as="geometry" />
        </mxCell>
        <mxCell id="BhELLT2uhC-b19p8RruB-18" value="Написание отчетов и документации" style="text;strokeColor=none;fillColor=none;align=center;verticalAlign=middle;whiteSpace=wrap;rounded=0;dashed=1;labelBackgroundColor=none;labelBorderColor=default;fontColor=#000000;flipV=0;" parent="1" vertex="1">
          <mxGeometry x="285" y="-333" width="140" height="30" as="geometry" />
        </mxCell>
        <mxCell id="yaxtsRrdagBZT4_tjJ3d-8" style="edgeStyle=entityRelationEdgeStyle;rounded=0;orthogonalLoop=1;jettySize=auto;html=1;entryX=0;entryY=0.5;entryDx=0;entryDy=0;" edge="1" parent="1" source="yaxtsRrdagBZT4_tjJ3d-5" target="BhELLT2uhC-b19p8RruB-6">
          <mxGeometry relative="1" as="geometry" />
        </mxCell>
        <mxCell id="yaxtsRrdagBZT4_tjJ3d-9" style="edgeStyle=entityRelationEdgeStyle;rounded=0;orthogonalLoop=1;jettySize=auto;html=1;entryX=0;entryY=0.5;entryDx=0;entryDy=0;" edge="1" parent="1" source="yaxtsRrdagBZT4_tjJ3d-5" target="BhELLT2uhC-b19p8RruB-7">
          <mxGeometry relative="1" as="geometry" />
        </mxCell>
        <mxCell id="yaxtsRrdagBZT4_tjJ3d-10" style="edgeStyle=entityRelationEdgeStyle;rounded=0;orthogonalLoop=1;jettySize=auto;html=1;entryX=0;entryY=0.5;entryDx=0;entryDy=0;" edge="1" parent="1" source="yaxtsRrdagBZT4_tjJ3d-5" target="BhELLT2uhC-b19p8RruB-1">
          <mxGeometry relative="1" as="geometry" />
        </mxCell>
        <mxCell id="yaxtsRrdagBZT4_tjJ3d-5" value="Большие языковые модели" style="text;strokeColor=none;fillColor=none;align=center;verticalAlign=middle;whiteSpace=wrap;rounded=0;labelBorderColor=default;" vertex="1" parent="1">
          <mxGeometry x="-418.75" y="1150" width="152.5" height="30" as="geometry" />
        </mxCell>
      </root>
    </mxGraphModel>
  </diagram>
  <diagram id="QWMIW_HDNJJbwYXaGyGZ" name="Roadmap">
    <mxGraphModel dx="1687" dy="3331" grid="1" gridSize="10" guides="1" tooltips="1" connect="1" arrows="1" fold="1" page="1" pageScale="1" pageWidth="827" pageHeight="1169" math="0" shadow="0">
      <root>
        <mxCell id="0" />
        <mxCell id="1" parent="0" />
        <mxCell id="Leh7SRGu1nOTf254ItLz-270" style="edgeStyle=none;rounded=0;orthogonalLoop=1;jettySize=auto;html=1;entryX=0.5;entryY=0;entryDx=0;entryDy=0;fillColor=#f8cecc;strokeColor=default;" parent="1" source="Leh7SRGu1nOTf254ItLz-243" target="Leh7SRGu1nOTf254ItLz-155" edge="1">
          <mxGeometry relative="1" as="geometry" />
        </mxCell>
        <mxCell id="Leh7SRGu1nOTf254ItLz-206" style="edgeStyle=none;rounded=0;orthogonalLoop=1;jettySize=auto;html=1;entryX=0;entryY=0.5;entryDx=0;entryDy=0;" parent="1" source="Leh7SRGu1nOTf254ItLz-194" target="Leh7SRGu1nOTf254ItLz-200" edge="1">
          <mxGeometry relative="1" as="geometry" />
        </mxCell>
        <mxCell id="Leh7SRGu1nOTf254ItLz-208" style="edgeStyle=none;rounded=0;orthogonalLoop=1;jettySize=auto;html=1;entryX=1;entryY=0.5;entryDx=0;entryDy=0;" parent="1" source="Leh7SRGu1nOTf254ItLz-194" target="Leh7SRGu1nOTf254ItLz-199" edge="1">
          <mxGeometry relative="1" as="geometry" />
        </mxCell>
        <mxCell id="Leh7SRGu1nOTf254ItLz-209" style="edgeStyle=none;rounded=0;orthogonalLoop=1;jettySize=auto;html=1;entryX=1;entryY=0.5;entryDx=0;entryDy=0;" parent="1" source="Leh7SRGu1nOTf254ItLz-194" target="Leh7SRGu1nOTf254ItLz-201" edge="1">
          <mxGeometry relative="1" as="geometry" />
        </mxCell>
        <mxCell id="Leh7SRGu1nOTf254ItLz-210" style="edgeStyle=none;rounded=0;orthogonalLoop=1;jettySize=auto;html=1;entryX=0;entryY=0.5;entryDx=0;entryDy=0;" parent="1" source="Leh7SRGu1nOTf254ItLz-194" target="Leh7SRGu1nOTf254ItLz-143" edge="1">
          <mxGeometry relative="1" as="geometry" />
        </mxCell>
        <mxCell id="Leh7SRGu1nOTf254ItLz-219" style="edgeStyle=none;rounded=0;orthogonalLoop=1;jettySize=auto;html=1;entryX=1;entryY=0.5;entryDx=0;entryDy=0;" parent="1" source="Leh7SRGu1nOTf254ItLz-194" target="Leh7SRGu1nOTf254ItLz-218" edge="1">
          <mxGeometry relative="1" as="geometry" />
        </mxCell>
        <mxCell id="Leh7SRGu1nOTf254ItLz-238" style="edgeStyle=none;rounded=0;orthogonalLoop=1;jettySize=auto;html=1;entryX=0.5;entryY=0;entryDx=0;entryDy=0;" parent="1" source="Leh7SRGu1nOTf254ItLz-194" target="Leh7SRGu1nOTf254ItLz-236" edge="1">
          <mxGeometry relative="1" as="geometry" />
        </mxCell>
        <mxCell id="Leh7SRGu1nOTf254ItLz-239" style="edgeStyle=none;rounded=0;orthogonalLoop=1;jettySize=auto;html=1;entryX=0;entryY=0.5;entryDx=0;entryDy=0;" parent="1" source="Leh7SRGu1nOTf254ItLz-194" target="Leh7SRGu1nOTf254ItLz-233" edge="1">
          <mxGeometry relative="1" as="geometry" />
        </mxCell>
        <mxCell id="Leh7SRGu1nOTf254ItLz-273" style="edgeStyle=none;rounded=0;orthogonalLoop=1;jettySize=auto;html=1;entryX=0.5;entryY=0;entryDx=0;entryDy=0;dashed=1;strokeWidth=2;" parent="1" source="Leh7SRGu1nOTf254ItLz-194" target="Leh7SRGu1nOTf254ItLz-45" edge="1">
          <mxGeometry relative="1" as="geometry" />
        </mxCell>
        <mxCell id="Leh7SRGu1nOTf254ItLz-194" value="Классическое машинное обучение" style="rounded=0;whiteSpace=wrap;html=1;fillColor=#e1d5e7;strokeColor=#9673a6;" parent="1" vertex="1">
          <mxGeometry x="775" y="-1707" width="120" height="60" as="geometry" />
        </mxCell>
        <mxCell id="Leh7SRGu1nOTf254ItLz-71" value="POS-тэггинг" style="rounded=0;whiteSpace=wrap;html=1;fillColor=#f8cecc;strokeColor=#b85450;" parent="1" vertex="1">
          <mxGeometry x="265" y="-630" width="120" height="60" as="geometry" />
        </mxCell>
        <mxCell id="Leh7SRGu1nOTf254ItLz-72" value="NER" style="rounded=0;whiteSpace=wrap;html=1;fillColor=#f8cecc;strokeColor=#b85450;" parent="1" vertex="1">
          <mxGeometry x="559" y="-390" width="120" height="60" as="geometry" />
        </mxCell>
        <mxCell id="Leh7SRGu1nOTf254ItLz-73" style="edgeStyle=none;rounded=0;orthogonalLoop=1;jettySize=auto;html=1;entryX=1;entryY=0.5;entryDx=0;entryDy=0;" parent="1" source="Leh7SRGu1nOTf254ItLz-74" target="Leh7SRGu1nOTf254ItLz-71" edge="1">
          <mxGeometry relative="1" as="geometry" />
        </mxCell>
        <mxCell id="Leh7SRGu1nOTf254ItLz-74" value="Лингвистический разбор" style="rounded=0;whiteSpace=wrap;html=1;fillColor=#f8cecc;strokeColor=#b85450;" parent="1" vertex="1">
          <mxGeometry x="445" y="-540" width="120" height="60" as="geometry" />
        </mxCell>
        <mxCell id="Leh7SRGu1nOTf254ItLz-76" style="edgeStyle=none;rounded=0;orthogonalLoop=1;jettySize=auto;html=1;entryX=1;entryY=0.5;entryDx=0;entryDy=0;" parent="1" source="Leh7SRGu1nOTf254ItLz-77" target="Leh7SRGu1nOTf254ItLz-74" edge="1">
          <mxGeometry relative="1" as="geometry" />
        </mxCell>
        <mxCell id="Leh7SRGu1nOTf254ItLz-251" style="edgeStyle=none;rounded=0;orthogonalLoop=1;jettySize=auto;html=1;entryX=1;entryY=0.5;entryDx=0;entryDy=0;" parent="1" source="Leh7SRGu1nOTf254ItLz-77" target="Leh7SRGu1nOTf254ItLz-87" edge="1">
          <mxGeometry relative="1" as="geometry" />
        </mxCell>
        <mxCell id="Leh7SRGu1nOTf254ItLz-252" style="edgeStyle=none;rounded=0;orthogonalLoop=1;jettySize=auto;html=1;entryX=1;entryY=0.5;entryDx=0;entryDy=0;" parent="1" source="Leh7SRGu1nOTf254ItLz-77" target="Leh7SRGu1nOTf254ItLz-85" edge="1">
          <mxGeometry relative="1" as="geometry" />
        </mxCell>
        <mxCell id="Leh7SRGu1nOTf254ItLz-253" style="edgeStyle=none;rounded=0;orthogonalLoop=1;jettySize=auto;html=1;entryX=1;entryY=0.5;entryDx=0;entryDy=0;" parent="1" source="Leh7SRGu1nOTf254ItLz-77" target="Leh7SRGu1nOTf254ItLz-83" edge="1">
          <mxGeometry relative="1" as="geometry" />
        </mxCell>
        <mxCell id="Leh7SRGu1nOTf254ItLz-254" style="edgeStyle=none;rounded=0;orthogonalLoop=1;jettySize=auto;html=1;entryX=0;entryY=0.5;entryDx=0;entryDy=0;" parent="1" source="Leh7SRGu1nOTf254ItLz-77" target="Leh7SRGu1nOTf254ItLz-91" edge="1">
          <mxGeometry relative="1" as="geometry" />
        </mxCell>
        <mxCell id="Leh7SRGu1nOTf254ItLz-255" style="edgeStyle=none;rounded=0;orthogonalLoop=1;jettySize=auto;html=1;entryX=0;entryY=0.5;entryDx=0;entryDy=0;" parent="1" source="Leh7SRGu1nOTf254ItLz-77" target="Leh7SRGu1nOTf254ItLz-97" edge="1">
          <mxGeometry relative="1" as="geometry" />
        </mxCell>
        <mxCell id="Leh7SRGu1nOTf254ItLz-256" style="edgeStyle=none;rounded=0;orthogonalLoop=1;jettySize=auto;html=1;entryX=0;entryY=0.5;entryDx=0;entryDy=0;" parent="1" source="Leh7SRGu1nOTf254ItLz-77" target="Leh7SRGu1nOTf254ItLz-81" edge="1">
          <mxGeometry relative="1" as="geometry" />
        </mxCell>
        <mxCell id="Leh7SRGu1nOTf254ItLz-257" style="edgeStyle=none;rounded=0;orthogonalLoop=1;jettySize=auto;html=1;entryX=0;entryY=0.5;entryDx=0;entryDy=0;" parent="1" source="Leh7SRGu1nOTf254ItLz-77" target="Leh7SRGu1nOTf254ItLz-75" edge="1">
          <mxGeometry relative="1" as="geometry" />
        </mxCell>
        <mxCell id="Leh7SRGu1nOTf254ItLz-258" style="edgeStyle=none;rounded=0;orthogonalLoop=1;jettySize=auto;html=1;entryX=0.5;entryY=0;entryDx=0;entryDy=0;" parent="1" source="Leh7SRGu1nOTf254ItLz-77" target="Leh7SRGu1nOTf254ItLz-99" edge="1">
          <mxGeometry relative="1" as="geometry" />
        </mxCell>
        <mxCell id="Leh7SRGu1nOTf254ItLz-259" style="edgeStyle=none;rounded=0;orthogonalLoop=1;jettySize=auto;html=1;entryX=0;entryY=0.5;entryDx=0;entryDy=0;" parent="1" source="Leh7SRGu1nOTf254ItLz-77" target="Leh7SRGu1nOTf254ItLz-105" edge="1">
          <mxGeometry relative="1" as="geometry" />
        </mxCell>
        <mxCell id="Leh7SRGu1nOTf254ItLz-260" style="edgeStyle=none;rounded=0;orthogonalLoop=1;jettySize=auto;html=1;entryX=0.5;entryY=0;entryDx=0;entryDy=0;" parent="1" source="Leh7SRGu1nOTf254ItLz-77" target="Leh7SRGu1nOTf254ItLz-95" edge="1">
          <mxGeometry relative="1" as="geometry" />
        </mxCell>
        <mxCell id="Leh7SRGu1nOTf254ItLz-261" style="edgeStyle=none;rounded=0;orthogonalLoop=1;jettySize=auto;html=1;entryX=0.5;entryY=0;entryDx=0;entryDy=0;" parent="1" source="Leh7SRGu1nOTf254ItLz-77" target="Leh7SRGu1nOTf254ItLz-72" edge="1">
          <mxGeometry relative="1" as="geometry" />
        </mxCell>
        <mxCell id="Leh7SRGu1nOTf254ItLz-262" style="edgeStyle=none;rounded=0;orthogonalLoop=1;jettySize=auto;html=1;entryX=0;entryY=0.5;entryDx=0;entryDy=0;" parent="1" source="Leh7SRGu1nOTf254ItLz-77" target="Leh7SRGu1nOTf254ItLz-93" edge="1">
          <mxGeometry relative="1" as="geometry" />
        </mxCell>
        <mxCell id="Leh7SRGu1nOTf254ItLz-263" style="edgeStyle=none;rounded=0;orthogonalLoop=1;jettySize=auto;html=1;entryX=1;entryY=0.5;entryDx=0;entryDy=0;" parent="1" source="Leh7SRGu1nOTf254ItLz-77" target="Leh7SRGu1nOTf254ItLz-109" edge="1">
          <mxGeometry relative="1" as="geometry" />
        </mxCell>
        <mxCell id="Leh7SRGu1nOTf254ItLz-264" style="edgeStyle=none;rounded=0;orthogonalLoop=1;jettySize=auto;html=1;entryX=0.5;entryY=0;entryDx=0;entryDy=0;" parent="1" source="Leh7SRGu1nOTf254ItLz-77" target="Leh7SRGu1nOTf254ItLz-107" edge="1">
          <mxGeometry relative="1" as="geometry" />
        </mxCell>
        <mxCell id="Leh7SRGu1nOTf254ItLz-266" style="edgeStyle=none;rounded=0;orthogonalLoop=1;jettySize=auto;html=1;entryX=0.5;entryY=0;entryDx=0;entryDy=0;" parent="1" source="Leh7SRGu1nOTf254ItLz-77" target="Leh7SRGu1nOTf254ItLz-139" edge="1">
          <mxGeometry relative="1" as="geometry" />
        </mxCell>
        <mxCell id="Leh7SRGu1nOTf254ItLz-276" style="edgeStyle=none;rounded=0;orthogonalLoop=1;jettySize=auto;html=1;entryX=0.5;entryY=0;entryDx=0;entryDy=0;dashed=1;strokeWidth=2;" parent="1" source="Leh7SRGu1nOTf254ItLz-77" target="Leh7SRGu1nOTf254ItLz-162" edge="1">
          <mxGeometry relative="1" as="geometry" />
        </mxCell>
        <mxCell id="Leh7SRGu1nOTf254ItLz-77" value="Задачи" style="rounded=0;whiteSpace=wrap;html=1;fillColor=#e1d5e7;strokeColor=#9673a6;" parent="1" vertex="1">
          <mxGeometry x="785" y="-630" width="120" height="60" as="geometry" />
        </mxCell>
        <mxCell id="Leh7SRGu1nOTf254ItLz-81" value="Классификация" style="rounded=0;whiteSpace=wrap;html=1;fillColor=#f8cecc;strokeColor=#b85450;" parent="1" vertex="1">
          <mxGeometry x="1074" y="-640" width="120" height="60" as="geometry" />
        </mxCell>
        <mxCell id="Leh7SRGu1nOTf254ItLz-83" value="Машинный перевод" style="rounded=0;whiteSpace=wrap;html=1;fillColor=#fff2cc;strokeColor=#d6b656;" parent="1" vertex="1">
          <mxGeometry x="556" y="-620" width="120" height="60" as="geometry" />
        </mxCell>
        <mxCell id="Leh7SRGu1nOTf254ItLz-85" value="Саммаризация" style="rounded=0;whiteSpace=wrap;html=1;fillColor=#fff2cc;strokeColor=#d6b656;" parent="1" vertex="1">
          <mxGeometry x="455" y="-710" width="120" height="60" as="geometry" />
        </mxCell>
        <mxCell id="Leh7SRGu1nOTf254ItLz-87" value="Парафраз" style="rounded=0;whiteSpace=wrap;html=1;fillColor=#fff2cc;strokeColor=#d6b656;" parent="1" vertex="1">
          <mxGeometry x="455" y="-810" width="120" height="60" as="geometry" />
        </mxCell>
        <mxCell id="Leh7SRGu1nOTf254ItLz-91" value="&lt;div&gt;Relation extraction&lt;/div&gt;" style="rounded=0;whiteSpace=wrap;html=1;fillColor=#d5e8d4;strokeColor=#82b366;" parent="1" vertex="1">
          <mxGeometry x="1055" y="-800" width="120" height="60" as="geometry" />
        </mxCell>
        <mxCell id="Leh7SRGu1nOTf254ItLz-93" value="Entity linking" style="rounded=0;whiteSpace=wrap;html=1;fillColor=#d5e8d4;strokeColor=#82b366;" parent="1" vertex="1">
          <mxGeometry x="1025" y="-890" width="120" height="60" as="geometry" />
        </mxCell>
        <mxCell id="Leh7SRGu1nOTf254ItLz-95" value="Информационный поиск" style="rounded=0;whiteSpace=wrap;html=1;fillColor=#d5e8d4;strokeColor=#82b366;" parent="1" vertex="1">
          <mxGeometry x="1006" y="-390" width="120" height="60" as="geometry" />
        </mxCell>
        <mxCell id="Leh7SRGu1nOTf254ItLz-97" value="&lt;div&gt;Spellcheck&lt;/div&gt;" style="rounded=0;whiteSpace=wrap;html=1;fillColor=#d5e8d4;strokeColor=#82b366;" parent="1" vertex="1">
          <mxGeometry x="1055" y="-720" width="120" height="60" as="geometry" />
        </mxCell>
        <mxCell id="Leh7SRGu1nOTf254ItLz-99" value="Языковое моделирование" style="rounded=0;whiteSpace=wrap;html=1;fillColor=#f8cecc;strokeColor=#b85450;" parent="1" vertex="1">
          <mxGeometry x="535" y="-470" width="120" height="60" as="geometry" />
        </mxCell>
        <mxCell id="Leh7SRGu1nOTf254ItLz-100" value="Морфологический разбор" style="rounded=0;whiteSpace=wrap;html=1;fillColor=#f8cecc;strokeColor=#b85450;" parent="1" vertex="1">
          <mxGeometry x="265" y="-540" width="120" height="60" as="geometry" />
        </mxCell>
        <mxCell id="Leh7SRGu1nOTf254ItLz-101" style="edgeStyle=none;rounded=0;orthogonalLoop=1;jettySize=auto;html=1;entryX=1;entryY=0.5;entryDx=0;entryDy=0;" parent="1" source="Leh7SRGu1nOTf254ItLz-74" target="Leh7SRGu1nOTf254ItLz-100" edge="1">
          <mxGeometry relative="1" as="geometry" />
        </mxCell>
        <mxCell id="Leh7SRGu1nOTf254ItLz-102" value="Синтаксичекий разбор" style="rounded=0;whiteSpace=wrap;html=1;fillColor=#f8cecc;strokeColor=#b85450;" parent="1" vertex="1">
          <mxGeometry x="275" y="-440" width="120" height="60" as="geometry" />
        </mxCell>
        <mxCell id="Leh7SRGu1nOTf254ItLz-103" style="edgeStyle=none;rounded=0;orthogonalLoop=1;jettySize=auto;html=1;entryX=1;entryY=0.5;entryDx=0;entryDy=0;" parent="1" source="Leh7SRGu1nOTf254ItLz-74" target="Leh7SRGu1nOTf254ItLz-102" edge="1">
          <mxGeometry relative="1" as="geometry" />
        </mxCell>
        <mxCell id="Leh7SRGu1nOTf254ItLz-107" value="Построение графов/баз знаний" style="rounded=0;whiteSpace=wrap;html=1;fillColor=#d5e8d4;strokeColor=#82b366;" parent="1" vertex="1">
          <mxGeometry x="985" y="-297" width="120" height="60" as="geometry" />
        </mxCell>
        <mxCell id="Leh7SRGu1nOTf254ItLz-109" value="Opinion mining" style="rounded=0;whiteSpace=wrap;html=1;fillColor=#d5e8d4;strokeColor=#82b366;" parent="1" vertex="1">
          <mxGeometry x="546" y="-290" width="120" height="60" as="geometry" />
        </mxCell>
        <mxCell id="Leh7SRGu1nOTf254ItLz-75" value="&lt;div&gt;Раскрытие кореференции&lt;/div&gt;" style="rounded=0;whiteSpace=wrap;html=1;fillColor=#d5e8d4;strokeColor=#82b366;" parent="1" vertex="1">
          <mxGeometry x="1075" y="-550" width="120" height="60" as="geometry" />
        </mxCell>
        <mxCell id="Leh7SRGu1nOTf254ItLz-105" value="Вопросно-ответные системы" style="rounded=0;whiteSpace=wrap;html=1;fillColor=#fff2cc;strokeColor=#d6b656;" parent="1" vertex="1">
          <mxGeometry x="1045" y="-470" width="120" height="60" as="geometry" />
        </mxCell>
        <mxCell id="9njE5YXKI5ZjP3QFqYLR-6" style="rounded=0;orthogonalLoop=1;jettySize=auto;html=1;entryX=0;entryY=0.5;entryDx=0;entryDy=0;" edge="1" parent="1" source="Leh7SRGu1nOTf254ItLz-154" target="9njE5YXKI5ZjP3QFqYLR-5">
          <mxGeometry relative="1" as="geometry" />
        </mxCell>
        <mxCell id="Leh7SRGu1nOTf254ItLz-154" value="&lt;div&gt;Transformer&lt;/div&gt;" style="rounded=0;whiteSpace=wrap;html=1;fillColor=#f8cecc;strokeColor=#b85450;" parent="1" vertex="1">
          <mxGeometry x="675" y="480" width="120" height="60" as="geometry" />
        </mxCell>
        <mxCell id="Leh7SRGu1nOTf254ItLz-155" value="&lt;div&gt;BERT&lt;/div&gt;" style="rounded=0;whiteSpace=wrap;html=1;fillColor=#f8cecc;strokeColor=#b85450;" parent="1" vertex="1">
          <mxGeometry x="755" y="579" width="120" height="60" as="geometry" />
        </mxCell>
        <mxCell id="Leh7SRGu1nOTf254ItLz-156" style="edgeStyle=none;rounded=0;orthogonalLoop=1;jettySize=auto;html=1;entryX=0.5;entryY=0;entryDx=0;entryDy=0;entryPerimeter=0;fillColor=#f8cecc;strokeColor=#000000;" parent="1" source="Leh7SRGu1nOTf254ItLz-154" target="Leh7SRGu1nOTf254ItLz-155" edge="1">
          <mxGeometry relative="1" as="geometry" />
        </mxCell>
        <mxCell id="Leh7SRGu1nOTf254ItLz-157" value="ELMo" style="rounded=0;whiteSpace=wrap;html=1;fillColor=#f8cecc;strokeColor=#b85450;" parent="1" vertex="1">
          <mxGeometry x="615" y="370" width="120" height="60" as="geometry" />
        </mxCell>
        <mxCell id="Leh7SRGu1nOTf254ItLz-158" value="Бертология" style="rounded=0;whiteSpace=wrap;html=1;fillColor=#f8cecc;strokeColor=#b85450;" parent="1" vertex="1">
          <mxGeometry x="845" y="700" width="120" height="60" as="geometry" />
        </mxCell>
        <mxCell id="Leh7SRGu1nOTf254ItLz-159" style="edgeStyle=none;rounded=0;orthogonalLoop=1;jettySize=auto;html=1;entryX=0.5;entryY=0;entryDx=0;entryDy=0;fillColor=#f8cecc;strokeColor=default;" parent="1" source="Leh7SRGu1nOTf254ItLz-155" target="Leh7SRGu1nOTf254ItLz-158" edge="1">
          <mxGeometry relative="1" as="geometry" />
        </mxCell>
        <mxCell id="Leh7SRGu1nOTf254ItLz-160" style="edgeStyle=none;rounded=0;orthogonalLoop=1;jettySize=auto;html=1;entryX=0.5;entryY=0;entryDx=0;entryDy=0;fillColor=#f8cecc;strokeColor=default;" parent="1" source="Leh7SRGu1nOTf254ItLz-161" target="Leh7SRGu1nOTf254ItLz-154" edge="1">
          <mxGeometry relative="1" as="geometry" />
        </mxCell>
        <mxCell id="Leh7SRGu1nOTf254ItLz-280" style="edgeStyle=none;rounded=0;orthogonalLoop=1;jettySize=auto;html=1;entryX=0.5;entryY=0;entryDx=0;entryDy=0;strokeWidth=1;" parent="1" source="Leh7SRGu1nOTf254ItLz-162" target="Leh7SRGu1nOTf254ItLz-183" edge="1">
          <mxGeometry relative="1" as="geometry" />
        </mxCell>
        <mxCell id="Leh7SRGu1nOTf254ItLz-281" style="edgeStyle=none;rounded=0;orthogonalLoop=1;jettySize=auto;html=1;entryX=0.5;entryY=0;entryDx=0;entryDy=0;strokeWidth=1;" parent="1" source="Leh7SRGu1nOTf254ItLz-162" target="Leh7SRGu1nOTf254ItLz-191" edge="1">
          <mxGeometry relative="1" as="geometry" />
        </mxCell>
        <mxCell id="n_Ey5d912pa_Kn3GJEkr-13" style="edgeStyle=none;rounded=0;orthogonalLoop=1;jettySize=auto;html=1;entryX=0.5;entryY=0;entryDx=0;entryDy=0;strokeWidth=2;dashed=1;" edge="1" parent="1" source="Leh7SRGu1nOTf254ItLz-162" target="9njE5YXKI5ZjP3QFqYLR-1">
          <mxGeometry relative="1" as="geometry" />
        </mxCell>
        <mxCell id="n_Ey5d912pa_Kn3GJEkr-14" style="edgeStyle=none;rounded=0;orthogonalLoop=1;jettySize=auto;html=1;entryX=0.5;entryY=0;entryDx=0;entryDy=0;strokeWidth=2;dashed=1;" edge="1" parent="1" source="Leh7SRGu1nOTf254ItLz-162" target="n_Ey5d912pa_Kn3GJEkr-1">
          <mxGeometry relative="1" as="geometry" />
        </mxCell>
        <mxCell id="Leh7SRGu1nOTf254ItLz-162" value="Нейросети" style="rounded=0;whiteSpace=wrap;html=1;fillColor=#e1d5e7;strokeColor=#9673a6;" parent="1" vertex="1">
          <mxGeometry x="761" y="-80" width="120" height="60" as="geometry" />
        </mxCell>
        <mxCell id="Leh7SRGu1nOTf254ItLz-163" style="edgeStyle=none;rounded=0;orthogonalLoop=1;jettySize=auto;html=1;entryX=0.5;entryY=0;entryDx=0;entryDy=0;fillColor=#f8cecc;strokeColor=default;" parent="1" source="Leh7SRGu1nOTf254ItLz-164" target="Leh7SRGu1nOTf254ItLz-161" edge="1">
          <mxGeometry relative="1" as="geometry" />
        </mxCell>
        <mxCell id="Leh7SRGu1nOTf254ItLz-165" style="edgeStyle=none;rounded=0;orthogonalLoop=1;jettySize=auto;html=1;entryX=0.5;entryY=0;entryDx=0;entryDy=0;fillColor=#f8cecc;strokeColor=default;" parent="1" source="Leh7SRGu1nOTf254ItLz-192" target="Leh7SRGu1nOTf254ItLz-157" edge="1">
          <mxGeometry relative="1" as="geometry" />
        </mxCell>
        <mxCell id="Leh7SRGu1nOTf254ItLz-166" style="edgeStyle=none;rounded=0;orthogonalLoop=1;jettySize=auto;html=1;entryX=0.5;entryY=0;entryDx=0;entryDy=0;fillColor=#f8cecc;strokeColor=default;" parent="1" source="Leh7SRGu1nOTf254ItLz-167" target="Leh7SRGu1nOTf254ItLz-157" edge="1">
          <mxGeometry relative="1" as="geometry" />
        </mxCell>
        <mxCell id="Leh7SRGu1nOTf254ItLz-267" style="edgeStyle=none;rounded=0;orthogonalLoop=1;jettySize=auto;html=1;entryX=0.5;entryY=0;entryDx=0;entryDy=0;fillColor=#f8cecc;strokeColor=default;" parent="1" source="Leh7SRGu1nOTf254ItLz-168" target="Leh7SRGu1nOTf254ItLz-243" edge="1">
          <mxGeometry relative="1" as="geometry" />
        </mxCell>
        <mxCell id="Leh7SRGu1nOTf254ItLz-168" value="FFN" style="rounded=0;whiteSpace=wrap;html=1;fillColor=#f8cecc;strokeColor=#b85450;" parent="1" vertex="1">
          <mxGeometry x="915" y="110" width="120" height="60" as="geometry" />
        </mxCell>
        <mxCell id="Leh7SRGu1nOTf254ItLz-169" style="edgeStyle=none;rounded=0;orthogonalLoop=1;jettySize=auto;html=1;entryX=0.5;entryY=0;entryDx=0;entryDy=0;fillColor=#f8cecc;strokeColor=default;" parent="1" source="Leh7SRGu1nOTf254ItLz-170" target="Leh7SRGu1nOTf254ItLz-164" edge="1">
          <mxGeometry relative="1" as="geometry" />
        </mxCell>
        <mxCell id="Leh7SRGu1nOTf254ItLz-170" value="RNN" style="rounded=0;whiteSpace=wrap;html=1;fillColor=#f8cecc;strokeColor=#b85450;" parent="1" vertex="1">
          <mxGeometry x="575" y="150" width="120" height="60" as="geometry" />
        </mxCell>
        <mxCell id="Leh7SRGu1nOTf254ItLz-171" value="GPT" style="rounded=0;whiteSpace=wrap;html=1;fillColor=#f8cecc;strokeColor=#b85450;" parent="1" vertex="1">
          <mxGeometry x="575" y="607" width="120" height="60" as="geometry" />
        </mxCell>
        <mxCell id="Leh7SRGu1nOTf254ItLz-172" style="edgeStyle=none;rounded=0;orthogonalLoop=1;jettySize=auto;html=1;entryX=0.5;entryY=0;entryDx=0;entryDy=0;fillColor=#f8cecc;strokeColor=default;" parent="1" source="Leh7SRGu1nOTf254ItLz-154" target="Leh7SRGu1nOTf254ItLz-171" edge="1">
          <mxGeometry relative="1" as="geometry" />
        </mxCell>
        <mxCell id="Leh7SRGu1nOTf254ItLz-195" style="rounded=0;orthogonalLoop=1;jettySize=auto;html=1;entryX=0.5;entryY=0;entryDx=0;entryDy=0;fillColor=#f8cecc;strokeColor=default;" parent="1" source="Leh7SRGu1nOTf254ItLz-173" target="Leh7SRGu1nOTf254ItLz-177" edge="1">
          <mxGeometry relative="1" as="geometry" />
        </mxCell>
        <mxCell id="Leh7SRGu1nOTf254ItLz-197" style="edgeStyle=none;rounded=0;orthogonalLoop=1;jettySize=auto;html=1;entryX=0.5;entryY=0;entryDx=0;entryDy=0;fillColor=#f8cecc;strokeColor=default;" parent="1" source="Leh7SRGu1nOTf254ItLz-173" target="Leh7SRGu1nOTf254ItLz-179" edge="1">
          <mxGeometry relative="1" as="geometry" />
        </mxCell>
        <mxCell id="Leh7SRGu1nOTf254ItLz-173" value="Transfer learning" style="rounded=0;whiteSpace=wrap;html=1;fillColor=#f8cecc;strokeColor=#b85450;" parent="1" vertex="1">
          <mxGeometry x="675" y="720" width="120" height="60" as="geometry" />
        </mxCell>
        <mxCell id="Leh7SRGu1nOTf254ItLz-174" style="edgeStyle=none;rounded=0;orthogonalLoop=1;jettySize=auto;html=1;entryX=0.5;entryY=0;entryDx=0;entryDy=0;fillColor=#f8cecc;strokeColor=#000000;" parent="1" source="Leh7SRGu1nOTf254ItLz-155" target="Leh7SRGu1nOTf254ItLz-173" edge="1">
          <mxGeometry relative="1" as="geometry">
            <mxPoint x="75" y="504" as="targetPoint" />
          </mxGeometry>
        </mxCell>
        <mxCell id="Leh7SRGu1nOTf254ItLz-175" style="edgeStyle=none;rounded=0;orthogonalLoop=1;jettySize=auto;html=1;entryX=0.5;entryY=0;entryDx=0;entryDy=0;fillColor=#f8cecc;strokeColor=default;" parent="1" source="Leh7SRGu1nOTf254ItLz-171" target="Leh7SRGu1nOTf254ItLz-173" edge="1">
          <mxGeometry relative="1" as="geometry" />
        </mxCell>
        <mxCell id="Leh7SRGu1nOTf254ItLz-177" value="Pretraining" style="rounded=0;whiteSpace=wrap;html=1;fillColor=#f8cecc;strokeColor=#b85450;" parent="1" vertex="1">
          <mxGeometry x="765" y="830" width="120" height="60" as="geometry" />
        </mxCell>
        <mxCell id="Leh7SRGu1nOTf254ItLz-179" value="Fine-tuning" style="rounded=0;whiteSpace=wrap;html=1;fillColor=#f8cecc;strokeColor=#b85450;" parent="1" vertex="1">
          <mxGeometry x="595" y="830" width="120" height="60" as="geometry" />
        </mxCell>
        <mxCell id="Leh7SRGu1nOTf254ItLz-180" value="GRU" style="rounded=0;whiteSpace=wrap;html=1;fillColor=#fff2cc;strokeColor=#d6b656;" parent="1" vertex="1">
          <mxGeometry x="615" y="230" width="120" height="60" as="geometry" />
        </mxCell>
        <mxCell id="Leh7SRGu1nOTf254ItLz-181" style="edgeStyle=none;rounded=0;orthogonalLoop=1;jettySize=auto;html=1;entryX=0.5;entryY=0;entryDx=0;entryDy=0;fillColor=#f8cecc;strokeColor=default;" parent="1" source="Leh7SRGu1nOTf254ItLz-170" target="Leh7SRGu1nOTf254ItLz-180" edge="1">
          <mxGeometry relative="1" as="geometry" />
        </mxCell>
        <mxCell id="Leh7SRGu1nOTf254ItLz-183" value="Оптимизация гиперпараметров" style="rounded=0;whiteSpace=wrap;html=1;fillColor=#f8cecc;strokeColor=#b85450;" parent="1" vertex="1">
          <mxGeometry x="625" y="-7" width="120" height="60" as="geometry" />
        </mxCell>
        <mxCell id="Leh7SRGu1nOTf254ItLz-184" style="edgeStyle=none;rounded=0;orthogonalLoop=1;jettySize=auto;html=1;entryX=0.5;entryY=0;entryDx=0;entryDy=0;fillColor=#f8cecc;strokeColor=default;" parent="1" source="Leh7SRGu1nOTf254ItLz-188" target="Leh7SRGu1nOTf254ItLz-168" edge="1">
          <mxGeometry relative="1" as="geometry" />
        </mxCell>
        <mxCell id="Leh7SRGu1nOTf254ItLz-185" style="edgeStyle=none;rounded=0;orthogonalLoop=1;jettySize=auto;html=1;entryX=0.5;entryY=0;entryDx=0;entryDy=0;fillColor=#f8cecc;strokeColor=default;" parent="1" source="Leh7SRGu1nOTf254ItLz-188" target="Leh7SRGu1nOTf254ItLz-154" edge="1">
          <mxGeometry relative="1" as="geometry" />
        </mxCell>
        <mxCell id="Leh7SRGu1nOTf254ItLz-186" style="edgeStyle=none;rounded=0;orthogonalLoop=1;jettySize=auto;html=1;entryX=0.5;entryY=0;entryDx=0;entryDy=0;fillColor=#f8cecc;strokeColor=#000000;" parent="1" source="Leh7SRGu1nOTf254ItLz-188" target="Leh7SRGu1nOTf254ItLz-167" edge="1">
          <mxGeometry relative="1" as="geometry" />
        </mxCell>
        <mxCell id="Leh7SRGu1nOTf254ItLz-187" style="edgeStyle=none;rounded=0;orthogonalLoop=1;jettySize=auto;html=1;entryX=0.5;entryY=0;entryDx=0;entryDy=0;fillColor=#f8cecc;strokeColor=default;" parent="1" source="Leh7SRGu1nOTf254ItLz-188" target="Leh7SRGu1nOTf254ItLz-170" edge="1">
          <mxGeometry relative="1" as="geometry" />
        </mxCell>
        <mxCell id="Leh7SRGu1nOTf254ItLz-188" value="Архитектуры" style="rounded=0;whiteSpace=wrap;html=1;fillColor=#f8cecc;strokeColor=#b85450;" parent="1" vertex="1">
          <mxGeometry x="765" y="40" width="120" height="60" as="geometry" />
        </mxCell>
        <mxCell id="Leh7SRGu1nOTf254ItLz-189" style="rounded=0;orthogonalLoop=1;jettySize=auto;html=1;entryX=0.5;entryY=0;entryDx=0;entryDy=0;" parent="1" source="Leh7SRGu1nOTf254ItLz-162" target="Leh7SRGu1nOTf254ItLz-188" edge="1">
          <mxGeometry relative="1" as="geometry" />
        </mxCell>
        <mxCell id="Leh7SRGu1nOTf254ItLz-191" value="Алгоритм back propagation" style="rounded=0;whiteSpace=wrap;html=1;fillColor=#f8cecc;strokeColor=#b85450;" parent="1" vertex="1">
          <mxGeometry x="915" width="120" height="60" as="geometry" />
        </mxCell>
        <mxCell id="Leh7SRGu1nOTf254ItLz-192" value="LSTM" style="rounded=0;whiteSpace=wrap;html=1;fillColor=#f8cecc;strokeColor=#b85450;" parent="1" vertex="1">
          <mxGeometry x="435" y="220" width="120" height="60" as="geometry" />
        </mxCell>
        <mxCell id="Leh7SRGu1nOTf254ItLz-193" style="edgeStyle=none;rounded=0;orthogonalLoop=1;jettySize=auto;html=1;entryX=0.5;entryY=0;entryDx=0;entryDy=0;fillColor=#f8cecc;strokeColor=default;" parent="1" source="Leh7SRGu1nOTf254ItLz-170" target="Leh7SRGu1nOTf254ItLz-192" edge="1">
          <mxGeometry relative="1" as="geometry" />
        </mxCell>
        <mxCell id="Leh7SRGu1nOTf254ItLz-167" value="CNN" style="rounded=0;whiteSpace=wrap;html=1;fillColor=#f8cecc;strokeColor=#b85450;" parent="1" vertex="1">
          <mxGeometry x="735" y="160" width="120" height="60" as="geometry" />
        </mxCell>
        <mxCell id="Leh7SRGu1nOTf254ItLz-164" value="Seq2seq" style="rounded=0;whiteSpace=wrap;html=1;fillColor=#f8cecc;strokeColor=#b85450;" parent="1" vertex="1">
          <mxGeometry x="475" y="320" width="120" height="60" as="geometry" />
        </mxCell>
        <mxCell id="Leh7SRGu1nOTf254ItLz-221" style="edgeStyle=none;rounded=0;orthogonalLoop=1;jettySize=auto;html=1;entryX=0;entryY=0.5;entryDx=0;entryDy=0;fillColor=#f8cecc;strokeColor=#b85450;" parent="1" source="Leh7SRGu1nOTf254ItLz-129" target="Leh7SRGu1nOTf254ItLz-220" edge="1">
          <mxGeometry relative="1" as="geometry" />
        </mxCell>
        <mxCell id="Leh7SRGu1nOTf254ItLz-129" value="Кластеризация" style="rounded=0;whiteSpace=wrap;html=1;fillColor=#f8cecc;strokeColor=#b85450;" parent="1" vertex="1">
          <mxGeometry x="1195" y="-1840" width="120" height="60" as="geometry" />
        </mxCell>
        <mxCell id="Leh7SRGu1nOTf254ItLz-247" style="edgeStyle=none;rounded=0;orthogonalLoop=1;jettySize=auto;html=1;entryX=1;entryY=0.5;entryDx=0;entryDy=0;" parent="1" source="Leh7SRGu1nOTf254ItLz-131" target="Leh7SRGu1nOTf254ItLz-138" edge="1">
          <mxGeometry relative="1" as="geometry" />
        </mxCell>
        <mxCell id="Leh7SRGu1nOTf254ItLz-248" style="edgeStyle=none;rounded=0;orthogonalLoop=1;jettySize=auto;html=1;entryX=1;entryY=0.5;entryDx=0;entryDy=0;" parent="1" source="Leh7SRGu1nOTf254ItLz-131" target="Leh7SRGu1nOTf254ItLz-136" edge="1">
          <mxGeometry relative="1" as="geometry" />
        </mxCell>
        <mxCell id="Leh7SRGu1nOTf254ItLz-249" style="edgeStyle=none;rounded=0;orthogonalLoop=1;jettySize=auto;html=1;entryX=1;entryY=0.5;entryDx=0;entryDy=0;" parent="1" source="Leh7SRGu1nOTf254ItLz-131" target="Leh7SRGu1nOTf254ItLz-114" edge="1">
          <mxGeometry relative="1" as="geometry" />
        </mxCell>
        <mxCell id="Leh7SRGu1nOTf254ItLz-131" value="Тематическое моделирование" style="rounded=0;whiteSpace=wrap;html=1;fillColor=#f8cecc;strokeColor=#b85450;" parent="1" vertex="1">
          <mxGeometry x="606" y="-1055" width="120" height="60" as="geometry" />
        </mxCell>
        <mxCell id="Leh7SRGu1nOTf254ItLz-136" value="LDA" style="rounded=0;whiteSpace=wrap;html=1;fillColor=#f8cecc;strokeColor=#b85450;" parent="1" vertex="1">
          <mxGeometry x="445" y="-1030" width="120" height="60" as="geometry" />
        </mxCell>
        <mxCell id="Leh7SRGu1nOTf254ItLz-138" value="GSDMM" style="rounded=0;whiteSpace=wrap;html=1;fillColor=#fff2cc;strokeColor=#d6b656;" parent="1" vertex="1">
          <mxGeometry x="445" y="-1130" width="120" height="60" as="geometry" />
        </mxCell>
        <mxCell id="Leh7SRGu1nOTf254ItLz-139" value="Диалоговые системы" style="rounded=0;whiteSpace=wrap;html=1;fillColor=#fff2cc;strokeColor=#d6b656;" parent="1" vertex="1">
          <mxGeometry x="945" y="-220" width="120" height="60" as="geometry" />
        </mxCell>
        <mxCell id="Leh7SRGu1nOTf254ItLz-215" style="edgeStyle=none;rounded=0;orthogonalLoop=1;jettySize=auto;html=1;entryX=1;entryY=0.5;entryDx=0;entryDy=0;fillColor=#f8cecc;strokeColor=#b85450;" parent="1" source="Leh7SRGu1nOTf254ItLz-199" target="Leh7SRGu1nOTf254ItLz-213" edge="1">
          <mxGeometry relative="1" as="geometry" />
        </mxCell>
        <mxCell id="Leh7SRGu1nOTf254ItLz-217" style="edgeStyle=none;rounded=0;orthogonalLoop=1;jettySize=auto;html=1;entryX=1;entryY=0.5;entryDx=0;entryDy=0;fillColor=#f8cecc;strokeColor=#b85450;" parent="1" source="Leh7SRGu1nOTf254ItLz-199" target="Leh7SRGu1nOTf254ItLz-214" edge="1">
          <mxGeometry relative="1" as="geometry" />
        </mxCell>
        <mxCell id="Leh7SRGu1nOTf254ItLz-199" value="Обучение с учителем" style="rounded=0;whiteSpace=wrap;html=1;fillColor=#f8cecc;strokeColor=#b85450;" parent="1" vertex="1">
          <mxGeometry x="585" y="-1800" width="120" height="60" as="geometry" />
        </mxCell>
        <mxCell id="Leh7SRGu1nOTf254ItLz-207" style="edgeStyle=none;rounded=0;orthogonalLoop=1;jettySize=auto;html=1;entryX=0;entryY=0.5;entryDx=0;entryDy=0;fillColor=#f8cecc;strokeColor=#b85450;" parent="1" source="Leh7SRGu1nOTf254ItLz-200" target="Leh7SRGu1nOTf254ItLz-129" edge="1">
          <mxGeometry relative="1" as="geometry" />
        </mxCell>
        <mxCell id="Leh7SRGu1nOTf254ItLz-200" value="Обучение без учителя" style="rounded=0;whiteSpace=wrap;html=1;fillColor=#f8cecc;strokeColor=#b85450;" parent="1" vertex="1">
          <mxGeometry x="979" y="-1820" width="120" height="60" as="geometry" />
        </mxCell>
        <mxCell id="Leh7SRGu1nOTf254ItLz-203" style="edgeStyle=none;rounded=0;orthogonalLoop=1;jettySize=auto;html=1;entryX=1;entryY=0.5;entryDx=0;entryDy=0;fillColor=#f8cecc;strokeColor=#b85450;" parent="1" source="Leh7SRGu1nOTf254ItLz-201" target="Leh7SRGu1nOTf254ItLz-202" edge="1">
          <mxGeometry relative="1" as="geometry" />
        </mxCell>
        <mxCell id="Leh7SRGu1nOTf254ItLz-205" style="edgeStyle=none;rounded=0;orthogonalLoop=1;jettySize=auto;html=1;entryX=1;entryY=0.5;entryDx=0;entryDy=0;fillColor=#f8cecc;strokeColor=#b85450;" parent="1" source="Leh7SRGu1nOTf254ItLz-201" target="Leh7SRGu1nOTf254ItLz-204" edge="1">
          <mxGeometry relative="1" as="geometry" />
        </mxCell>
        <mxCell id="Leh7SRGu1nOTf254ItLz-201" value="Ансамбли моделей" style="rounded=0;whiteSpace=wrap;html=1;fillColor=#f8cecc;strokeColor=#b85450;" parent="1" vertex="1">
          <mxGeometry x="559" y="-1650" width="120" height="60" as="geometry" />
        </mxCell>
        <mxCell id="Leh7SRGu1nOTf254ItLz-227" style="edgeStyle=none;rounded=0;orthogonalLoop=1;jettySize=auto;html=1;entryX=1;entryY=0.5;entryDx=0;entryDy=0;fillColor=#f8cecc;strokeColor=#b85450;" parent="1" source="Leh7SRGu1nOTf254ItLz-202" target="Leh7SRGu1nOTf254ItLz-223" edge="1">
          <mxGeometry relative="1" as="geometry" />
        </mxCell>
        <mxCell id="Leh7SRGu1nOTf254ItLz-202" value="Беггинг" style="rounded=0;whiteSpace=wrap;html=1;fillColor=#f8cecc;strokeColor=#b85450;" parent="1" vertex="1">
          <mxGeometry x="355" y="-1700" width="120" height="60" as="geometry" />
        </mxCell>
        <mxCell id="Leh7SRGu1nOTf254ItLz-226" style="edgeStyle=none;rounded=0;orthogonalLoop=1;jettySize=auto;html=1;entryX=1;entryY=0.5;entryDx=0;entryDy=0;fillColor=#f8cecc;strokeColor=#b85450;" parent="1" source="Leh7SRGu1nOTf254ItLz-204" target="Leh7SRGu1nOTf254ItLz-224" edge="1">
          <mxGeometry relative="1" as="geometry" />
        </mxCell>
        <mxCell id="Leh7SRGu1nOTf254ItLz-204" value="Бустинг" style="rounded=0;whiteSpace=wrap;html=1;fillColor=#f8cecc;strokeColor=#b85450;" parent="1" vertex="1">
          <mxGeometry x="355" y="-1600" width="120" height="60" as="geometry" />
        </mxCell>
        <mxCell id="Leh7SRGu1nOTf254ItLz-143" value="Метрики" style="rounded=0;whiteSpace=wrap;html=1;direction=east;fillColor=#f8cecc;strokeColor=#b85450;" parent="1" vertex="1">
          <mxGeometry x="985" y="-1700" width="120" height="60" as="geometry" />
        </mxCell>
        <mxCell id="Leh7SRGu1nOTf254ItLz-144" value="ROC AUC" style="rounded=0;whiteSpace=wrap;html=1;direction=east;fillColor=#f8cecc;strokeColor=#b85450;" parent="1" vertex="1">
          <mxGeometry x="1195" y="-1590" width="120" height="60" as="geometry" />
        </mxCell>
        <mxCell id="Leh7SRGu1nOTf254ItLz-145" value="F1 Score" style="rounded=0;whiteSpace=wrap;html=1;direction=east;fillColor=#f8cecc;strokeColor=#b85450;" parent="1" vertex="1">
          <mxGeometry x="1375" y="-1720" width="120" height="60" as="geometry" />
        </mxCell>
        <mxCell id="Leh7SRGu1nOTf254ItLz-146" value="Recall" style="rounded=0;whiteSpace=wrap;html=1;direction=east;fillColor=#f8cecc;strokeColor=#b85450;" parent="1" vertex="1">
          <mxGeometry x="1195" y="-1750" width="120" height="60" as="geometry" />
        </mxCell>
        <mxCell id="Leh7SRGu1nOTf254ItLz-147" value="Precision" style="rounded=0;whiteSpace=wrap;html=1;direction=east;fillColor=#f8cecc;strokeColor=#b85450;" parent="1" vertex="1">
          <mxGeometry x="1195" y="-1670" width="120" height="60" as="geometry" />
        </mxCell>
        <mxCell id="Leh7SRGu1nOTf254ItLz-148" style="edgeStyle=none;rounded=0;orthogonalLoop=1;jettySize=auto;html=1;entryX=0;entryY=0.5;entryDx=0;entryDy=0;fillColor=#f8cecc;strokeColor=#b85450;" parent="1" source="Leh7SRGu1nOTf254ItLz-143" target="Leh7SRGu1nOTf254ItLz-144" edge="1">
          <mxGeometry relative="1" as="geometry" />
        </mxCell>
        <mxCell id="Leh7SRGu1nOTf254ItLz-149" style="edgeStyle=none;rounded=0;orthogonalLoop=1;jettySize=auto;html=1;entryX=0;entryY=0.5;entryDx=0;entryDy=0;fillColor=#f8cecc;strokeColor=#b85450;" parent="1" source="Leh7SRGu1nOTf254ItLz-143" target="Leh7SRGu1nOTf254ItLz-146" edge="1">
          <mxGeometry relative="1" as="geometry" />
        </mxCell>
        <mxCell id="Leh7SRGu1nOTf254ItLz-150" style="edgeStyle=none;rounded=0;orthogonalLoop=1;jettySize=auto;html=1;entryX=0;entryY=0.5;entryDx=0;entryDy=0;fillColor=#f8cecc;strokeColor=#b85450;" parent="1" source="Leh7SRGu1nOTf254ItLz-146" target="Leh7SRGu1nOTf254ItLz-145" edge="1">
          <mxGeometry relative="1" as="geometry" />
        </mxCell>
        <mxCell id="Leh7SRGu1nOTf254ItLz-151" style="edgeStyle=none;rounded=0;orthogonalLoop=1;jettySize=auto;html=1;entryX=0;entryY=0.5;entryDx=0;entryDy=0;fillColor=#f8cecc;strokeColor=#b85450;" parent="1" source="Leh7SRGu1nOTf254ItLz-143" target="Leh7SRGu1nOTf254ItLz-147" edge="1">
          <mxGeometry relative="1" as="geometry" />
        </mxCell>
        <mxCell id="Leh7SRGu1nOTf254ItLz-152" style="edgeStyle=none;rounded=0;orthogonalLoop=1;jettySize=auto;html=1;entryX=0;entryY=0.5;entryDx=0;entryDy=0;fillColor=#f8cecc;strokeColor=#b85450;" parent="1" source="Leh7SRGu1nOTf254ItLz-147" target="Leh7SRGu1nOTf254ItLz-145" edge="1">
          <mxGeometry relative="1" as="geometry" />
        </mxCell>
        <mxCell id="Leh7SRGu1nOTf254ItLz-211" value="Компромис смещения и разброса" style="rounded=0;whiteSpace=wrap;html=1;fillColor=#f8cecc;strokeColor=#b85450;" parent="1" vertex="1">
          <mxGeometry x="1145" y="-1510" width="120" height="60" as="geometry" />
        </mxCell>
        <mxCell id="Leh7SRGu1nOTf254ItLz-228" style="edgeStyle=none;rounded=0;orthogonalLoop=1;jettySize=auto;html=1;entryX=1;entryY=0.5;entryDx=0;entryDy=0;fillColor=#f8cecc;strokeColor=#b85450;" parent="1" source="Leh7SRGu1nOTf254ItLz-213" target="Leh7SRGu1nOTf254ItLz-222" edge="1">
          <mxGeometry relative="1" as="geometry" />
        </mxCell>
        <mxCell id="Leh7SRGu1nOTf254ItLz-230" style="edgeStyle=none;rounded=0;orthogonalLoop=1;jettySize=auto;html=1;entryX=1;entryY=0.5;entryDx=0;entryDy=0;fillColor=#f8cecc;strokeColor=#b85450;" parent="1" source="Leh7SRGu1nOTf254ItLz-213" target="Leh7SRGu1nOTf254ItLz-229" edge="1">
          <mxGeometry relative="1" as="geometry" />
        </mxCell>
        <mxCell id="Leh7SRGu1nOTf254ItLz-213" value="Классификация" style="rounded=0;whiteSpace=wrap;html=1;fillColor=#f8cecc;strokeColor=#b85450;" parent="1" vertex="1">
          <mxGeometry x="385" y="-1870" width="120" height="60" as="geometry" />
        </mxCell>
        <mxCell id="Leh7SRGu1nOTf254ItLz-232" style="edgeStyle=none;rounded=0;orthogonalLoop=1;jettySize=auto;html=1;entryX=1;entryY=0.5;entryDx=0;entryDy=0;fillColor=#f8cecc;strokeColor=#b85450;" parent="1" source="Leh7SRGu1nOTf254ItLz-214" target="Leh7SRGu1nOTf254ItLz-231" edge="1">
          <mxGeometry relative="1" as="geometry" />
        </mxCell>
        <mxCell id="Leh7SRGu1nOTf254ItLz-214" value="Регрессия" style="rounded=0;whiteSpace=wrap;html=1;fillColor=#f8cecc;strokeColor=#b85450;" parent="1" vertex="1">
          <mxGeometry x="385" y="-1790" width="120" height="60" as="geometry" />
        </mxCell>
        <mxCell id="Leh7SRGu1nOTf254ItLz-218" value="Регуляризация" style="rounded=0;whiteSpace=wrap;html=1;fillColor=#f8cecc;strokeColor=#b85450;" parent="1" vertex="1">
          <mxGeometry x="565" y="-1540" width="120" height="60" as="geometry" />
        </mxCell>
        <mxCell id="Leh7SRGu1nOTf254ItLz-220" value="k-means" style="rounded=0;whiteSpace=wrap;html=1;fillColor=#f8cecc;strokeColor=#b85450;" parent="1" vertex="1">
          <mxGeometry x="1395" y="-1870" width="120" height="60" as="geometry" />
        </mxCell>
        <mxCell id="Leh7SRGu1nOTf254ItLz-222" value="SVM" style="rounded=0;whiteSpace=wrap;html=1;fillColor=#f8cecc;strokeColor=#b85450;" parent="1" vertex="1">
          <mxGeometry x="225" y="-1990" width="120" height="60" as="geometry" />
        </mxCell>
        <mxCell id="Leh7SRGu1nOTf254ItLz-223" value="Случайный лес" style="rounded=0;whiteSpace=wrap;html=1;fillColor=#f8cecc;strokeColor=#b85450;" parent="1" vertex="1">
          <mxGeometry x="190" y="-1707" width="120" height="60" as="geometry" />
        </mxCell>
        <mxCell id="Leh7SRGu1nOTf254ItLz-224" value="Градиетный бустинг" style="rounded=0;whiteSpace=wrap;html=1;fillColor=#f8cecc;strokeColor=#b85450;" parent="1" vertex="1">
          <mxGeometry x="190" y="-1560" width="120" height="60" as="geometry" />
        </mxCell>
        <mxCell id="Leh7SRGu1nOTf254ItLz-229" value="Логистическая регрессия" style="rounded=0;whiteSpace=wrap;html=1;fillColor=#f8cecc;strokeColor=#b85450;" parent="1" vertex="1">
          <mxGeometry x="215" y="-1910" width="120" height="60" as="geometry" />
        </mxCell>
        <mxCell id="Leh7SRGu1nOTf254ItLz-231" value="Линейная регрессия" style="rounded=0;whiteSpace=wrap;html=1;fillColor=#f8cecc;strokeColor=#b85450;" parent="1" vertex="1">
          <mxGeometry x="205" y="-1820" width="120" height="60" as="geometry" />
        </mxCell>
        <mxCell id="Leh7SRGu1nOTf254ItLz-235" style="edgeStyle=none;rounded=0;orthogonalLoop=1;jettySize=auto;html=1;entryX=0;entryY=0.5;entryDx=0;entryDy=0;fillColor=#f8cecc;strokeColor=#b85450;" parent="1" source="Leh7SRGu1nOTf254ItLz-233" target="Leh7SRGu1nOTf254ItLz-211" edge="1">
          <mxGeometry relative="1" as="geometry" />
        </mxCell>
        <mxCell id="Leh7SRGu1nOTf254ItLz-236" value="Валидация" style="rounded=0;whiteSpace=wrap;html=1;fillColor=#f8cecc;strokeColor=#b85450;" parent="1" vertex="1">
          <mxGeometry x="965" y="-1494" width="120" height="60" as="geometry" />
        </mxCell>
        <mxCell id="Leh7SRGu1nOTf254ItLz-233" value="Смещение и разброс" style="rounded=0;whiteSpace=wrap;html=1;fillColor=#f8cecc;strokeColor=#b85450;" parent="1" vertex="1">
          <mxGeometry x="985" y="-1610" width="120" height="60" as="geometry" />
        </mxCell>
        <mxCell id="Leh7SRGu1nOTf254ItLz-240" value="Стохастический градиентный спуск" style="rounded=0;whiteSpace=wrap;html=1;fillColor=#f8cecc;strokeColor=#b85450;" parent="1" vertex="1">
          <mxGeometry x="1205" y="-2120" width="120" height="60" as="geometry" />
        </mxCell>
        <mxCell id="Leh7SRGu1nOTf254ItLz-241" style="edgeStyle=none;rounded=0;orthogonalLoop=1;jettySize=auto;html=1;entryX=0;entryY=0.5;entryDx=0;entryDy=0;fillColor=#f8cecc;strokeColor=#b85450;" parent="1" source="Leh7SRGu1nOTf254ItLz-40" target="Leh7SRGu1nOTf254ItLz-240" edge="1">
          <mxGeometry relative="1" as="geometry" />
        </mxCell>
        <mxCell id="Leh7SRGu1nOTf254ItLz-272" style="edgeStyle=none;rounded=0;orthogonalLoop=1;jettySize=auto;html=1;entryX=0.5;entryY=0;entryDx=0;entryDy=0;dashed=1;strokeWidth=2;" parent="1" source="Leh7SRGu1nOTf254ItLz-31" target="Leh7SRGu1nOTf254ItLz-194" edge="1">
          <mxGeometry relative="1" as="geometry" />
        </mxCell>
        <mxCell id="Leh7SRGu1nOTf254ItLz-31" value="Математика" style="rounded=0;whiteSpace=wrap;html=1;fillColor=#e1d5e7;strokeColor=#9673a6;" parent="1" vertex="1">
          <mxGeometry x="779" y="-2180" width="120" height="60" as="geometry" />
        </mxCell>
        <mxCell id="Leh7SRGu1nOTf254ItLz-32" value="Теория вероятностей" style="rounded=0;whiteSpace=wrap;html=1;fillColor=#f8cecc;strokeColor=#b85450;" parent="1" vertex="1">
          <mxGeometry x="545" y="-2240" width="120" height="60" as="geometry" />
        </mxCell>
        <mxCell id="Leh7SRGu1nOTf254ItLz-33" style="edgeStyle=none;rounded=0;orthogonalLoop=1;jettySize=auto;html=1;entryX=1.042;entryY=0.4;entryDx=0;entryDy=0;entryPerimeter=0;" parent="1" source="Leh7SRGu1nOTf254ItLz-31" target="Leh7SRGu1nOTf254ItLz-32" edge="1">
          <mxGeometry relative="1" as="geometry" />
        </mxCell>
        <mxCell id="Leh7SRGu1nOTf254ItLz-34" value="Статистика" style="rounded=0;whiteSpace=wrap;html=1;fillColor=#f8cecc;strokeColor=#b85450;" parent="1" vertex="1">
          <mxGeometry x="1025" y="-2250" width="120" height="60" as="geometry" />
        </mxCell>
        <mxCell id="Leh7SRGu1nOTf254ItLz-35" style="edgeStyle=none;rounded=0;orthogonalLoop=1;jettySize=auto;html=1;entryX=0;entryY=0.5;entryDx=0;entryDy=0;" parent="1" source="Leh7SRGu1nOTf254ItLz-31" target="Leh7SRGu1nOTf254ItLz-34" edge="1">
          <mxGeometry relative="1" as="geometry" />
        </mxCell>
        <mxCell id="Leh7SRGu1nOTf254ItLz-36" value="Теория графов" style="rounded=0;whiteSpace=wrap;html=1;fillColor=#f8cecc;strokeColor=#b85450;" parent="1" vertex="1">
          <mxGeometry x="516" y="-2020" width="120" height="60" as="geometry" />
        </mxCell>
        <mxCell id="Leh7SRGu1nOTf254ItLz-37" style="edgeStyle=none;rounded=0;orthogonalLoop=1;jettySize=auto;html=1;entryX=1;entryY=0.5;entryDx=0;entryDy=0;" parent="1" source="Leh7SRGu1nOTf254ItLz-31" target="Leh7SRGu1nOTf254ItLz-36" edge="1">
          <mxGeometry relative="1" as="geometry" />
        </mxCell>
        <mxCell id="Leh7SRGu1nOTf254ItLz-38" value="Матанализ" style="rounded=0;whiteSpace=wrap;html=1;fillColor=#f8cecc;strokeColor=#b85450;" parent="1" vertex="1">
          <mxGeometry x="516" y="-2110" width="120" height="60" as="geometry" />
        </mxCell>
        <mxCell id="Leh7SRGu1nOTf254ItLz-39" style="edgeStyle=none;rounded=0;orthogonalLoop=1;jettySize=auto;html=1;entryX=1;entryY=0.5;entryDx=0;entryDy=0;" parent="1" source="Leh7SRGu1nOTf254ItLz-31" target="Leh7SRGu1nOTf254ItLz-38" edge="1">
          <mxGeometry relative="1" as="geometry" />
        </mxCell>
        <mxCell id="Leh7SRGu1nOTf254ItLz-40" value="Оптимизация" style="rounded=0;whiteSpace=wrap;html=1;fillColor=#f8cecc;strokeColor=#b85450;" parent="1" vertex="1">
          <mxGeometry x="1025" y="-2130" width="120" height="60" as="geometry" />
        </mxCell>
        <mxCell id="Leh7SRGu1nOTf254ItLz-41" style="edgeStyle=none;rounded=0;orthogonalLoop=1;jettySize=auto;html=1;entryX=0;entryY=0.5;entryDx=0;entryDy=0;" parent="1" source="Leh7SRGu1nOTf254ItLz-31" target="Leh7SRGu1nOTf254ItLz-40" edge="1">
          <mxGeometry relative="1" as="geometry" />
        </mxCell>
        <mxCell id="Leh7SRGu1nOTf254ItLz-42" value="Линейная алгебра" style="rounded=0;whiteSpace=wrap;html=1;fillColor=#f8cecc;strokeColor=#b85450;" parent="1" vertex="1">
          <mxGeometry x="1016" y="-2010" width="120" height="60" as="geometry" />
        </mxCell>
        <mxCell id="Leh7SRGu1nOTf254ItLz-43" style="edgeStyle=none;rounded=0;orthogonalLoop=1;jettySize=auto;html=1;entryX=0;entryY=0.5;entryDx=0;entryDy=0;" parent="1" source="Leh7SRGu1nOTf254ItLz-31" target="Leh7SRGu1nOTf254ItLz-42" edge="1">
          <mxGeometry relative="1" as="geometry" />
        </mxCell>
        <mxCell id="Leh7SRGu1nOTf254ItLz-274" style="edgeStyle=none;rounded=0;orthogonalLoop=1;jettySize=auto;html=1;entryX=0.5;entryY=0;entryDx=0;entryDy=0;dashed=1;strokeWidth=2;" parent="1" source="Leh7SRGu1nOTf254ItLz-45" target="Leh7SRGu1nOTf254ItLz-111" edge="1">
          <mxGeometry relative="1" as="geometry" />
        </mxCell>
        <mxCell id="Leh7SRGu1nOTf254ItLz-45" value="Основные техники обработки текста" style="rounded=0;whiteSpace=wrap;html=1;fillColor=#e1d5e7;strokeColor=#9673a6;" parent="1" vertex="1">
          <mxGeometry x="765" y="-1375" width="120" height="60" as="geometry" />
        </mxCell>
        <mxCell id="Leh7SRGu1nOTf254ItLz-46" value="Токенизация" style="rounded=0;whiteSpace=wrap;html=1;fillColor=#f8cecc;strokeColor=#b85450;" parent="1" vertex="1">
          <mxGeometry x="546" y="-1410" width="120" height="60" as="geometry" />
        </mxCell>
        <mxCell id="Leh7SRGu1nOTf254ItLz-47" style="edgeStyle=none;rounded=0;orthogonalLoop=1;jettySize=auto;html=1;entryX=1;entryY=0.5;entryDx=0;entryDy=0;" parent="1" source="Leh7SRGu1nOTf254ItLz-45" target="Leh7SRGu1nOTf254ItLz-46" edge="1">
          <mxGeometry relative="1" as="geometry" />
        </mxCell>
        <mxCell id="Leh7SRGu1nOTf254ItLz-48" value="Стемминг" style="rounded=0;whiteSpace=wrap;html=1;fillColor=#f8cecc;strokeColor=#b85450;" parent="1" vertex="1">
          <mxGeometry x="1025" y="-1210" width="120" height="60" as="geometry" />
        </mxCell>
        <mxCell id="Leh7SRGu1nOTf254ItLz-49" style="edgeStyle=none;rounded=0;orthogonalLoop=1;jettySize=auto;html=1;entryX=0;entryY=0.5;entryDx=0;entryDy=0;" parent="1" source="Leh7SRGu1nOTf254ItLz-45" target="Leh7SRGu1nOTf254ItLz-48" edge="1">
          <mxGeometry relative="1" as="geometry" />
        </mxCell>
        <mxCell id="Leh7SRGu1nOTf254ItLz-50" value="Лемматизация" style="rounded=0;whiteSpace=wrap;html=1;fillColor=#f8cecc;strokeColor=#b85450;" parent="1" vertex="1">
          <mxGeometry x="1025" y="-1390" width="120" height="60" as="geometry" />
        </mxCell>
        <mxCell id="Leh7SRGu1nOTf254ItLz-51" style="edgeStyle=none;rounded=0;orthogonalLoop=1;jettySize=auto;html=1;entryX=0;entryY=0.5;entryDx=0;entryDy=0;" parent="1" source="Leh7SRGu1nOTf254ItLz-45" target="Leh7SRGu1nOTf254ItLz-50" edge="1">
          <mxGeometry relative="1" as="geometry" />
        </mxCell>
        <mxCell id="Leh7SRGu1nOTf254ItLz-52" value="Сегментация предложений" style="rounded=0;whiteSpace=wrap;html=1;fillColor=#f8cecc;strokeColor=#b85450;" parent="1" vertex="1">
          <mxGeometry x="545" y="-1290" width="120" height="60" as="geometry" />
        </mxCell>
        <mxCell id="Leh7SRGu1nOTf254ItLz-53" style="edgeStyle=none;rounded=0;orthogonalLoop=1;jettySize=auto;html=1;entryX=1;entryY=0.5;entryDx=0;entryDy=0;" parent="1" source="Leh7SRGu1nOTf254ItLz-45" target="Leh7SRGu1nOTf254ItLz-52" edge="1">
          <mxGeometry relative="1" as="geometry" />
        </mxCell>
        <mxCell id="Leh7SRGu1nOTf254ItLz-54" value="Вероятностная" style="rounded=0;whiteSpace=wrap;html=1;fillColor=#f8cecc;strokeColor=#b85450;" parent="1" vertex="1">
          <mxGeometry x="215" y="-1460" width="120" height="60" as="geometry" />
        </mxCell>
        <mxCell id="Leh7SRGu1nOTf254ItLz-55" value="На правилах" style="rounded=0;whiteSpace=wrap;html=1;fillColor=#f8cecc;strokeColor=#b85450;" parent="1" vertex="1">
          <mxGeometry x="205" y="-1300" width="120" height="60" as="geometry" />
        </mxCell>
        <mxCell id="Leh7SRGu1nOTf254ItLz-56" value="По пробелам" style="rounded=0;whiteSpace=wrap;html=1;fillColor=#f8cecc;strokeColor=#b85450;" parent="1" vertex="1">
          <mxGeometry x="205" y="-1375" width="120" height="60" as="geometry" />
        </mxCell>
        <mxCell id="Leh7SRGu1nOTf254ItLz-57" style="edgeStyle=none;rounded=0;orthogonalLoop=1;jettySize=auto;html=1;entryX=1;entryY=0.5;entryDx=0;entryDy=0;" parent="1" source="Leh7SRGu1nOTf254ItLz-60" target="Leh7SRGu1nOTf254ItLz-54" edge="1">
          <mxGeometry relative="1" as="geometry" />
        </mxCell>
        <mxCell id="Leh7SRGu1nOTf254ItLz-58" style="edgeStyle=none;rounded=0;orthogonalLoop=1;jettySize=auto;html=1;entryX=1;entryY=0.5;entryDx=0;entryDy=0;" parent="1" source="Leh7SRGu1nOTf254ItLz-60" target="Leh7SRGu1nOTf254ItLz-56" edge="1">
          <mxGeometry relative="1" as="geometry" />
        </mxCell>
        <mxCell id="Leh7SRGu1nOTf254ItLz-59" style="edgeStyle=none;rounded=0;orthogonalLoop=1;jettySize=auto;html=1;entryX=1;entryY=0.5;entryDx=0;entryDy=0;" parent="1" source="Leh7SRGu1nOTf254ItLz-60" target="Leh7SRGu1nOTf254ItLz-55" edge="1">
          <mxGeometry relative="1" as="geometry" />
        </mxCell>
        <mxCell id="Leh7SRGu1nOTf254ItLz-60" value="Слова" style="rounded=0;whiteSpace=wrap;html=1;fillColor=#f8cecc;strokeColor=#b85450;" parent="1" vertex="1">
          <mxGeometry x="385" y="-1450" width="120" height="50" as="geometry" />
        </mxCell>
        <mxCell id="Leh7SRGu1nOTf254ItLz-61" style="edgeStyle=none;rounded=0;orthogonalLoop=1;jettySize=auto;html=1;entryX=1;entryY=0.5;entryDx=0;entryDy=0;" parent="1" source="Leh7SRGu1nOTf254ItLz-46" target="Leh7SRGu1nOTf254ItLz-60" edge="1">
          <mxGeometry relative="1" as="geometry" />
        </mxCell>
        <mxCell id="Leh7SRGu1nOTf254ItLz-62" value="Подслова" style="rounded=0;whiteSpace=wrap;html=1;fillColor=#f8cecc;strokeColor=#b85450;" parent="1" vertex="1">
          <mxGeometry x="385" y="-1330" width="120" height="60" as="geometry" />
        </mxCell>
        <mxCell id="Leh7SRGu1nOTf254ItLz-63" style="edgeStyle=none;rounded=0;orthogonalLoop=1;jettySize=auto;html=1;entryX=0.5;entryY=0;entryDx=0;entryDy=0;" parent="1" source="Leh7SRGu1nOTf254ItLz-46" target="Leh7SRGu1nOTf254ItLz-62" edge="1">
          <mxGeometry relative="1" as="geometry" />
        </mxCell>
        <mxCell id="Leh7SRGu1nOTf254ItLz-64" value="n-граммы символов" style="rounded=0;whiteSpace=wrap;html=1;fillColor=#f8cecc;strokeColor=#b85450;" parent="1" vertex="1">
          <mxGeometry x="205" y="-1180" width="120" height="60" as="geometry" />
        </mxCell>
        <mxCell id="Leh7SRGu1nOTf254ItLz-65" style="edgeStyle=none;rounded=0;orthogonalLoop=1;jettySize=auto;html=1;entryX=1;entryY=0.5;entryDx=0;entryDy=0;" parent="1" source="Leh7SRGu1nOTf254ItLz-62" target="Leh7SRGu1nOTf254ItLz-64" edge="1">
          <mxGeometry relative="1" as="geometry" />
        </mxCell>
        <mxCell id="Leh7SRGu1nOTf254ItLz-66" value="Byte Pairwise Encoding" style="rounded=0;whiteSpace=wrap;html=1;fillColor=#f8cecc;strokeColor=#b85450;" parent="1" vertex="1">
          <mxGeometry x="205" y="-1080" width="120" height="60" as="geometry" />
        </mxCell>
        <mxCell id="Leh7SRGu1nOTf254ItLz-67" style="edgeStyle=none;rounded=0;orthogonalLoop=1;jettySize=auto;html=1;entryX=1;entryY=0.5;entryDx=0;entryDy=0;" parent="1" source="Leh7SRGu1nOTf254ItLz-62" target="Leh7SRGu1nOTf254ItLz-66" edge="1">
          <mxGeometry relative="1" as="geometry" />
        </mxCell>
        <mxCell id="Leh7SRGu1nOTf254ItLz-68" value="Лингвистический разбор" style="rounded=0;whiteSpace=wrap;html=1;dashed=1;fillColor=#f8cecc;strokeColor=#b85450;" parent="1" vertex="1">
          <mxGeometry x="1045" y="-1290" width="120" height="60" as="geometry" />
        </mxCell>
        <mxCell id="Leh7SRGu1nOTf254ItLz-69" style="edgeStyle=none;rounded=0;orthogonalLoop=1;jettySize=auto;html=1;entryX=0;entryY=0.5;entryDx=0;entryDy=0;" parent="1" source="Leh7SRGu1nOTf254ItLz-45" target="Leh7SRGu1nOTf254ItLz-68" edge="1">
          <mxGeometry relative="1" as="geometry" />
        </mxCell>
        <mxCell id="Leh7SRGu1nOTf254ItLz-250" style="edgeStyle=none;rounded=0;orthogonalLoop=1;jettySize=auto;html=1;entryX=1;entryY=0.5;entryDx=0;entryDy=0;" parent="1" source="Leh7SRGu1nOTf254ItLz-111" target="Leh7SRGu1nOTf254ItLz-131" edge="1">
          <mxGeometry relative="1" as="geometry" />
        </mxCell>
        <mxCell id="Leh7SRGu1nOTf254ItLz-275" style="edgeStyle=none;rounded=0;orthogonalLoop=1;jettySize=auto;html=1;entryX=0.5;entryY=0;entryDx=0;entryDy=0;dashed=1;strokeWidth=2;" parent="1" source="Leh7SRGu1nOTf254ItLz-111" target="Leh7SRGu1nOTf254ItLz-77" edge="1">
          <mxGeometry relative="1" as="geometry" />
        </mxCell>
        <mxCell id="KVGgsn57qIHWmbzJnvaB-3" style="edgeStyle=none;rounded=0;orthogonalLoop=1;jettySize=auto;html=1;entryX=0;entryY=0.5;entryDx=0;entryDy=0;strokeColor=#000000;strokeWidth=1;" parent="1" source="Leh7SRGu1nOTf254ItLz-111" target="KVGgsn57qIHWmbzJnvaB-2" edge="1">
          <mxGeometry relative="1" as="geometry" />
        </mxCell>
        <mxCell id="Leh7SRGu1nOTf254ItLz-111" value="&lt;div&gt;Представление текста&lt;/div&gt;" style="rounded=0;whiteSpace=wrap;html=1;fillColor=#e1d5e7;strokeColor=#9673a6;" parent="1" vertex="1">
          <mxGeometry x="775" y="-1055" width="120" height="60" as="geometry" />
        </mxCell>
        <mxCell id="Leh7SRGu1nOTf254ItLz-112" value="&lt;div&gt;word2vec&lt;/div&gt;" style="rounded=0;whiteSpace=wrap;html=1;fillColor=#f8cecc;strokeColor=#b85450;" parent="1" vertex="1">
          <mxGeometry x="1205" y="230" width="120" height="60" as="geometry" />
        </mxCell>
        <mxCell id="Leh7SRGu1nOTf254ItLz-114" value="Латентно-семантическое анализ" style="rounded=0;whiteSpace=wrap;html=1;fillColor=#f8cecc;strokeColor=#b85450;" parent="1" vertex="1">
          <mxGeometry x="456" y="-930" width="120" height="60" as="geometry" />
        </mxCell>
        <mxCell id="Leh7SRGu1nOTf254ItLz-116" value="&lt;div&gt;TF-IDF&lt;/div&gt;" style="rounded=0;whiteSpace=wrap;html=1;fillColor=#f8cecc;strokeColor=#b85450;" parent="1" vertex="1">
          <mxGeometry x="1150" y="-1090" width="120" height="60" as="geometry" />
        </mxCell>
        <mxCell id="Leh7SRGu1nOTf254ItLz-117" style="edgeStyle=none;rounded=0;orthogonalLoop=1;jettySize=auto;html=1;entryX=0;entryY=0.5;entryDx=0;entryDy=0;exitX=1;exitY=0.5;exitDx=0;exitDy=0;" parent="1" source="KVGgsn57qIHWmbzJnvaB-2" target="Leh7SRGu1nOTf254ItLz-116" edge="1">
          <mxGeometry relative="1" as="geometry" />
        </mxCell>
        <mxCell id="Leh7SRGu1nOTf254ItLz-118" value="fastText" style="rounded=0;whiteSpace=wrap;html=1;fillColor=#f8cecc;strokeColor=#b85450;" parent="1" vertex="1">
          <mxGeometry x="1195" y="150" width="120" height="60" as="geometry" />
        </mxCell>
        <mxCell id="Leh7SRGu1nOTf254ItLz-125" value="GloVe" style="rounded=0;whiteSpace=wrap;html=1;fillColor=#fff2cc;strokeColor=#d6b656;" parent="1" vertex="1">
          <mxGeometry x="1215" y="320" width="120" height="60" as="geometry" />
        </mxCell>
        <mxCell id="Leh7SRGu1nOTf254ItLz-245" style="edgeStyle=none;rounded=0;orthogonalLoop=1;jettySize=auto;html=1;entryX=0;entryY=0.5;entryDx=0;entryDy=0;" parent="1" source="Leh7SRGu1nOTf254ItLz-243" target="Leh7SRGu1nOTf254ItLz-112" edge="1">
          <mxGeometry relative="1" as="geometry" />
        </mxCell>
        <mxCell id="Leh7SRGu1nOTf254ItLz-246" style="edgeStyle=none;rounded=0;orthogonalLoop=1;jettySize=auto;html=1;entryX=0;entryY=0.5;entryDx=0;entryDy=0;" parent="1" source="Leh7SRGu1nOTf254ItLz-243" target="Leh7SRGu1nOTf254ItLz-118" edge="1">
          <mxGeometry relative="1" as="geometry" />
        </mxCell>
        <mxCell id="Leh7SRGu1nOTf254ItLz-269" style="edgeStyle=none;rounded=0;orthogonalLoop=1;jettySize=auto;html=1;entryX=0;entryY=0.5;entryDx=0;entryDy=0;" parent="1" source="Leh7SRGu1nOTf254ItLz-243" target="Leh7SRGu1nOTf254ItLz-125" edge="1">
          <mxGeometry relative="1" as="geometry" />
        </mxCell>
        <mxCell id="Leh7SRGu1nOTf254ItLz-271" style="edgeStyle=none;rounded=0;orthogonalLoop=1;jettySize=auto;html=1;entryX=0.5;entryY=0;entryDx=0;entryDy=0;fillColor=#f8cecc;strokeColor=default;" parent="1" source="Leh7SRGu1nOTf254ItLz-243" target="Leh7SRGu1nOTf254ItLz-157" edge="1">
          <mxGeometry relative="1" as="geometry" />
        </mxCell>
        <mxCell id="Leh7SRGu1nOTf254ItLz-243" value="Репрезентативное обучение" style="rounded=0;whiteSpace=wrap;html=1;fillColor=#f8cecc;strokeColor=#b85450;" parent="1" vertex="1">
          <mxGeometry x="965" y="220" width="120" height="60" as="geometry" />
        </mxCell>
        <mxCell id="KVGgsn57qIHWmbzJnvaB-2" value="Матрица терм-документ" style="rounded=0;whiteSpace=wrap;html=1;fillColor=#f8cecc;strokeColor=#b85450;" parent="1" vertex="1">
          <mxGeometry x="954" y="-1080" width="120" height="60" as="geometry" />
        </mxCell>
        <mxCell id="YhJoYndK6Mr-DlqVhttC-1" value="1 уровень важности" style="rounded=0;whiteSpace=wrap;html=1;fillColor=#f8cecc;strokeColor=#b85450;" parent="1" vertex="1">
          <mxGeometry x="1490" y="-2310" width="120" height="60" as="geometry" />
        </mxCell>
        <mxCell id="YhJoYndK6Mr-DlqVhttC-2" value="2 уровень важности" style="rounded=0;whiteSpace=wrap;html=1;fillColor=#fff2cc;strokeColor=#d6b656;" parent="1" vertex="1">
          <mxGeometry x="1490" y="-2230" width="120" height="60" as="geometry" />
        </mxCell>
        <mxCell id="YhJoYndK6Mr-DlqVhttC-3" value="3 уровень важности" style="rounded=0;whiteSpace=wrap;html=1;fillColor=#d5e8d4;strokeColor=#82b366;" parent="1" vertex="1">
          <mxGeometry x="1490" y="-2150" width="120" height="60" as="geometry" />
        </mxCell>
        <mxCell id="9njE5YXKI5ZjP3QFqYLR-9" style="rounded=0;orthogonalLoop=1;jettySize=auto;html=1;entryX=1;entryY=0.5;entryDx=0;entryDy=0;" edge="1" parent="1" source="9njE5YXKI5ZjP3QFqYLR-1" target="9njE5YXKI5ZjP3QFqYLR-2">
          <mxGeometry relative="1" as="geometry" />
        </mxCell>
        <mxCell id="9njE5YXKI5ZjP3QFqYLR-10" style="rounded=0;orthogonalLoop=1;jettySize=auto;html=1;entryX=0.5;entryY=0;entryDx=0;entryDy=0;" edge="1" parent="1" source="9njE5YXKI5ZjP3QFqYLR-1" target="9njE5YXKI5ZjP3QFqYLR-3">
          <mxGeometry relative="1" as="geometry" />
        </mxCell>
        <mxCell id="9njE5YXKI5ZjP3QFqYLR-11" style="rounded=0;orthogonalLoop=1;jettySize=auto;html=1;entryX=1;entryY=0.5;entryDx=0;entryDy=0;" edge="1" parent="1" source="9njE5YXKI5ZjP3QFqYLR-1" target="9njE5YXKI5ZjP3QFqYLR-8">
          <mxGeometry relative="1" as="geometry" />
        </mxCell>
        <mxCell id="9njE5YXKI5ZjP3QFqYLR-12" style="rounded=0;orthogonalLoop=1;jettySize=auto;html=1;entryX=0;entryY=0.5;entryDx=0;entryDy=0;" edge="1" parent="1" source="9njE5YXKI5ZjP3QFqYLR-1" target="9njE5YXKI5ZjP3QFqYLR-4">
          <mxGeometry relative="1" as="geometry" />
        </mxCell>
        <mxCell id="abtYKmY9lGcrLd2DvivL-2" style="edgeStyle=none;rounded=0;orthogonalLoop=1;jettySize=auto;html=1;entryX=0;entryY=0.5;entryDx=0;entryDy=0;" edge="1" parent="1" source="9njE5YXKI5ZjP3QFqYLR-1" target="abtYKmY9lGcrLd2DvivL-1">
          <mxGeometry relative="1" as="geometry" />
        </mxCell>
        <mxCell id="9njE5YXKI5ZjP3QFqYLR-1" value="Большие языковые модели" style="rounded=0;whiteSpace=wrap;html=1;fillColor=#e1d5e7;strokeColor=#9673a6;" vertex="1" parent="1">
          <mxGeometry x="210" y="960" width="120" height="60" as="geometry" />
        </mxCell>
        <mxCell id="9njE5YXKI5ZjP3QFqYLR-2" value="Instruction tuning" style="rounded=0;whiteSpace=wrap;html=1;fillColor=#f8cecc;strokeColor=#b85450;" vertex="1" parent="1">
          <mxGeometry x="45" y="927" width="120" height="60" as="geometry" />
        </mxCell>
        <mxCell id="9njE5YXKI5ZjP3QFqYLR-3" value="In-context learning" style="rounded=0;whiteSpace=wrap;html=1;fillColor=#f8cecc;strokeColor=#b85450;" vertex="1" parent="1">
          <mxGeometry x="405" y="1100" width="120" height="60" as="geometry" />
        </mxCell>
        <mxCell id="9njE5YXKI5ZjP3QFqYLR-4" value="RLHF" style="rounded=0;whiteSpace=wrap;html=1;fillColor=#f8cecc;strokeColor=#b85450;" vertex="1" parent="1">
          <mxGeometry x="405" y="900" width="120" height="60" as="geometry" />
        </mxCell>
        <mxCell id="n_Ey5d912pa_Kn3GJEkr-18" style="edgeStyle=none;rounded=0;orthogonalLoop=1;jettySize=auto;html=1;entryX=0.5;entryY=0;entryDx=0;entryDy=0;" edge="1" parent="1" source="9njE5YXKI5ZjP3QFqYLR-5" target="n_Ey5d912pa_Kn3GJEkr-17">
          <mxGeometry relative="1" as="geometry" />
        </mxCell>
        <mxCell id="9njE5YXKI5ZjP3QFqYLR-5" value="Positional encoding" style="rounded=0;whiteSpace=wrap;html=1;fillColor=#f8cecc;strokeColor=#b85450;" vertex="1" parent="1">
          <mxGeometry x="881" y="500" width="120" height="60" as="geometry" />
        </mxCell>
        <mxCell id="9njE5YXKI5ZjP3QFqYLR-8" value="Стратегии семплирования" style="rounded=0;whiteSpace=wrap;html=1;fillColor=#fff2cc;strokeColor=#d6b656;" vertex="1" parent="1">
          <mxGeometry x="45" y="1040" width="120" height="60" as="geometry" />
        </mxCell>
        <mxCell id="abtYKmY9lGcrLd2DvivL-4" style="edgeStyle=none;rounded=0;orthogonalLoop=1;jettySize=auto;html=1;entryX=0;entryY=0.5;entryDx=0;entryDy=0;" edge="1" parent="1" source="abtYKmY9lGcrLd2DvivL-1" target="abtYKmY9lGcrLd2DvivL-3">
          <mxGeometry relative="1" as="geometry" />
        </mxCell>
        <mxCell id="abtYKmY9lGcrLd2DvivL-1" value="Promting" style="rounded=0;whiteSpace=wrap;html=1;fillColor=#f8cecc;strokeColor=#b85450;" vertex="1" parent="1">
          <mxGeometry x="405" y="987" width="120" height="60" as="geometry" />
        </mxCell>
        <mxCell id="abtYKmY9lGcrLd2DvivL-3" value="Chain of thoughts" style="rounded=0;whiteSpace=wrap;html=1;fillColor=#f8cecc;strokeColor=#b85450;" vertex="1" parent="1">
          <mxGeometry x="575" y="987" width="120" height="60" as="geometry" />
        </mxCell>
        <mxCell id="n_Ey5d912pa_Kn3GJEkr-8" style="edgeStyle=none;rounded=0;orthogonalLoop=1;jettySize=auto;html=1;entryX=1;entryY=0.5;entryDx=0;entryDy=0;" edge="1" parent="1" source="n_Ey5d912pa_Kn3GJEkr-1" target="n_Ey5d912pa_Kn3GJEkr-2">
          <mxGeometry relative="1" as="geometry" />
        </mxCell>
        <mxCell id="n_Ey5d912pa_Kn3GJEkr-10" style="edgeStyle=none;rounded=0;orthogonalLoop=1;jettySize=auto;html=1;entryX=1;entryY=0.5;entryDx=0;entryDy=0;" edge="1" parent="1" source="n_Ey5d912pa_Kn3GJEkr-1" target="n_Ey5d912pa_Kn3GJEkr-4">
          <mxGeometry relative="1" as="geometry" />
        </mxCell>
        <mxCell id="n_Ey5d912pa_Kn3GJEkr-11" style="edgeStyle=none;rounded=0;orthogonalLoop=1;jettySize=auto;html=1;entryX=0;entryY=0.5;entryDx=0;entryDy=0;" edge="1" parent="1" source="n_Ey5d912pa_Kn3GJEkr-1" target="n_Ey5d912pa_Kn3GJEkr-5">
          <mxGeometry relative="1" as="geometry" />
        </mxCell>
        <mxCell id="n_Ey5d912pa_Kn3GJEkr-12" style="edgeStyle=none;rounded=0;orthogonalLoop=1;jettySize=auto;html=1;entryX=0;entryY=0.5;entryDx=0;entryDy=0;" edge="1" parent="1" source="n_Ey5d912pa_Kn3GJEkr-1" target="n_Ey5d912pa_Kn3GJEkr-6">
          <mxGeometry relative="1" as="geometry" />
        </mxCell>
        <mxCell id="n_Ey5d912pa_Kn3GJEkr-1" value="Parameter efficient fine-tuning" style="rounded=0;whiteSpace=wrap;html=1;fillColor=#e1d5e7;strokeColor=#9673a6;" vertex="1" parent="1">
          <mxGeometry x="1313.5" y="1000" width="120" height="60" as="geometry" />
        </mxCell>
        <mxCell id="n_Ey5d912pa_Kn3GJEkr-9" style="edgeStyle=none;rounded=0;orthogonalLoop=1;jettySize=auto;html=1;entryX=1;entryY=0.5;entryDx=0;entryDy=0;fillColor=#f8cecc;strokeColor=#b85450;" edge="1" parent="1" source="n_Ey5d912pa_Kn3GJEkr-2" target="n_Ey5d912pa_Kn3GJEkr-3">
          <mxGeometry relative="1" as="geometry" />
        </mxCell>
        <mxCell id="n_Ey5d912pa_Kn3GJEkr-2" value="LoRa" style="rounded=0;whiteSpace=wrap;html=1;fillColor=#f8cecc;strokeColor=#b85450;" vertex="1" parent="1">
          <mxGeometry x="1154.5" y="970" width="120" height="60" as="geometry" />
        </mxCell>
        <mxCell id="n_Ey5d912pa_Kn3GJEkr-3" value="QLoRa" style="rounded=0;whiteSpace=wrap;html=1;fillColor=#f8cecc;strokeColor=#b85450;" vertex="1" parent="1">
          <mxGeometry x="973.5" y="970" width="120" height="60" as="geometry" />
        </mxCell>
        <mxCell id="n_Ey5d912pa_Kn3GJEkr-4" value="P-tuning" style="rounded=0;whiteSpace=wrap;html=1;fillColor=#f8cecc;strokeColor=#b85450;" vertex="1" parent="1">
          <mxGeometry x="1149.5" y="1070" width="120" height="60" as="geometry" />
        </mxCell>
        <mxCell id="n_Ey5d912pa_Kn3GJEkr-5" value="Promt tuning" style="rounded=0;whiteSpace=wrap;html=1;fillColor=#f8cecc;strokeColor=#b85450;" vertex="1" parent="1">
          <mxGeometry x="1508.5" y="980" width="120" height="60" as="geometry" />
        </mxCell>
        <mxCell id="n_Ey5d912pa_Kn3GJEkr-6" value="Prefix tuning" style="rounded=0;whiteSpace=wrap;html=1;fillColor=#f8cecc;strokeColor=#b85450;" vertex="1" parent="1">
          <mxGeometry x="1508.5" y="1090" width="120" height="60" as="geometry" />
        </mxCell>
        <mxCell id="n_Ey5d912pa_Kn3GJEkr-16" style="edgeStyle=none;rounded=0;orthogonalLoop=1;jettySize=auto;html=1;entryX=0.5;entryY=0;entryDx=0;entryDy=0;" edge="1" parent="1" source="Leh7SRGu1nOTf254ItLz-161" target="n_Ey5d912pa_Kn3GJEkr-15">
          <mxGeometry relative="1" as="geometry" />
        </mxCell>
        <mxCell id="Leh7SRGu1nOTf254ItLz-161" value="Механизм внимания" style="rounded=0;whiteSpace=wrap;html=1;fillColor=#f8cecc;strokeColor=#b85450;" parent="1" vertex="1">
          <mxGeometry x="475" y="420" width="120" height="60" as="geometry" />
        </mxCell>
        <mxCell id="n_Ey5d912pa_Kn3GJEkr-15" value="Современные модификации" style="rounded=0;whiteSpace=wrap;html=1;fillColor=#fff2cc;strokeColor=#d6b656;" vertex="1" parent="1">
          <mxGeometry x="310" y="510" width="120" height="60" as="geometry" />
        </mxCell>
        <mxCell id="n_Ey5d912pa_Kn3GJEkr-17" value="Современные модификации" style="rounded=0;whiteSpace=wrap;html=1;fillColor=#fff2cc;strokeColor=#d6b656;" vertex="1" parent="1">
          <mxGeometry x="1016" y="585" width="120" height="60" as="geometry" />
        </mxCell>
      </root>
    </mxGraphModel>
  </diagram>
  <diagram id="PqsG3Q4dS8LbA8eVQuFg" name="Библиотеки Python">
    <mxGraphModel dx="607" dy="2013" grid="1" gridSize="10" guides="1" tooltips="1" connect="1" arrows="1" fold="1" page="1" pageScale="1" pageWidth="827" pageHeight="1169" math="0" shadow="0">
      <root>
        <mxCell id="0" />
        <mxCell id="1" parent="0" />
        <mxCell id="8cL9w3ZE4y8y_nsnoVoX-1" style="edgeStyle=none;rounded=0;orthogonalLoop=1;jettySize=auto;html=1;entryX=0.5;entryY=0;entryDx=0;entryDy=0;" parent="1" source="8cL9w3ZE4y8y_nsnoVoX-12" target="8cL9w3ZE4y8y_nsnoVoX-18" edge="1">
          <mxGeometry relative="1" as="geometry" />
        </mxCell>
        <mxCell id="8cL9w3ZE4y8y_nsnoVoX-2" style="edgeStyle=none;rounded=0;orthogonalLoop=1;jettySize=auto;html=1;entryX=0.5;entryY=0;entryDx=0;entryDy=0;" parent="1" source="8cL9w3ZE4y8y_nsnoVoX-12" target="8cL9w3ZE4y8y_nsnoVoX-13" edge="1">
          <mxGeometry relative="1" as="geometry" />
        </mxCell>
        <mxCell id="8cL9w3ZE4y8y_nsnoVoX-3" style="edgeStyle=none;rounded=0;orthogonalLoop=1;jettySize=auto;html=1;entryX=0.5;entryY=0;entryDx=0;entryDy=0;" parent="1" source="8cL9w3ZE4y8y_nsnoVoX-12" target="8cL9w3ZE4y8y_nsnoVoX-14" edge="1">
          <mxGeometry relative="1" as="geometry" />
        </mxCell>
        <mxCell id="8cL9w3ZE4y8y_nsnoVoX-4" style="edgeStyle=none;rounded=0;orthogonalLoop=1;jettySize=auto;html=1;entryX=0.5;entryY=0;entryDx=0;entryDy=0;" parent="1" source="8cL9w3ZE4y8y_nsnoVoX-12" target="8cL9w3ZE4y8y_nsnoVoX-15" edge="1">
          <mxGeometry relative="1" as="geometry" />
        </mxCell>
        <mxCell id="8cL9w3ZE4y8y_nsnoVoX-5" style="edgeStyle=none;rounded=0;orthogonalLoop=1;jettySize=auto;html=1;entryX=0.5;entryY=0;entryDx=0;entryDy=0;" parent="1" source="8cL9w3ZE4y8y_nsnoVoX-12" target="8cL9w3ZE4y8y_nsnoVoX-19" edge="1">
          <mxGeometry relative="1" as="geometry" />
        </mxCell>
        <mxCell id="8cL9w3ZE4y8y_nsnoVoX-6" style="edgeStyle=none;rounded=0;orthogonalLoop=1;jettySize=auto;html=1;entryX=0.5;entryY=0;entryDx=0;entryDy=0;" parent="1" source="8cL9w3ZE4y8y_nsnoVoX-12" target="8cL9w3ZE4y8y_nsnoVoX-20" edge="1">
          <mxGeometry relative="1" as="geometry" />
        </mxCell>
        <mxCell id="8cL9w3ZE4y8y_nsnoVoX-7" style="edgeStyle=none;rounded=0;orthogonalLoop=1;jettySize=auto;html=1;entryX=0.5;entryY=0;entryDx=0;entryDy=0;" parent="1" source="8cL9w3ZE4y8y_nsnoVoX-12" target="8cL9w3ZE4y8y_nsnoVoX-17" edge="1">
          <mxGeometry relative="1" as="geometry" />
        </mxCell>
        <mxCell id="8cL9w3ZE4y8y_nsnoVoX-8" style="edgeStyle=none;rounded=0;orthogonalLoop=1;jettySize=auto;html=1;entryX=0.558;entryY=-0.017;entryDx=0;entryDy=0;entryPerimeter=0;" parent="1" source="8cL9w3ZE4y8y_nsnoVoX-12" target="8cL9w3ZE4y8y_nsnoVoX-29" edge="1">
          <mxGeometry relative="1" as="geometry" />
        </mxCell>
        <mxCell id="8cL9w3ZE4y8y_nsnoVoX-9" style="edgeStyle=none;rounded=0;orthogonalLoop=1;jettySize=auto;html=1;entryX=0.5;entryY=0;entryDx=0;entryDy=0;" parent="1" source="8cL9w3ZE4y8y_nsnoVoX-12" target="8cL9w3ZE4y8y_nsnoVoX-16" edge="1">
          <mxGeometry relative="1" as="geometry" />
        </mxCell>
        <mxCell id="8cL9w3ZE4y8y_nsnoVoX-10" style="edgeStyle=none;rounded=0;orthogonalLoop=1;jettySize=auto;html=1;entryX=0.5;entryY=0;entryDx=0;entryDy=0;" parent="1" source="8cL9w3ZE4y8y_nsnoVoX-12" target="8cL9w3ZE4y8y_nsnoVoX-24" edge="1">
          <mxGeometry relative="1" as="geometry" />
        </mxCell>
        <mxCell id="8cL9w3ZE4y8y_nsnoVoX-11" style="edgeStyle=none;rounded=0;orthogonalLoop=1;jettySize=auto;html=1;entryX=0.5;entryY=0;entryDx=0;entryDy=0;" parent="1" source="8cL9w3ZE4y8y_nsnoVoX-12" target="8cL9w3ZE4y8y_nsnoVoX-31" edge="1">
          <mxGeometry relative="1" as="geometry" />
        </mxCell>
        <mxCell id="Z9bR9JfhaRuyM-AkmH8a-2" style="edgeStyle=none;rounded=0;orthogonalLoop=1;jettySize=auto;html=1;entryX=0.5;entryY=0;entryDx=0;entryDy=0;strokeColor=#000000;strokeWidth=1;" parent="1" source="8cL9w3ZE4y8y_nsnoVoX-12" target="Z9bR9JfhaRuyM-AkmH8a-1" edge="1">
          <mxGeometry relative="1" as="geometry" />
        </mxCell>
        <mxCell id="Z9bR9JfhaRuyM-AkmH8a-8" style="edgeStyle=none;rounded=0;orthogonalLoop=1;jettySize=auto;html=1;entryX=0.434;entryY=-0.025;entryDx=0;entryDy=0;entryPerimeter=0;strokeColor=#000000;strokeWidth=1;" parent="1" source="8cL9w3ZE4y8y_nsnoVoX-12" target="Z9bR9JfhaRuyM-AkmH8a-7" edge="1">
          <mxGeometry relative="1" as="geometry" />
        </mxCell>
        <mxCell id="Ipk04A6SlpmS_l48wW7N-2" style="edgeStyle=none;rounded=0;orthogonalLoop=1;jettySize=auto;html=1;entryX=0.5;entryY=0;entryDx=0;entryDy=0;" edge="1" parent="1" source="8cL9w3ZE4y8y_nsnoVoX-12" target="Ipk04A6SlpmS_l48wW7N-1">
          <mxGeometry relative="1" as="geometry" />
        </mxCell>
        <mxCell id="8cL9w3ZE4y8y_nsnoVoX-12" value="&lt;div&gt;Python &lt;br&gt;&lt;/div&gt;&lt;div&gt;библиотеки&lt;/div&gt;" style="rounded=0;whiteSpace=wrap;html=1;fillColor=#e1d5e7;strokeColor=#9673a6;" parent="1" vertex="1">
          <mxGeometry x="1560" y="-920" width="120" height="60" as="geometry" />
        </mxCell>
        <mxCell id="8cL9w3ZE4y8y_nsnoVoX-13" value="pandas" style="rounded=0;whiteSpace=wrap;html=1;fillColor=#f8cecc;strokeColor=#b85450;" parent="1" vertex="1">
          <mxGeometry x="1540" y="-790" width="120" height="60" as="geometry" />
        </mxCell>
        <mxCell id="8cL9w3ZE4y8y_nsnoVoX-14" value="numpy" style="rounded=0;whiteSpace=wrap;html=1;fillColor=#f8cecc;strokeColor=#b85450;" parent="1" vertex="1">
          <mxGeometry x="1380" y="-790" width="120" height="60" as="geometry" />
        </mxCell>
        <mxCell id="8cL9w3ZE4y8y_nsnoVoX-15" value="sklearn" style="rounded=0;whiteSpace=wrap;html=1;fillColor=#f8cecc;strokeColor=#b85450;" parent="1" vertex="1">
          <mxGeometry x="1832" y="-790" width="120" height="60" as="geometry" />
        </mxCell>
        <mxCell id="8cL9w3ZE4y8y_nsnoVoX-16" value="gensim" style="rounded=0;whiteSpace=wrap;html=1;fillColor=#fff2cc;strokeColor=#d6b656;" parent="1" vertex="1">
          <mxGeometry x="1952" y="-690" width="120" height="60" as="geometry" />
        </mxCell>
        <mxCell id="8cL9w3ZE4y8y_nsnoVoX-17" value="spacy" style="rounded=0;whiteSpace=wrap;html=1;fillColor=#fff2cc;strokeColor=#d6b656;" parent="1" vertex="1">
          <mxGeometry x="1670" y="-690" width="120" height="60" as="geometry" />
        </mxCell>
        <mxCell id="8cL9w3ZE4y8y_nsnoVoX-18" value="nltk" style="rounded=0;whiteSpace=wrap;html=1;fillColor=#f8cecc;strokeColor=#b85450;" parent="1" vertex="1">
          <mxGeometry x="1690" y="-790" width="120" height="60" as="geometry" />
        </mxCell>
        <mxCell id="8cL9w3ZE4y8y_nsnoVoX-19" value="pymystem3" style="rounded=0;whiteSpace=wrap;html=1;fillColor=#fff2cc;strokeColor=#d6b656;" parent="1" vertex="1">
          <mxGeometry x="1510" y="-690" width="120" height="60" as="geometry" />
        </mxCell>
        <mxCell id="8cL9w3ZE4y8y_nsnoVoX-20" value="pymorphy2" style="rounded=0;whiteSpace=wrap;html=1;fillColor=#fff2cc;strokeColor=#d6b656;" parent="1" vertex="1">
          <mxGeometry x="1360" y="-690" width="120" height="60" as="geometry" />
        </mxCell>
        <mxCell id="8cL9w3ZE4y8y_nsnoVoX-21" style="edgeStyle=none;rounded=0;orthogonalLoop=1;jettySize=auto;html=1;entryX=0.5;entryY=0;entryDx=0;entryDy=0;" parent="1" source="8cL9w3ZE4y8y_nsnoVoX-24" target="8cL9w3ZE4y8y_nsnoVoX-25" edge="1">
          <mxGeometry relative="1" as="geometry" />
        </mxCell>
        <mxCell id="8cL9w3ZE4y8y_nsnoVoX-23" style="edgeStyle=none;rounded=0;orthogonalLoop=1;jettySize=auto;html=1;entryX=0.5;entryY=0;entryDx=0;entryDy=0;" parent="1" source="8cL9w3ZE4y8y_nsnoVoX-24" target="8cL9w3ZE4y8y_nsnoVoX-28" edge="1">
          <mxGeometry relative="1" as="geometry" />
        </mxCell>
        <mxCell id="8cL9w3ZE4y8y_nsnoVoX-24" value="DL Framework" style="rounded=0;whiteSpace=wrap;html=1;fillColor=#f8cecc;strokeColor=#b85450;" parent="1" vertex="1">
          <mxGeometry x="1608" y="-590" width="120" height="60" as="geometry" />
        </mxCell>
        <mxCell id="H0kWAGF6wLihEEelQZUG-1" style="edgeStyle=none;rounded=0;orthogonalLoop=1;jettySize=auto;html=1;entryX=0.5;entryY=0;entryDx=0;entryDy=0;strokeWidth=1;" parent="1" source="8cL9w3ZE4y8y_nsnoVoX-25" target="8cL9w3ZE4y8y_nsnoVoX-26" edge="1">
          <mxGeometry relative="1" as="geometry" />
        </mxCell>
        <mxCell id="H0kWAGF6wLihEEelQZUG-2" style="edgeStyle=none;rounded=0;orthogonalLoop=1;jettySize=auto;html=1;entryX=0.5;entryY=0;entryDx=0;entryDy=0;strokeWidth=1;" parent="1" source="8cL9w3ZE4y8y_nsnoVoX-25" target="8cL9w3ZE4y8y_nsnoVoX-30" edge="1">
          <mxGeometry relative="1" as="geometry" />
        </mxCell>
        <mxCell id="8cL9w3ZE4y8y_nsnoVoX-25" value="Tensorflow" style="rounded=0;whiteSpace=wrap;html=1;fillColor=#fff2cc;strokeColor=#d6b656;" parent="1" vertex="1">
          <mxGeometry x="1470" y="-460" width="120" height="60" as="geometry" />
        </mxCell>
        <mxCell id="8cL9w3ZE4y8y_nsnoVoX-26" value="Keras" style="rounded=0;whiteSpace=wrap;html=1;fillColor=#fff2cc;strokeColor=#d6b656;" parent="1" vertex="1">
          <mxGeometry x="1350" y="-360" width="120" height="60" as="geometry" />
        </mxCell>
        <mxCell id="8cL9w3ZE4y8y_nsnoVoX-27" style="edgeStyle=none;rounded=0;orthogonalLoop=1;jettySize=auto;html=1;entryX=0.5;entryY=0;entryDx=0;entryDy=0;" parent="1" source="8cL9w3ZE4y8y_nsnoVoX-28" target="8cL9w3ZE4y8y_nsnoVoX-30" edge="1">
          <mxGeometry relative="1" as="geometry" />
        </mxCell>
        <mxCell id="8cL9w3ZE4y8y_nsnoVoX-28" value="Pytorch" style="rounded=0;whiteSpace=wrap;html=1;fillColor=#fff2cc;strokeColor=#d6b656;" parent="1" vertex="1">
          <mxGeometry x="1770" y="-460" width="120" height="60" as="geometry" />
        </mxCell>
        <mxCell id="8cL9w3ZE4y8y_nsnoVoX-29" value="UDPipe" style="rounded=0;whiteSpace=wrap;html=1;fillColor=#fff2cc;strokeColor=#d6b656;" parent="1" vertex="1">
          <mxGeometry x="1820" y="-690" width="120" height="60" as="geometry" />
        </mxCell>
        <mxCell id="q2DTWz9QGy7d2vup61Em-7" style="edgeStyle=none;rounded=0;orthogonalLoop=1;jettySize=auto;html=1;entryX=0.5;entryY=0;entryDx=0;entryDy=0;" edge="1" parent="1" source="8cL9w3ZE4y8y_nsnoVoX-30" target="q2DTWz9QGy7d2vup61Em-1">
          <mxGeometry relative="1" as="geometry" />
        </mxCell>
        <mxCell id="q2DTWz9QGy7d2vup61Em-8" style="edgeStyle=none;rounded=0;orthogonalLoop=1;jettySize=auto;html=1;entryX=0.5;entryY=0;entryDx=0;entryDy=0;" edge="1" parent="1" source="8cL9w3ZE4y8y_nsnoVoX-30" target="q2DTWz9QGy7d2vup61Em-2">
          <mxGeometry relative="1" as="geometry" />
        </mxCell>
        <mxCell id="q2DTWz9QGy7d2vup61Em-9" style="edgeStyle=none;rounded=0;orthogonalLoop=1;jettySize=auto;html=1;entryX=0.5;entryY=0;entryDx=0;entryDy=0;" edge="1" parent="1" source="8cL9w3ZE4y8y_nsnoVoX-30" target="q2DTWz9QGy7d2vup61Em-3">
          <mxGeometry relative="1" as="geometry" />
        </mxCell>
        <mxCell id="q2DTWz9QGy7d2vup61Em-10" style="edgeStyle=none;rounded=0;orthogonalLoop=1;jettySize=auto;html=1;entryX=0.5;entryY=0;entryDx=0;entryDy=0;" edge="1" parent="1" source="8cL9w3ZE4y8y_nsnoVoX-30" target="q2DTWz9QGy7d2vup61Em-4">
          <mxGeometry relative="1" as="geometry" />
        </mxCell>
        <mxCell id="q2DTWz9QGy7d2vup61Em-11" style="edgeStyle=none;rounded=0;orthogonalLoop=1;jettySize=auto;html=1;entryX=0.5;entryY=0;entryDx=0;entryDy=0;" edge="1" parent="1" source="8cL9w3ZE4y8y_nsnoVoX-30" target="q2DTWz9QGy7d2vup61Em-5">
          <mxGeometry relative="1" as="geometry" />
        </mxCell>
        <mxCell id="8cL9w3ZE4y8y_nsnoVoX-30" value="Hugging Face&lt;br&gt;Ecosystem" style="rounded=0;whiteSpace=wrap;html=1;fillColor=#f8cecc;strokeColor=#b85450;" parent="1" vertex="1">
          <mxGeometry x="1608" y="-340" width="120" height="60" as="geometry" />
        </mxCell>
        <mxCell id="8cL9w3ZE4y8y_nsnoVoX-31" value="RASA" style="rounded=0;whiteSpace=wrap;html=1;fillColor=#d5e8d4;strokeColor=#82b366;" parent="1" vertex="1">
          <mxGeometry x="1990" y="-790" width="120" height="60" as="geometry" />
        </mxCell>
        <mxCell id="Z9bR9JfhaRuyM-AkmH8a-5" style="edgeStyle=none;rounded=0;orthogonalLoop=1;jettySize=auto;html=1;entryX=0.5;entryY=0;entryDx=0;entryDy=0;strokeColor=#000000;strokeWidth=1;" parent="1" source="Z9bR9JfhaRuyM-AkmH8a-1" target="Z9bR9JfhaRuyM-AkmH8a-4" edge="1">
          <mxGeometry relative="1" as="geometry" />
        </mxCell>
        <mxCell id="Z9bR9JfhaRuyM-AkmH8a-6" style="edgeStyle=none;rounded=0;orthogonalLoop=1;jettySize=auto;html=1;entryX=0.5;entryY=0;entryDx=0;entryDy=0;strokeColor=#000000;strokeWidth=1;" parent="1" source="Z9bR9JfhaRuyM-AkmH8a-1" target="Z9bR9JfhaRuyM-AkmH8a-3" edge="1">
          <mxGeometry relative="1" as="geometry" />
        </mxCell>
        <mxCell id="Z9bR9JfhaRuyM-AkmH8a-1" value="matplotlib" style="rounded=0;whiteSpace=wrap;html=1;fillColor=#f8cecc;strokeColor=#b85450;" parent="1" vertex="1">
          <mxGeometry x="1210" y="-790" width="120" height="60" as="geometry" />
        </mxCell>
        <mxCell id="Z9bR9JfhaRuyM-AkmH8a-3" value="seaborn" style="rounded=0;whiteSpace=wrap;html=1;fillColor=#fff2cc;strokeColor=#d6b656;" parent="1" vertex="1">
          <mxGeometry x="1060" y="-700" width="120" height="60" as="geometry" />
        </mxCell>
        <mxCell id="Z9bR9JfhaRuyM-AkmH8a-4" value="plotly" style="rounded=0;whiteSpace=wrap;html=1;fillColor=#fff2cc;strokeColor=#d6b656;" parent="1" vertex="1">
          <mxGeometry x="1200" y="-700" width="120" height="60" as="geometry" />
        </mxCell>
        <mxCell id="Z9bR9JfhaRuyM-AkmH8a-7" value="ThunderSVM" style="rounded=0;whiteSpace=wrap;html=1;fillColor=#d5e8d4;strokeColor=#82b366;" parent="1" vertex="1">
          <mxGeometry x="1340" y="-590" width="120" height="60" as="geometry" />
        </mxCell>
        <mxCell id="uCwZG4N_OO3YD7q1t4Sa-1" value="1 уровень важности" style="rounded=0;whiteSpace=wrap;html=1;fillColor=#f8cecc;strokeColor=#b85450;" parent="1" vertex="1">
          <mxGeometry x="2300" y="-1060" width="120" height="60" as="geometry" />
        </mxCell>
        <mxCell id="uCwZG4N_OO3YD7q1t4Sa-2" value="2 уровень важности" style="rounded=0;whiteSpace=wrap;html=1;fillColor=#fff2cc;strokeColor=#d6b656;" parent="1" vertex="1">
          <mxGeometry x="2300" y="-980" width="120" height="60" as="geometry" />
        </mxCell>
        <mxCell id="uCwZG4N_OO3YD7q1t4Sa-3" value="3 уровень важности" style="rounded=0;whiteSpace=wrap;html=1;fillColor=#d5e8d4;strokeColor=#82b366;" parent="1" vertex="1">
          <mxGeometry x="2300" y="-900" width="120" height="60" as="geometry" />
        </mxCell>
        <mxCell id="q2DTWz9QGy7d2vup61Em-1" value="&lt;span style=&quot;color: rgb(0, 0, 0); font-family: Helvetica; font-size: 12px; font-style: normal; font-variant-ligatures: normal; font-variant-caps: normal; font-weight: 400; letter-spacing: normal; orphans: 2; text-align: center; text-indent: 0px; text-transform: none; widows: 2; word-spacing: 0px; -webkit-text-stroke-width: 0px; text-decoration-thickness: initial; text-decoration-style: initial; text-decoration-color: initial; float: none; display: inline !important;&quot;&gt;transformers&lt;/span&gt;" style="rounded=0;whiteSpace=wrap;html=1;fillColor=#f8cecc;strokeColor=#b85450;" vertex="1" parent="1">
          <mxGeometry x="1460" y="-250" width="120" height="60" as="geometry" />
        </mxCell>
        <mxCell id="q2DTWz9QGy7d2vup61Em-2" value="datasets" style="rounded=0;whiteSpace=wrap;html=1;fillColor=#fff2cc;strokeColor=#d6b656;" vertex="1" parent="1">
          <mxGeometry x="1610" y="-250" width="120" height="60" as="geometry" />
        </mxCell>
        <mxCell id="q2DTWz9QGy7d2vup61Em-3" value="metrics" style="rounded=0;whiteSpace=wrap;html=1;fillColor=#fff2cc;strokeColor=#d6b656;" vertex="1" parent="1">
          <mxGeometry x="1770" y="-250" width="120" height="60" as="geometry" />
        </mxCell>
        <mxCell id="q2DTWz9QGy7d2vup61Em-4" value="peft" style="rounded=0;whiteSpace=wrap;html=1;fillColor=#fff2cc;strokeColor=#d6b656;" vertex="1" parent="1">
          <mxGeometry x="1460" y="-160" width="120" height="60" as="geometry" />
        </mxCell>
        <mxCell id="q2DTWz9QGy7d2vup61Em-5" value="optimum" style="rounded=0;whiteSpace=wrap;html=1;fillColor=#fff2cc;strokeColor=#d6b656;" vertex="1" parent="1">
          <mxGeometry x="1610" y="-160" width="120" height="60" as="geometry" />
        </mxCell>
        <mxCell id="Ipk04A6SlpmS_l48wW7N-1" value="LangChain" style="rounded=0;whiteSpace=wrap;html=1;fillColor=#fff2cc;strokeColor=#d6b656;" vertex="1" parent="1">
          <mxGeometry x="1910" y="-570" width="120" height="60" as="geometry" />
        </mxCell>
      </root>
    </mxGraphModel>
  </diagram>
</mxfile>
